<?xml version="1.0" encoding="UTF-8"?>
<svg width="1492px" height="1732px" viewBox="0 0 1492 1732" version="1.1" xmlns="http://www.w3.org/2000/svg" xmlns:xlink="http://www.w3.org/1999/xlink">
    <!-- Generator: Sketch 50.2 (55047) - http://www.bohemiancoding.com/sketch -->
    <title>Path</title>
    <desc>Created with Sketch.</desc>
    <defs></defs>
    <g id="Page-1" stroke="none" stroke-width="1" fill="none" fill-rule="evenodd">
        <g id="individual-notes" transform="translate(-2638.000000, -3039.000000)" fill="#4A90E2" stroke="#4A90E2" stroke-width="5">
            <path d="M3189.40884,3042 L3213.67693,4309.82605 L3114.90994,4290.51168 C3077.63652,4284.28658 3051.79611,4280.33095 3037.38871,4278.64477 C3022.9813,4276.95859 2995.14904,4275.25434 2953.89192,4273.53203 C2936.76538,4275.7359 2920.98203,4277.44014 2906.54186,4278.64477 C2884.88161,4280.45171 2815.18545,4301.61049 2782.47027,4314.81237 C2760.66015,4323.61362 2740.58068,4335.55997 2722.23186,4350.6514 C2705.39981,4362.85531 2692.10507,4374.91863 2682.34764,4386.84134 C2672.5902,4398.76406 2662.31933,4415.49581 2651.53504,4437.0366 C2644.51168,4470.99225 2641,4496.26474 2641,4512.85407 C2641,4529.4434 2647.20292,4560.22051 2659.60877,4605.18539 C2666.53465,4620.25196 2674.11427,4632.25765 2682.34764,4641.20245 C2690.581,4650.14726 2703.87574,4660.8197 2722.23186,4673.21976 C2740.62921,4685.58603 2754.48538,4694.44477 2763.80038,4699.79598 C2773.11538,4705.14718 2789.91478,4713.8992 2814.19857,4726.05204 C2838.23217,4736.8258 2855.78803,4743.78268 2866.86613,4746.92269 C2877.94423,4750.06269 2899.85752,4754.29303 2932.60598,4759.61371 C2984.58758,4765.20457 3022.91071,4768 3047.57536,4768 C3072.24002,4768 3113.88716,4765.20457 3172.51678,4759.61371 C3207.48923,4749.68114 3229.9422,4742.58253 3239.87571,4738.31788 C3249.80921,4734.05323 3263.44334,4725.65892 3280.77809,4713.13496 C3297.30995,4703.58107 3310.49423,4695.0634 3320.33093,4687.58194 C3330.16762,4680.10049 3342.6926,4669.06458 3357.90585,4654.47423 C3378.19105,4631.99103 3391.92253,4615.56142 3399.10027,4605.18539 C3406.27802,4594.80937 3412.04213,4583.05651 3416.39259,4569.92682 C3427.05288,4526.90324 3433.36794,4499.24984 3435.33778,4486.96663 C3437.30762,4474.68342 3437.30762,4462.95837 3435.33778,4451.79149 L3416.39259,3297.34875 L3581.25047,3315.97176 C3612.58755,3321.73281 3636.01846,3326.72769 3651.54318,3330.9564 C3667.0679,3335.1851 3692.91186,3343.61198 3729.07506,3356.23701 C3761.85985,3369.53438 3784.63734,3379.53948 3797.40754,3386.2523 C3810.17773,3392.96513 3836.313,3408.67168 3875.81334,3433.37197 C3901.90323,3456.27565 3919.28245,3474.64292 3927.95101,3488.47378 C3934.24462,3498.51535 3977.17633,3541.9795 3964.91175,3625.55355 C3961.8263,3646.57856 3940.57106,3684.46617 3901.14601,3739.21638 L3858.6497,3808.31754 C3888.33115,3799.03405 3911.43159,3790.69919 3927.95101,3783.31294 C3944.47044,3775.9267 3964.35153,3765.04346 3987.59428,3750.66323 C4011.40594,3734.18261 4029.04151,3721.13433 4040.501,3711.5184 C4051.96049,3701.90246 4067.48986,3687.12124 4087.0891,3667.17474 C4100.76379,3647.9575 4109.24647,3634.08377 4112.53713,3625.55355 C4115.82779,3617.02332 4120.64874,3596.41065 4127,3563.71553 C4127,3542.15845 4127,3526.34392 4127,3516.27195 C4127,3506.19998 4127,3483.77666 4127,3449.002 C4123.03509,3428.63418 4118.21413,3413.70119 4112.53713,3404.20302 C4106.86013,3394.70485 4093.19939,3378.71618 4071.55492,3356.23701 C4006.90263,3300.43056 3971.35491,3269.77461 3964.91175,3264.26917 C3941.56178,3244.31752 3914.3627,3235.68957 3901.14601,3228.15909 C3873.11524,3212.18799 3742.75282,3155.18535 3712.402,3141.17612 C3692.16812,3131.83663 3660.04847,3119.86114 3616.04306,3105.24963 L3516.28638,3066.52748 L3399.10027,3042 C3399.10027,3042 3329.20313,3042 3189.40884,3042 Z" id="Path"></path>
        </g>
    </g>
</svg>