<?xml version="1.0" encoding="UTF-8"?>
<svg width="5015px" height="4743px" viewBox="0 0 5015 4743" version="1.1" xmlns="http://www.w3.org/2000/svg" xmlns:xlink="http://www.w3.org/1999/xlink">
    <!-- Generator: Sketch 50.2 (55047) - http://www.bohemiancoding.com/sketch -->
    <title>violet-flower</title>
    <desc>Created with Sketch.</desc>
    <defs></defs>
    <g id="Page-1" stroke="none" stroke-width="1" fill="none" fill-rule="evenodd">
        <g id="violet-flower" transform="translate(-448.000000, 0.000000)" fill="#CEABDE">
            <path d="M4422.94562,1170.76693 C4331.7886,1170.76693 4257.89123,1106.09338 4257.89123,1026.3145 C4257.89123,946.535632 4331.7886,881.862077 4422.94562,881.862077 C4514.10264,881.862077 4588,946.535632 4588,1026.3145 C4588,1106.09338 4514.10264,1170.76693 4422.94562,1170.76693 Z M2575.51471,411.427311 C2714.42739,392.223567 2813.43845,392.223567 2872.54791,411.427311 C2894.18038,418.455362 3019.71035,478.21764 3044.19849,566.625168 C3072.20248,667.725653 2997.44731,799.028286 2989.89545,806.786728 C2950.59047,847.166916 2859.01603,878.812155 2715.17212,901.722445 C2560.37134,886.396224 2458.23062,854.750985 2408.74994,806.786728 C2359.26927,758.822471 2331.93625,664.961903 2326.75088,525.205026 C2342.33149,400.514711 2369.66451,306.044892 2408.74994,241.79557 C2447.83537,177.546248 2510.99553,109.572615 2598.23042,37.8746718 C2675.54346,-7.04311128 2748.31259,-40.1693868 2816.53779,-61.5041549 C2884.76299,-82.8389229 2978.0249,-95.3375379 3096.32352,-99 C3228.34135,-88.5546804 3325.31177,-76.0560654 3387.23475,-61.5041549 C3423.49362,-52.9833158 3468.58783,-46.4798061 3542.32163,-22.0965457 C3577.11428,-10.5908566 3641.99113,13.95727 3736.9522,51.5478341 C3820.8779,110.836836 3873.29374,149.924435 3894.19971,168.81063 C3973.68097,240.613 3977.24136,275.904565 4008.87944,331.812477 C4053.00018,409.778597 4086.43554,535.615908 4109.18554,709.324409 C4103.00997,873.959428 4086.55718,992.431963 4059.82716,1064.74202 C4033.09715,1137.05207 3961.76248,1256.06218 3845.82316,1421.77235 C3751.66778,1524.74658 3654.86416,1616.41205 3555.41229,1696.76876 C3455.96041,1777.12547 3315.91058,1876.83664 3135.26277,1995.90228 L2263,2424 L2942.53849,1913.54581 C3060.07319,1801.77835 3146.45022,1715.36207 3201.66959,1654.29697 C3256.88896,1593.23187 3318.74402,1515.72366 3387.23475,1421.77235 C3476.04371,1267.60716 3532.10289,1161.53241 3555.41229,1103.54809 C3578.72168,1045.56377 3599.85425,959.616786 3618.80998,845.707146 C3648.85671,708.750689 3653.47277,601.916649 3632.65816,525.205026 C3620.38201,479.961648 3595.15638,384.943913 3555.41229,312.791948 C3536.98341,279.335919 3507.82376,238.131205 3467.93334,189.177806 C3385.87005,121.338341 3316.11674,75.4616839 3258.67341,51.5478341 C3201.23008,27.6339844 3129.73844,15.4937526 3044.19849,15.1271387 L2841.5533,37.8746718 C2711.46466,103.423034 2635.91205,159.348175 2614.89545,205.650092 C2593.87886,251.95201 2580.75195,320.544416 2575.51471,411.427311 Z M4422.94562,475.72047 C4331.7886,475.72047 4257.89123,411.046915 4257.89123,331.268042 C4257.89123,251.489169 4331.7886,186.815615 4422.94562,186.815615 C4514.10264,186.815615 4588,251.489169 4588,331.268042 C4588,411.046915 4514.10264,475.72047 4422.94562,475.72047 Z" id="Combined-Shape" transform="translate(3425.500000, 1162.500000) rotate(-90.000000) translate(-3425.500000, -1162.500000) "></path>
            <path d="M5367.94562,2602.76693 C5276.7886,2602.76693 5202.89123,2538.09338 5202.89123,2458.3145 C5202.89123,2378.53563 5276.7886,2313.86208 5367.94562,2313.86208 C5459.10264,2313.86208 5533,2378.53563 5533,2458.3145 C5533,2538.09338 5459.10264,2602.76693 5367.94562,2602.76693 Z M3520.51471,1843.42731 C3659.42739,1824.22357 3758.43845,1824.22357 3817.54791,1843.42731 C3839.18038,1850.45536 3964.71035,1910.21764 3989.19849,1998.62517 C4017.20248,2099.72565 3942.44731,2231.02829 3934.89545,2238.78673 C3895.59047,2279.16692 3804.01603,2310.81215 3660.17212,2333.72244 C3505.37134,2318.39622 3403.23062,2286.75099 3353.74994,2238.78673 C3304.26927,2190.82247 3276.93625,2096.9619 3271.75088,1957.20503 C3287.33149,1832.51471 3314.66451,1738.04489 3353.74994,1673.79557 C3392.83537,1609.54625 3455.99553,1541.57262 3543.23042,1469.87467 C3620.54346,1424.95689 3693.31259,1391.83061 3761.53779,1370.49585 C3829.76299,1349.16108 3923.0249,1336.66246 4041.32352,1333 C4173.34135,1343.44532 4270.31177,1355.94393 4332.23475,1370.49585 C4368.49362,1379.01668 4413.58783,1385.52019 4487.32163,1409.90345 C4522.11428,1421.40914 4586.99113,1445.95727 4681.9522,1483.54783 C4765.8779,1542.83684 4818.29374,1581.92443 4839.19971,1600.81063 C4918.68097,1672.613 4922.24136,1707.90457 4953.87944,1763.81248 C4998.00018,1841.7786 5031.43554,1967.61591 5054.18554,2141.32441 C5048.00997,2305.95943 5031.55718,2424.43196 5004.82716,2496.74202 C4978.09715,2569.05207 4906.76248,2688.06218 4790.82316,2853.77235 C4696.66778,2956.74658 4599.86416,3048.41205 4500.41229,3128.76876 C4400.96041,3209.12547 4260.91058,3308.83664 4080.26277,3427.90228 L3208,3856 L3887.53849,3345.54581 C4005.07319,3233.77835 4091.45022,3147.36207 4146.66959,3086.29697 C4201.88896,3025.23187 4263.74402,2947.72366 4332.23475,2853.77235 C4421.04371,2699.60716 4477.10289,2593.53241 4500.41229,2535.54809 C4523.72168,2477.56377 4544.85425,2391.61679 4563.80998,2277.70715 C4593.85671,2140.75069 4598.47277,2033.91665 4577.65816,1957.20503 C4565.38201,1911.96165 4540.15638,1816.94391 4500.41229,1744.79195 C4481.98341,1711.33592 4452.82376,1670.1312 4412.93334,1621.17781 C4330.87005,1553.33834 4261.11674,1507.46168 4203.67341,1483.54783 C4146.23008,1459.63398 4074.73844,1447.49375 3989.19849,1447.12714 L3786.5533,1469.87467 C3656.46466,1535.42303 3580.91205,1591.34817 3559.89545,1637.65009 C3538.87886,1683.95201 3525.75195,1752.54442 3520.51471,1843.42731 Z M5367.94562,1907.72047 C5276.7886,1907.72047 5202.89123,1843.04691 5202.89123,1763.26804 C5202.89123,1683.48917 5276.7886,1618.81561 5367.94562,1618.81561 C5459.10264,1618.81561 5533,1683.48917 5533,1763.26804 C5533,1843.04691 5459.10264,1907.72047 5367.94562,1907.72047 Z" id="Combined-Shape" transform="translate(4370.500000, 2594.500000) rotate(-15.000000) translate(-4370.500000, -2594.500000) "></path>
            <path d="M4422.94562,3870.76693 C4331.7886,3870.76693 4257.89123,3806.09338 4257.89123,3726.3145 C4257.89123,3646.53563 4331.7886,3581.86208 4422.94562,3581.86208 C4514.10264,3581.86208 4588,3646.53563 4588,3726.3145 C4588,3806.09338 4514.10264,3870.76693 4422.94562,3870.76693 Z M2575.51471,3111.42731 C2714.42739,3092.22357 2813.43845,3092.22357 2872.54791,3111.42731 C2894.18038,3118.45536 3019.71035,3178.21764 3044.19849,3266.62517 C3072.20248,3367.72565 2997.44731,3499.02829 2989.89545,3506.78673 C2950.59047,3547.16692 2859.01603,3578.81215 2715.17212,3601.72244 C2560.37134,3586.39622 2458.23062,3554.75099 2408.74994,3506.78673 C2359.26927,3458.82247 2331.93625,3364.9619 2326.75088,3225.20503 C2342.33149,3100.51471 2369.66451,3006.04489 2408.74994,2941.79557 C2447.83537,2877.54625 2510.99553,2809.57262 2598.23042,2737.87467 C2675.54346,2692.95689 2748.31259,2659.83061 2816.53779,2638.49585 C2884.76299,2617.16108 2978.0249,2604.66246 3096.32352,2601 C3228.34135,2611.44532 3325.31177,2623.94393 3387.23475,2638.49585 C3423.49362,2647.01668 3468.58783,2653.52019 3542.32163,2677.90345 C3577.11428,2689.40914 3641.99113,2713.95727 3736.9522,2751.54783 C3820.8779,2810.83684 3873.29374,2849.92443 3894.19971,2868.81063 C3973.68097,2940.613 3977.24136,2975.90457 4008.87944,3031.81248 C4053.00018,3109.7786 4086.43554,3235.61591 4109.18554,3409.32441 C4103.00997,3573.95943 4086.55718,3692.43196 4059.82716,3764.74202 C4033.09715,3837.05207 3961.76248,3956.06218 3845.82316,4121.77235 C3751.66778,4224.74658 3654.86416,4316.41205 3555.41229,4396.76876 C3455.96041,4477.12547 3315.91058,4576.83664 3135.26277,4695.90228 L2263,5124 L2942.53849,4613.54581 C3060.07319,4501.77835 3146.45022,4415.36207 3201.66959,4354.29697 C3256.88896,4293.23187 3318.74402,4215.72366 3387.23475,4121.77235 C3476.04371,3967.60716 3532.10289,3861.53241 3555.41229,3803.54809 C3578.72168,3745.56377 3599.85425,3659.61679 3618.80998,3545.70715 C3648.85671,3408.75069 3653.47277,3301.91665 3632.65816,3225.20503 C3620.38201,3179.96165 3595.15638,3084.94391 3555.41229,3012.79195 C3536.98341,2979.33592 3507.82376,2938.1312 3467.93334,2889.17781 C3385.87005,2821.33834 3316.11674,2775.46168 3258.67341,2751.54783 C3201.23008,2727.63398 3129.73844,2715.49375 3044.19849,2715.12714 L2841.5533,2737.87467 C2711.46466,2803.42303 2635.91205,2859.34817 2614.89545,2905.65009 C2593.87886,2951.95201 2580.75195,3020.54442 2575.51471,3111.42731 Z M4422.94562,3175.72047 C4331.7886,3175.72047 4257.89123,3111.04691 4257.89123,3031.26804 C4257.89123,2951.48917 4331.7886,2886.81561 4422.94562,2886.81561 C4514.10264,2886.81561 4588,2951.48917 4588,3031.26804 C4588,3111.04691 4514.10264,3175.72047 4422.94562,3175.72047 Z" id="Combined-Shape" transform="translate(3425.500000, 3862.500000) rotate(47.000000) translate(-3425.500000, -3862.500000) "></path>
            <path d="M2701.94562,1761.76693 C2610.7886,1761.76693 2536.89123,1697.09338 2536.89123,1617.3145 C2536.89123,1537.53563 2610.7886,1472.86208 2701.94562,1472.86208 C2793.10264,1472.86208 2867,1537.53563 2867,1617.3145 C2867,1697.09338 2793.10264,1761.76693 2701.94562,1761.76693 Z M854.514715,1002.42731 C993.427388,983.223567 1092.43845,983.223567 1151.54791,1002.42731 C1173.18038,1009.45536 1298.71035,1069.21764 1323.19849,1157.62517 C1351.20248,1258.72565 1276.44731,1390.02829 1268.89545,1397.78673 C1229.59047,1438.16692 1138.01603,1469.81215 994.17212,1492.72244 C839.371342,1477.39622 737.230616,1445.75099 687.749941,1397.78673 C638.269265,1349.82247 610.936246,1255.9619 605.750883,1116.20503 C621.331495,991.514711 648.664514,897.044892 687.749941,832.79557 C726.835367,768.546248 789.995526,700.572615 877.230416,628.874672 C954.543465,583.956889 1027.31259,550.830613 1095.53779,529.495845 C1163.76299,508.161077 1257.0249,495.662462 1375.32352,492 C1507.34135,502.44532 1604.31177,514.943935 1666.23475,529.495845 C1702.49362,538.016684 1747.58783,544.520194 1821.32163,568.903454 C1856.11428,580.409143 1920.99113,604.95727 2015.9522,642.547834 C2099.8779,701.836836 2152.29374,740.924435 2173.19971,759.81063 C2252.68097,831.613 2256.24136,866.904565 2287.87944,922.812477 C2332.00018,1000.7786 2365.43554,1126.61591 2388.18554,1300.32441 C2382.00997,1464.95943 2365.55718,1583.43196 2338.82716,1655.74202 C2312.09715,1728.05207 2240.76248,1847.06218 2124.82316,2012.77235 C2030.66778,2115.74658 1933.86416,2207.41205 1834.41229,2287.76876 C1734.96041,2368.12547 1594.91058,2467.83664 1414.26277,2586.90228 L542,3015 L1221.53849,2504.54581 C1339.07319,2392.77835 1425.45022,2306.36207 1480.66959,2245.29697 C1535.88896,2184.23187 1597.74402,2106.72366 1666.23475,2012.77235 C1755.04371,1858.60716 1811.10289,1752.53241 1834.41229,1694.54809 C1857.72168,1636.56377 1878.85425,1550.61679 1897.80998,1436.70715 C1927.85671,1299.75069 1932.47277,1192.91665 1911.65816,1116.20503 C1899.38201,1070.96165 1874.15638,975.943913 1834.41229,903.791948 C1815.98341,870.335919 1786.82376,829.131205 1746.93334,780.177806 C1664.87005,712.338341 1595.11674,666.461684 1537.67341,642.547834 C1480.23008,618.633984 1408.73844,606.493753 1323.19849,606.127139 L1120.5533,628.874672 C990.464663,694.423034 914.912048,750.348175 893.895454,796.650092 C872.878861,842.95201 859.751948,911.544416 854.514715,1002.42731 Z M2701.94562,1066.72047 C2610.7886,1066.72047 2536.89123,1002.04691 2536.89123,922.268042 C2536.89123,842.489169 2610.7886,777.815615 2701.94562,777.815615 C2793.10264,777.815615 2867,842.489169 2867,922.268042 C2867,1002.04691 2793.10264,1066.72047 2701.94562,1066.72047 Z" id="Combined-Shape" transform="translate(1704.500000, 1753.500000) rotate(187.000000) translate(-1704.500000, -1753.500000) "></path>
            <path d="M2701.94562,3296.76693 C2610.7886,3296.76693 2536.89123,3232.09338 2536.89123,3152.3145 C2536.89123,3072.53563 2610.7886,3007.86208 2701.94562,3007.86208 C2793.10264,3007.86208 2867,3072.53563 2867,3152.3145 C2867,3232.09338 2793.10264,3296.76693 2701.94562,3296.76693 Z M854.514715,2537.42731 C993.427388,2518.22357 1092.43845,2518.22357 1151.54791,2537.42731 C1173.18038,2544.45536 1298.71035,2604.21764 1323.19849,2692.62517 C1351.20248,2793.72565 1276.44731,2925.02829 1268.89545,2932.78673 C1229.59047,2973.16692 1138.01603,3004.81215 994.17212,3027.72244 C839.371342,3012.39622 737.230616,2980.75099 687.749941,2932.78673 C638.269265,2884.82247 610.936246,2790.9619 605.750883,2651.20503 C621.331495,2526.51471 648.664514,2432.04489 687.749941,2367.79557 C726.835367,2303.54625 789.995526,2235.57262 877.230416,2163.87467 C954.543465,2118.95689 1027.31259,2085.83061 1095.53779,2064.49585 C1163.76299,2043.16108 1257.0249,2030.66246 1375.32352,2027 C1507.34135,2037.44532 1604.31177,2049.94393 1666.23475,2064.49585 C1702.49362,2073.01668 1747.58783,2079.52019 1821.32163,2103.90345 C1856.11428,2115.40914 1920.99113,2139.95727 2015.9522,2177.54783 C2099.8779,2236.83684 2152.29374,2275.92443 2173.19971,2294.81063 C2252.68097,2366.613 2256.24136,2401.90457 2287.87944,2457.81248 C2332.00018,2535.7786 2365.43554,2661.61591 2388.18554,2835.32441 C2382.00997,2999.95943 2365.55718,3118.43196 2338.82716,3190.74202 C2312.09715,3263.05207 2240.76248,3382.06218 2124.82316,3547.77235 C2030.66778,3650.74658 1933.86416,3742.41205 1834.41229,3822.76876 C1734.96041,3903.12547 1594.91058,4002.83664 1414.26277,4121.90228 L542,4550 L1221.53849,4039.54581 C1339.07319,3927.77835 1425.45022,3841.36207 1480.66959,3780.29697 C1535.88896,3719.23187 1597.74402,3641.72366 1666.23475,3547.77235 C1755.04371,3393.60716 1811.10289,3287.53241 1834.41229,3229.54809 C1857.72168,3171.56377 1878.85425,3085.61679 1897.80998,2971.70715 C1927.85671,2834.75069 1932.47277,2727.91665 1911.65816,2651.20503 C1899.38201,2605.96165 1874.15638,2510.94391 1834.41229,2438.79195 C1815.98341,2405.33592 1786.82376,2364.1312 1746.93334,2315.17781 C1664.87005,2247.33834 1595.11674,2201.46168 1537.67341,2177.54783 C1480.23008,2153.63398 1408.73844,2141.49375 1323.19849,2141.12714 L1120.5533,2163.87467 C990.464663,2229.42303 914.912048,2285.34817 893.895454,2331.65009 C872.878861,2377.95201 859.751948,2446.54442 854.514715,2537.42731 Z M2701.94562,2601.72047 C2610.7886,2601.72047 2536.89123,2537.04691 2536.89123,2457.26804 C2536.89123,2377.48917 2610.7886,2312.81561 2701.94562,2312.81561 C2793.10264,2312.81561 2867,2377.48917 2867,2457.26804 C2867,2537.04691 2793.10264,2601.72047 2701.94562,2601.72047 Z" id="Combined-Shape" transform="translate(1704.500000, 3288.500000) rotate(126.000000) translate(-1704.500000, -3288.500000) "></path>
        </g>
    </g>
</svg>