<?xml version="1.0" encoding="UTF-8"?>
<svg width="4692px" height="4803px" viewBox="0 0 4692 4803" version="1.1" xmlns="http://www.w3.org/2000/svg" xmlns:xlink="http://www.w3.org/1999/xlink">
    <!-- Generator: Sketch 50.2 (55047) - http://www.bohemiancoding.com/sketch -->
    <title>pink flower</title>
    <desc>Created with Sketch.</desc>
    <defs></defs>
    <g id="Page-1" stroke="none" stroke-width="1" fill="none" fill-rule="evenodd">
        <g id="pink-flower" transform="translate(-192.000000, 1.000000)" fill="#E39AC6">
            <g id="pink-copy" transform="translate(2507.000000, 0.000000)">
                <path d="M747.697567,40.0485892 C1042.44953,135.072564 1201.30063,484.172872 1105.53208,1017.02845 C1009.76353,1549.88403 617.264738,1836.22355 494.144861,1941.90131 C371.024983,2047.57908 185.633877,2164.1219 83.1414136,2236.19345 C-19.3510498,2308.26499 -19.3510498,2163.57865 41.1641815,2121.884 C101.679413,2080.18934 476.08476,1726.6072 653.873952,1371.81782 C831.663145,1017.02845 825.017028,699.602802 801.266606,553.784687 C777.516184,407.966572 693.517264,167.954451 428.472776,213.361334 C251.776451,243.632589 170.715307,346.09108 185.289346,520.736806 C416.910606,407.367988 532.721237,454.907641 532.721237,663.355766 C532.721237,871.803891 434.014912,946.712421 236.602261,888.081355 C84.4973104,822.891015 8.44483513,688.254854 8.44483513,484.172872 C8.44483513,280.090891 75.2134923,143.855152 208.750807,75.465656 C371.547337,-11.4950386 551.196257,-23.3007275 747.697567,40.0485892 Z" id="Path-10" stroke="#E39AC6"></path>
                <ellipse id="Oval-3" stroke="#F095C8" cx="1405.28398" cy="1064.32258" rx="142.716016" ry="186.989247"></ellipse>
                <ellipse id="Oval-3" stroke="#F095C8" cx="1405.28398" cy="437.655914" rx="142.716016" ry="186.989247"></ellipse>
            </g>
            <g id="pink-copy" transform="translate(3830.000000, 2590.000000) rotate(69.000000) translate(-3830.000000, -2590.000000) translate(3056.000000, 1462.000000)">
                <path d="M747.697567,40.0485892 C1042.44953,135.072564 1201.30063,484.172872 1105.53208,1017.02845 C1009.76353,1549.88403 617.264738,1836.22355 494.144861,1941.90131 C371.024983,2047.57908 185.633877,2164.1219 83.1414136,2236.19345 C-19.3510498,2308.26499 -19.3510498,2163.57865 41.1641815,2121.884 C101.679413,2080.18934 476.08476,1726.6072 653.873952,1371.81782 C831.663145,1017.02845 825.017028,699.602802 801.266606,553.784687 C777.516184,407.966572 693.517264,167.954451 428.472776,213.361334 C251.776451,243.632589 170.715307,346.09108 185.289346,520.736806 C416.910606,407.367988 532.721237,454.907641 532.721237,663.355766 C532.721237,871.803891 434.014912,946.712421 236.602261,888.081355 C84.4973104,822.891015 8.44483513,688.254854 8.44483513,484.172872 C8.44483513,280.090891 75.2134923,143.855152 208.750807,75.465656 C371.547337,-11.4950386 551.196257,-23.3007275 747.697567,40.0485892 Z" id="Path-10" stroke="#E39AC6"></path>
                <ellipse id="Oval-3" stroke="#F095C8" cx="1405.28398" cy="1064.32258" rx="142.716016" ry="186.989247"></ellipse>
                <ellipse id="Oval-3" stroke="#F095C8" cx="1405.28398" cy="437.655914" rx="142.716016" ry="186.989247"></ellipse>
            </g>
            <g id="pink-copy" transform="translate(2657.000000, 3696.000000) rotate(139.000000) translate(-2657.000000, -3696.000000) translate(1883.000000, 2568.000000)">
                <path d="M747.697567,40.0485892 C1042.44953,135.072564 1201.30063,484.172872 1105.53208,1017.02845 C1009.76353,1549.88403 617.264738,1836.22355 494.144861,1941.90131 C371.024983,2047.57908 185.633877,2164.1219 83.1414136,2236.19345 C-19.3510498,2308.26499 -19.3510498,2163.57865 41.1641815,2121.884 C101.679413,2080.18934 476.08476,1726.6072 653.873952,1371.81782 C831.663145,1017.02845 825.017028,699.602802 801.266606,553.784687 C777.516184,407.966572 693.517264,167.954451 428.472776,213.361334 C251.776451,243.632589 170.715307,346.09108 185.289346,520.736806 C416.910606,407.367988 532.721237,454.907641 532.721237,663.355766 C532.721237,871.803891 434.014912,946.712421 236.602261,888.081355 C84.4973104,822.891015 8.44483513,688.254854 8.44483513,484.172872 C8.44483513,280.090891 75.2134923,143.855152 208.750807,75.465656 C371.547337,-11.4950386 551.196257,-23.3007275 747.697567,40.0485892 Z" id="Path-10" stroke="#E39AC6"></path>
                <ellipse id="Oval-3" stroke="#F095C8" cx="1405.28398" cy="1064.32258" rx="142.716016" ry="186.989247"></ellipse>
                <ellipse id="Oval-3" stroke="#F095C8" cx="1405.28398" cy="437.655914" rx="142.716016" ry="186.989247"></ellipse>
            </g>
            <g id="pink-copy" transform="translate(1245.000000, 2840.000000) rotate(211.000000) translate(-1245.000000, -2840.000000) translate(471.000000, 1712.000000)">
                <path d="M747.697567,40.0485892 C1042.44953,135.072564 1201.30063,484.172872 1105.53208,1017.02845 C1009.76353,1549.88403 617.264738,1836.22355 494.144861,1941.90131 C371.024983,2047.57908 185.633877,2164.1219 83.1414136,2236.19345 C-19.3510498,2308.26499 -19.3510498,2163.57865 41.1641815,2121.884 C101.679413,2080.18934 476.08476,1726.6072 653.873952,1371.81782 C831.663145,1017.02845 825.017028,699.602802 801.266606,553.784687 C777.516184,407.966572 693.517264,167.954451 428.472776,213.361334 C251.776451,243.632589 170.715307,346.09108 185.289346,520.736806 C416.910606,407.367988 532.721237,454.907641 532.721237,663.355766 C532.721237,871.803891 434.014912,946.712421 236.602261,888.081355 C84.4973104,822.891015 8.44483513,688.254854 8.44483513,484.172872 C8.44483513,280.090891 75.2134923,143.855152 208.750807,75.465656 C371.547337,-11.4950386 551.196257,-23.3007275 747.697567,40.0485892 Z" id="Path-10" stroke="#E39AC6"></path>
                <ellipse id="Oval-3" stroke="#F095C8" cx="1405.28398" cy="1064.32258" rx="142.716016" ry="186.989247"></ellipse>
                <ellipse id="Oval-3" stroke="#F095C8" cx="1405.28398" cy="437.655914" rx="142.716016" ry="186.989247"></ellipse>
            </g>
            <g id="pink-copy" transform="translate(1441.000000, 1313.000000) rotate(278.000000) translate(-1441.000000, -1313.000000) translate(667.000000, 185.000000)">
                <path d="M747.697567,40.0485892 C1042.44953,135.072564 1201.30063,484.172872 1105.53208,1017.02845 C1009.76353,1549.88403 617.264738,1836.22355 494.144861,1941.90131 C371.024983,2047.57908 185.633877,2164.1219 83.1414136,2236.19345 C-19.3510498,2308.26499 -19.3510498,2163.57865 41.1641815,2121.884 C101.679413,2080.18934 476.08476,1726.6072 653.873952,1371.81782 C831.663145,1017.02845 825.017028,699.602802 801.266606,553.784687 C777.516184,407.966572 693.517264,167.954451 428.472776,213.361334 C251.776451,243.632589 170.715307,346.09108 185.289346,520.736806 C416.910606,407.367988 532.721237,454.907641 532.721237,663.355766 C532.721237,871.803891 434.014912,946.712421 236.602261,888.081355 C84.4973104,822.891015 8.44483513,688.254854 8.44483513,484.172872 C8.44483513,280.090891 75.2134923,143.855152 208.750807,75.465656 C371.547337,-11.4950386 551.196257,-23.3007275 747.697567,40.0485892 Z" id="Path-10" stroke="#E39AC6"></path>
                <ellipse id="Oval-3" stroke="#F095C8" cx="1405.28398" cy="1064.32258" rx="142.716016" ry="186.989247"></ellipse>
                <ellipse id="Oval-3" stroke="#F095C8" cx="1405.28398" cy="437.655914" rx="142.716016" ry="186.989247"></ellipse>
            </g>
            <g id="pink-copy" transform="translate(2657.000000, 3696.000000) rotate(139.000000) translate(-2657.000000, -3696.000000) translate(1883.000000, 2568.000000)">
                <path d="M747.697567,40.0485892 C1042.44953,135.072564 1201.30063,484.172872 1105.53208,1017.02845 C1009.76353,1549.88403 617.264738,1836.22355 494.144861,1941.90131 C371.024983,2047.57908 185.633877,2164.1219 83.1414136,2236.19345 C-19.3510498,2308.26499 -19.3510498,2163.57865 41.1641815,2121.884 C101.679413,2080.18934 476.08476,1726.6072 653.873952,1371.81782 C831.663145,1017.02845 825.017028,699.602802 801.266606,553.784687 C777.516184,407.966572 693.517264,167.954451 428.472776,213.361334 C251.776451,243.632589 170.715307,346.09108 185.289346,520.736806 C416.910606,407.367988 532.721237,454.907641 532.721237,663.355766 C532.721237,871.803891 434.014912,946.712421 236.602261,888.081355 C84.4973104,822.891015 8.44483513,688.254854 8.44483513,484.172872 C8.44483513,280.090891 75.2134923,143.855152 208.750807,75.465656 C371.547337,-11.4950386 551.196257,-23.3007275 747.697567,40.0485892 Z" id="Path-10" stroke="#E39AC6"></path>
                <ellipse id="Oval-3" stroke="#F095C8" cx="1405.28398" cy="1064.32258" rx="142.716016" ry="186.989247"></ellipse>
                <ellipse id="Oval-3" stroke="#F095C8" cx="1405.28398" cy="437.655914" rx="142.716016" ry="186.989247"></ellipse>
            </g>
            <path d="M2386.7068,1034.95423 C2375.73736,952.736102 2371.95174,875.217227 2375.34995,802.397604 C2380.44726,693.168169 2418.40986,597 2475.60665,597 C2513.73784,597 2537.19289,636.882301 2545.97179,716.646902 C2553.7463,779.927821 2549.35685,848.799271 2532.80344,923.261254 C2516.25003,997.723237 2490.09028,1065.46557 2454.32421,1126.48824 L2466.3393,1285.68697 C2510.64873,1293.39805 2540.93786,1334.59223 2557.20669,1409.26952 C2581.60993,1521.28546 2568.44158,1576.07668 2557.20669,1622.32062 C2549.71676,1653.14992 2530.56268,1685.03323 2499.74445,1717.97055 C2502.9346,1788.46683 2504.52968,1842.7298 2504.52968,1880.75943 C2504.52968,1937.80389 2475.38783,2043.51077 2427.81173,2059.41111 C2380.23562,2075.31146 2327.8133,2036.06006 2312.40299,1987.34507 C2296.99267,1938.63008 2300.70535,1902.18021 2312.40299,1849.02634 C2324.10062,1795.87247 2360.02931,1774.07616 2386.7068,1795.87247 C2413.38429,1817.66879 2424.13193,1864.80977 2413.38429,1916.14277 C2406.2192,1950.36477 2389.35371,1970.09812 2362.78782,1975.34283 C2372.53226,1991.85655 2383.53638,2000.11342 2395.80018,2000.11342 C2414.19588,2000.11342 2451.77768,1975.08033 2460.83485,1916.14277 C2466.87296,1876.85107 2464.70274,1816.57697 2454.32421,1735.32048 C2393.29995,1743.37705 2347.65969,1727.41912 2317.40345,1687.44669 C2272.01907,1627.48805 2244,1560.30402 2244,1409.26952 C2244,1308.57986 2266.801,1220.16533 2312.40299,1144.02594 L2386.7068,1034.95423 Z M2435.47384,979.42695 C2442.21112,971.337622 2452.26063,950.049537 2465.62236,915.562693 C2478.9841,881.07585 2488.23574,849.933606 2493.37729,822.135963 C2497.91382,776.119849 2492.71248,748.242297 2477.77328,738.503304 C2462.83407,728.764312 2448.73426,745.365664 2435.47384,788.30736 C2430.33946,818.270409 2427.77227,846.155473 2427.77227,871.962551 C2427.77227,897.769629 2430.33946,933.591095 2435.47384,979.42695 Z M2408.50938,1193.37183 C2360.25052,1219.43929 2329.88188,1260.5108 2317.40345,1316.58636 C2298.6858,1400.69971 2302.8397,1433.85234 2302.8397,1478.5791 C2302.8397,1523.30587 2321.65061,1594.1852 2363.86037,1627.90114 C2392.00021,1650.37844 2420.12809,1658.07199 2448.24402,1650.9818 L2427.1768,1396.83916 C2414.73185,1396.83916 2405.07171,1405.7101 2398.19638,1423.45197 C2387.88338,1450.06478 2380.61944,1474.63594 2388.35329,1523.30587 C2393.5092,1555.75248 2403.33195,1580.9612 2417.82157,1598.93202 C2385.86741,1586.40402 2365.3287,1570.13314 2356.20543,1550.11939 C2342.52053,1520.09876 2338.1263,1478.5791 2356.20543,1397.9057 C2368.25819,1344.12343 2388.7969,1313.04127 2417.82157,1304.65923 L2408.50938,1193.37183 Z M2473.71623,1397.9057 L2490.55063,1623.92042 C2510.82457,1597.02685 2522.19577,1567.98513 2524.66424,1536.79525 C2528.36695,1490.01043 2524.02235,1447.93144 2508.73738,1418.33505 C2498.54741,1398.60412 2486.87369,1391.79433 2473.71623,1397.9057 Z" id="gray" stroke="#E39AC6" transform="translate(2407.500000, 1330.000000) rotate(-11.000000) translate(-2407.500000, -1330.000000) "></path>
            <path d="M3470.7068,1557.95423 C3459.73736,1475.7361 3455.95174,1398.21723 3459.34995,1325.3976 C3464.44726,1216.16817 3502.40986,1120 3559.60665,1120 C3597.73784,1120 3621.19289,1159.8823 3629.97179,1239.6469 C3637.7463,1302.92782 3633.35685,1371.79927 3616.80344,1446.26125 C3600.25003,1520.72324 3574.09028,1588.46557 3538.32421,1649.48824 L3550.3393,1808.68697 C3594.64873,1816.39805 3624.93786,1857.59223 3641.20669,1932.26952 C3665.60993,2044.28546 3652.44158,2099.07668 3641.20669,2145.32062 C3633.71676,2176.14992 3614.56268,2208.03323 3583.74445,2240.97055 C3586.9346,2311.46683 3588.52968,2365.7298 3588.52968,2403.75943 C3588.52968,2460.80389 3559.38783,2566.51077 3511.81173,2582.41111 C3464.23562,2598.31146 3411.8133,2559.06006 3396.40299,2510.34507 C3380.99267,2461.63008 3384.70535,2425.18021 3396.40299,2372.02634 C3408.10062,2318.87247 3444.02931,2297.07616 3470.7068,2318.87247 C3497.38429,2340.66879 3508.13193,2387.80977 3497.38429,2439.14277 C3490.2192,2473.36477 3473.35371,2493.09812 3446.78782,2498.34283 C3456.53226,2514.85655 3467.53638,2523.11342 3479.80018,2523.11342 C3498.19588,2523.11342 3535.77768,2498.08033 3544.83485,2439.14277 C3550.87296,2399.85107 3548.70274,2339.57697 3538.32421,2258.32048 C3477.29995,2266.37705 3431.65969,2250.41912 3401.40345,2210.44669 C3356.01907,2150.48805 3328,2083.30402 3328,1932.26952 C3328,1831.57986 3350.801,1743.16533 3396.40299,1667.02594 L3470.7068,1557.95423 Z M3519.47384,1502.42695 C3526.21112,1494.33762 3536.26063,1473.04954 3549.62236,1438.56269 C3562.9841,1404.07585 3572.23574,1372.93361 3577.37729,1345.13596 C3581.91382,1299.11985 3576.71248,1271.2423 3561.77328,1261.5033 C3546.83407,1251.76431 3532.73426,1268.36566 3519.47384,1311.30736 C3514.33946,1341.27041 3511.77227,1369.15547 3511.77227,1394.96255 C3511.77227,1420.76963 3514.33946,1456.5911 3519.47384,1502.42695 Z M3492.50938,1716.37183 C3444.25052,1742.43929 3413.88188,1783.5108 3401.40345,1839.58636 C3382.6858,1923.69971 3386.8397,1956.85234 3386.8397,2001.5791 C3386.8397,2046.30587 3405.65061,2117.1852 3447.86037,2150.90114 C3476.00021,2173.37844 3504.12809,2181.07199 3532.24402,2173.9818 L3511.1768,1919.83916 C3498.73185,1919.83916 3489.07171,1928.7101 3482.19638,1946.45197 C3471.88338,1973.06478 3464.61944,1997.63594 3472.35329,2046.30587 C3477.5092,2078.75248 3487.33195,2103.9612 3501.82157,2121.93202 C3469.86741,2109.40402 3449.3287,2093.13314 3440.20543,2073.11939 C3426.52053,2043.09876 3422.1263,2001.5791 3440.20543,1920.9057 C3452.25819,1867.12343 3472.7969,1836.04127 3501.82157,1827.65923 L3492.50938,1716.37183 Z M3557.71623,1920.9057 L3574.55063,2146.92042 C3594.82457,2120.02685 3606.19577,2090.98513 3608.66424,2059.79525 C3612.36695,2013.01043 3608.02235,1970.93144 3592.73738,1941.33505 C3582.54741,1921.60412 3570.87369,1914.79433 3557.71623,1920.9057 Z" id="gray" stroke="#E39AC6" transform="translate(3491.500000, 1853.000000) rotate(53.000000) translate(-3491.500000, -1853.000000) "></path>
            <path d="M3178.7068,2737.95423 C3167.73736,2655.7361 3163.95174,2578.21723 3167.34995,2505.3976 C3172.44726,2396.16817 3210.40986,2300 3267.60665,2300 C3305.73784,2300 3329.19289,2339.8823 3337.97179,2419.6469 C3345.7463,2482.92782 3341.35685,2551.79927 3324.80344,2626.26125 C3308.25003,2700.72324 3282.09028,2768.46557 3246.32421,2829.48824 L3258.3393,2988.68697 C3302.64873,2996.39805 3332.93786,3037.59223 3349.20669,3112.26952 C3373.60993,3224.28546 3360.44158,3279.07668 3349.20669,3325.32062 C3341.71676,3356.14992 3322.56268,3388.03323 3291.74445,3420.97055 C3294.9346,3491.46683 3296.52968,3545.7298 3296.52968,3583.75943 C3296.52968,3640.80389 3267.38783,3746.51077 3219.81173,3762.41111 C3172.23562,3778.31146 3119.8133,3739.06006 3104.40299,3690.34507 C3088.99267,3641.63008 3092.70535,3605.18021 3104.40299,3552.02634 C3116.10062,3498.87247 3152.02931,3477.07616 3178.7068,3498.87247 C3205.38429,3520.66879 3216.13193,3567.80977 3205.38429,3619.14277 C3198.2192,3653.36477 3181.35371,3673.09812 3154.78782,3678.34283 C3164.53226,3694.85655 3175.53638,3703.11342 3187.80018,3703.11342 C3206.19588,3703.11342 3243.77768,3678.08033 3252.83485,3619.14277 C3258.87296,3579.85107 3256.70274,3519.57697 3246.32421,3438.32048 C3185.29995,3446.37705 3139.65969,3430.41912 3109.40345,3390.44669 C3064.01907,3330.48805 3036,3263.30402 3036,3112.26952 C3036,3011.57986 3058.801,2923.16533 3104.40299,2847.02594 L3178.7068,2737.95423 Z M3227.47384,2682.42695 C3234.21112,2674.33762 3244.26063,2653.04954 3257.62236,2618.56269 C3270.9841,2584.07585 3280.23574,2552.93361 3285.37729,2525.13596 C3289.91382,2479.11985 3284.71248,2451.2423 3269.77328,2441.5033 C3254.83407,2431.76431 3240.73426,2448.36566 3227.47384,2491.30736 C3222.33946,2521.27041 3219.77227,2549.15547 3219.77227,2574.96255 C3219.77227,2600.76963 3222.33946,2636.5911 3227.47384,2682.42695 Z M3200.50938,2896.37183 C3152.25052,2922.43929 3121.88188,2963.5108 3109.40345,3019.58636 C3090.6858,3103.69971 3094.8397,3136.85234 3094.8397,3181.5791 C3094.8397,3226.30587 3113.65061,3297.1852 3155.86037,3330.90114 C3184.00021,3353.37844 3212.12809,3361.07199 3240.24402,3353.9818 L3219.1768,3099.83916 C3206.73185,3099.83916 3197.07171,3108.7101 3190.19638,3126.45197 C3179.88338,3153.06478 3172.61944,3177.63594 3180.35329,3226.30587 C3185.5092,3258.75248 3195.33195,3283.9612 3209.82157,3301.93202 C3177.86741,3289.40402 3157.3287,3273.13314 3148.20543,3253.11939 C3134.52053,3223.09876 3130.1263,3181.5791 3148.20543,3100.9057 C3160.25819,3047.12343 3180.7969,3016.04127 3209.82157,3007.65923 L3200.50938,2896.37183 Z M3265.71623,3100.9057 L3282.55063,3326.92042 C3302.82457,3300.02685 3314.19577,3270.98513 3316.66424,3239.79525 C3320.36695,3193.01043 3316.02235,3150.93144 3300.73738,3121.33505 C3290.54741,3101.60412 3278.87369,3094.79433 3265.71623,3100.9057 Z" id="gray" stroke="#E39AC6" transform="translate(3199.500000, 3033.000000) rotate(128.000000) translate(-3199.500000, -3033.000000) "></path>
            <path d="M2005.7068,2841.95423 C1994.73736,2759.7361 1990.95174,2682.21723 1994.34995,2609.3976 C1999.44726,2500.16817 2037.40986,2404 2094.60665,2404 C2132.73784,2404 2156.19289,2443.8823 2164.97179,2523.6469 C2172.7463,2586.92782 2168.35685,2655.79927 2151.80344,2730.26125 C2135.25003,2804.72324 2109.09028,2872.46557 2073.32421,2933.48824 L2085.3393,3092.68697 C2129.64873,3100.39805 2159.93786,3141.59223 2176.20669,3216.26952 C2200.60993,3328.28546 2187.44158,3383.07668 2176.20669,3429.32062 C2168.71676,3460.14992 2149.56268,3492.03323 2118.74445,3524.97055 C2121.9346,3595.46683 2123.52968,3649.7298 2123.52968,3687.75943 C2123.52968,3744.80389 2094.38783,3850.51077 2046.81173,3866.41111 C1999.23562,3882.31146 1946.8133,3843.06006 1931.40299,3794.34507 C1915.99267,3745.63008 1919.70535,3709.18021 1931.40299,3656.02634 C1943.10062,3602.87247 1979.02931,3581.07616 2005.7068,3602.87247 C2032.38429,3624.66879 2043.13193,3671.80977 2032.38429,3723.14277 C2025.2192,3757.36477 2008.35371,3777.09812 1981.78782,3782.34283 C1991.53226,3798.85655 2002.53638,3807.11342 2014.80018,3807.11342 C2033.19588,3807.11342 2070.77768,3782.08033 2079.83485,3723.14277 C2085.87296,3683.85107 2083.70274,3623.57697 2073.32421,3542.32048 C2012.29995,3550.37705 1966.65969,3534.41912 1936.40345,3494.44669 C1891.01907,3434.48805 1863,3367.30402 1863,3216.26952 C1863,3115.57986 1885.801,3027.16533 1931.40299,2951.02594 L2005.7068,2841.95423 Z M2054.47384,2786.42695 C2061.21112,2778.33762 2071.26063,2757.04954 2084.62236,2722.56269 C2097.9841,2688.07585 2107.23574,2656.93361 2112.37729,2629.13596 C2116.91382,2583.11985 2111.71248,2555.2423 2096.77328,2545.5033 C2081.83407,2535.76431 2067.73426,2552.36566 2054.47384,2595.30736 C2049.33946,2625.27041 2046.77227,2653.15547 2046.77227,2678.96255 C2046.77227,2704.76963 2049.33946,2740.5911 2054.47384,2786.42695 Z M2027.50938,3000.37183 C1979.25052,3026.43929 1948.88188,3067.5108 1936.40345,3123.58636 C1917.6858,3207.69971 1921.8397,3240.85234 1921.8397,3285.5791 C1921.8397,3330.30587 1940.65061,3401.1852 1982.86037,3434.90114 C2011.00021,3457.37844 2039.12809,3465.07199 2067.24402,3457.9818 L2046.1768,3203.83916 C2033.73185,3203.83916 2024.07171,3212.7101 2017.19638,3230.45197 C2006.88338,3257.06478 1999.61944,3281.63594 2007.35329,3330.30587 C2012.5092,3362.75248 2022.33195,3387.9612 2036.82157,3405.93202 C2004.86741,3393.40402 1984.3287,3377.13314 1975.20543,3357.11939 C1961.52053,3327.09876 1957.1263,3285.5791 1975.20543,3204.9057 C1987.25819,3151.12343 2007.7969,3120.04127 2036.82157,3111.65923 L2027.50938,3000.37183 Z M2092.71623,3204.9057 L2109.55063,3430.92042 C2129.82457,3404.02685 2141.19577,3374.98513 2143.66424,3343.79525 C2147.36695,3297.01043 2143.02235,3254.93144 2127.73738,3225.33505 C2117.54741,3205.60412 2105.87369,3198.79433 2092.71623,3204.9057 Z" id="gray" stroke="#E39AC6" transform="translate(2026.500000, 3137.000000) rotate(196.000000) translate(-2026.500000, -3137.000000) "></path>
            <path d="M1454.7068,1846.95423 C1443.73736,1764.7361 1439.95174,1687.21723 1443.34995,1614.3976 C1448.44726,1505.16817 1486.40986,1409 1543.60665,1409 C1581.73784,1409 1605.19289,1448.8823 1613.97179,1528.6469 C1621.7463,1591.92782 1617.35685,1660.79927 1600.80344,1735.26125 C1584.25003,1809.72324 1558.09028,1877.46557 1522.32421,1938.48824 L1534.3393,2097.68697 C1578.64873,2105.39805 1608.93786,2146.59223 1625.20669,2221.26952 C1649.60993,2333.28546 1636.44158,2388.07668 1625.20669,2434.32062 C1617.71676,2465.14992 1598.56268,2497.03323 1567.74445,2529.97055 C1570.9346,2600.46683 1572.52968,2654.7298 1572.52968,2692.75943 C1572.52968,2749.80389 1543.38783,2855.51077 1495.81173,2871.41111 C1448.23562,2887.31146 1395.8133,2848.06006 1380.40299,2799.34507 C1364.99267,2750.63008 1368.70535,2714.18021 1380.40299,2661.02634 C1392.10062,2607.87247 1428.02931,2586.07616 1454.7068,2607.87247 C1481.38429,2629.66879 1492.13193,2676.80977 1481.38429,2728.14277 C1474.2192,2762.36477 1457.35371,2782.09812 1430.78782,2787.34283 C1440.53226,2803.85655 1451.53638,2812.11342 1463.80018,2812.11342 C1482.19588,2812.11342 1519.77768,2787.08033 1528.83485,2728.14277 C1534.87296,2688.85107 1532.70274,2628.57697 1522.32421,2547.32048 C1461.29995,2555.37705 1415.65969,2539.41912 1385.40345,2499.44669 C1340.01907,2439.48805 1312,2372.30402 1312,2221.26952 C1312,2120.57986 1334.801,2032.16533 1380.40299,1956.02594 L1454.7068,1846.95423 Z M1503.47384,1791.42695 C1510.21112,1783.33762 1520.26063,1762.04954 1533.62236,1727.56269 C1546.9841,1693.07585 1556.23574,1661.93361 1561.37729,1634.13596 C1565.91382,1588.11985 1560.71248,1560.2423 1545.77328,1550.5033 C1530.83407,1540.76431 1516.73426,1557.36566 1503.47384,1600.30736 C1498.33946,1630.27041 1495.77227,1658.15547 1495.77227,1683.96255 C1495.77227,1709.76963 1498.33946,1745.5911 1503.47384,1791.42695 Z M1476.50938,2005.37183 C1428.25052,2031.43929 1397.88188,2072.5108 1385.40345,2128.58636 C1366.6858,2212.69971 1370.8397,2245.85234 1370.8397,2290.5791 C1370.8397,2335.30587 1389.65061,2406.1852 1431.86037,2439.90114 C1460.00021,2462.37844 1488.12809,2470.07199 1516.24402,2462.9818 L1495.1768,2208.83916 C1482.73185,2208.83916 1473.07171,2217.7101 1466.19638,2235.45197 C1455.88338,2262.06478 1448.61944,2286.63594 1456.35329,2335.30587 C1461.5092,2367.75248 1471.33195,2392.9612 1485.82157,2410.93202 C1453.86741,2398.40402 1433.3287,2382.13314 1424.20543,2362.11939 C1410.52053,2332.09876 1406.1263,2290.5791 1424.20543,2209.9057 C1436.25819,2156.12343 1456.7969,2125.04127 1485.82157,2116.65923 L1476.50938,2005.37183 Z M1541.71623,2209.9057 L1558.55063,2435.92042 C1578.82457,2409.02685 1590.19577,2379.98513 1592.66424,2348.79525 C1596.36695,2302.01043 1592.02235,2259.93144 1576.73738,2230.33505 C1566.54741,2210.60412 1554.87369,2203.79433 1541.71623,2209.9057 Z" id="gray" stroke="#E39AC6" transform="translate(1475.500000, 2142.000000) rotate(267.000000) translate(-1475.500000, -2142.000000) "></path>
        </g>
    </g>
</svg>