<?xml version="1.0" encoding="UTF-8"?>
<svg width="2212px" height="4628px" viewBox="0 0 2212 4628" version="1.1" xmlns="http://www.w3.org/2000/svg" xmlns:xlink="http://www.w3.org/1999/xlink">
    <!-- Generator: Sketch 50.2 (55047) - http://www.bohemiancoding.com/sketch -->
    <title>Combined Shape</title>
    <desc>Created with Sketch.</desc>
    <defs></defs>
    <g id="Page-1" stroke="none" stroke-width="1" fill="none" fill-rule="evenodd">
        <g id="individual-notes" transform="translate(-1298.000000, 0.000000)" fill="#ECD1D1">
            <path d="M1632.60935,4158.3654 L1632.60935,3059.49828 C1643.42132,3028.88578 1652.00502,3009.66668 1658.36044,3001.84099 C1717.23776,2929.34292 1776.48334,2897.63815 1829.97712,2864.97646 C1892.13236,2827.02635 1968.55268,2796.05508 2059.23808,2772.06266 C2125.85451,2752.71951 2180.83467,2745.34024 2224.17855,2749.92486 C2267.52244,2754.50948 2338.66538,2775.22918 2437.60737,2812.08397 C2480.61302,2833.0618 2509.72764,2850.69263 2524.95123,2864.97646 C2566.76949,2904.21324 2588.46095,2954.21898 2605.82872,2981.77619 C2632.68038,3024.38135 2641.06697,3070.09568 2630.98848,3118.91917 C2628.38718,3197.508 2620.0006,3254.80432 2605.82872,3290.80815 C2591.65684,3326.81197 2554.60707,3384.94727 2494.6794,3465.21403 C2276.53909,3679.38611 2092.9116,3840.5971 1943.79692,3948.84698 C1794.68224,4057.09686 1690.95305,4126.93634 1632.60935,4158.3654 Z M1298,0 L1298,4628 L2321.37555,4053.58139 C2641.4997,3882.36062 2855.2188,3762.45384 2962.53285,3693.86104 C3038.76032,3645.1381 3137.42937,3587.52841 3232.32879,3490.86458 C3271.03003,3451.44379 3448.10332,3277.6885 3463.56371,3206.84684 C3470.71759,3174.06677 3564.37216,3051.82778 3463.56371,2865.3873 C3435.84121,2814.11584 3373.60721,2752.5835 3306.55567,2696.54733 C3212.8848,2618.26491 3109.81199,2550.70882 3078.29438,2536.83884 C3001.12003,2502.87668 2905.88552,2477.21168 2792.59085,2459.84385 C2665.37844,2444.95002 2576.32168,2437.89797 2525.42059,2438.68769 C2366.16725,2441.15849 2090.3179,2507.4563 1970.10118,2559.6728 C1792.24834,2636.92374 1688.79429,2675.02823 1659.73903,2673.98629 L1659.73903,0 L1298,0 Z" id="Combined-Shape"></path>
        </g>
    </g>
</svg>