<?xml version="1.0" encoding="UTF-8"?>
<svg width="1710px" height="1809px" viewBox="0 0 1710 1809" version="1.1" xmlns="http://www.w3.org/2000/svg" xmlns:xlink="http://www.w3.org/1999/xlink">
    <!-- Generator: Sketch 50.2 (55047) - http://www.bohemiancoding.com/sketch -->
    <title>Combined Shape</title>
    <desc>Created with Sketch.</desc>
    <defs></defs>
    <g id="Page-1" stroke="none" stroke-width="1" fill="none" fill-rule="evenodd">
        <g id="individual-notes" transform="translate(-184.000000, -3049.000000)" fill="#F8E71C">
            <path d="M925,3259 L925,3506.74467 L1558,3542 L1558,3290.15539 L925,3259 Z M644.779408,3049 L678.510894,4304.6889 C528.892149,4298.33308 423.904775,4307.32338 363.548771,4331.65979 C342.749249,4340.04646 280.957746,4347.01565 242.250349,4399.67396 C201.812583,4454.68629 184.852076,4556.06559 184.029805,4593.69848 C182.757569,4651.92496 222.532959,4680.31131 242.250349,4698.12211 C267.483346,4720.91518 344.607988,4756.79399 454.286466,4780.30621 C467.442328,4783.12649 485.320016,4783.12649 507.919528,4780.30621 C629.63205,4768.44775 708.039014,4753.82983 743.14042,4736.45246 C765.690272,4725.28888 816.533889,4703.89238 849.102259,4667.79548 C861.187592,4654.4008 873.10605,4606.31591 884.857634,4523.54081 L884.857634,3735.59056 L1612.64816,3763.79119 L1658.25313,4365.86322 C1545.19097,4358.28891 1466.21432,4358.28891 1421.32318,4365.86322 C1376.43204,4373.43753 1326.0297,4395.26713 1270.11617,4431.35205 C1209.68769,4487.15988 1175.63388,4532.10442 1167.95475,4566.18567 C1160.27561,4600.26692 1171.4145,4657.02251 1201.37141,4736.45246 C1272.70152,4799.61895 1328.18607,4837.15726 1367.82504,4849.0674 C1407.46402,4860.97753 1489.07172,4860.97753 1612.64816,4849.0674 C1695.20607,4826.04188 1750.37579,4803.12149 1778.15732,4780.30621 C1797.07398,4764.7711 1860.66655,4716.17801 1887.67221,4593.69848 C1896.10926,4555.43366 1896.10926,4479.48857 1887.67221,4365.86322 L1826.97802,3092.22846 L644.779408,3049 Z" id="Combined-Shape"></path>
        </g>
    </g>
</svg>