<?xml version="1.0" encoding="UTF-8"?>
<svg width="1016px" height="2191px" viewBox="0 0 1016 2191" version="1.1" xmlns="http://www.w3.org/2000/svg" xmlns:xlink="http://www.w3.org/1999/xlink">
    <!-- Generator: Sketch 50.2 (55047) - http://www.bohemiancoding.com/sketch -->
    <title>black </title>
    <desc>Created with Sketch.</desc>
    <defs></defs>
    <g id="Page-1" stroke="none" stroke-width="1" fill="none" fill-rule="evenodd">
        <path d="M440.088178,657.443764 C406.182359,534.893984 394.481267,419.348648 404.984901,310.807755 C420.740352,147.996417 538.080209,4.65347677 714.871669,4.65347677 C832.732642,4.65347677 905.230631,64.0998226 932.365634,182.992514 C956.396116,277.315542 942.828614,379.971508 891.663129,490.96041 C840.497644,601.949313 759.63962,702.922271 649.089058,793.879285 L686.226906,1031.17208 C823.184388,1042.66579 916.806064,1104.06756 967.091934,1215.37739 C1042.52074,1382.34213 1001.81823,1464.01089 967.091934,1532.93954 C943.941068,1578.89198 884.737087,1626.41547 789.479993,1675.51002 C799.340548,1780.58787 804.270825,1861.46923 804.270825,1918.1541 C804.270825,2003.18141 714.195326,2160.74221 567.140756,2184.44239 C420.086185,2208.14256 258.052293,2149.63661 210.42005,2077.02474 C162.787807,2004.41288 174.263453,1950.08272 210.42005,1870.85451 C246.576648,1791.62631 357.629847,1759.13793 440.088178,1791.62631 C522.54651,1824.11469 555.766739,1894.38042 522.54651,1970.89454 C500.39969,2021.90396 448.269585,2051.3174 366.156196,2059.13486 C396.275607,2083.74931 430.288606,2096.05653 468.195193,2096.05653 C525.055074,2096.05653 641.217927,2058.7436 669.213015,1970.89454 C687.876407,1912.32851 681.168422,1822.48728 649.089058,1701.37086 C460.46715,1713.37954 319.396176,1689.59354 225.876137,1630.01285 C85.5960769,1540.64182 -1.009009,1440.50103 -1.009009,1215.37739 C-1.009009,1065.29496 69.4673441,933.509161 210.42005,820.020004 L440.088178,657.443764 Z M590.823826,574.677882 C611.648327,562.620379 642.710688,530.889539 684.01091,479.485362 C725.311132,428.081186 753.907342,381.662285 769.799539,340.228659 C783.821632,271.639592 767.744641,230.086857 721.568567,215.570455 C675.392493,201.054053 631.810913,225.799108 590.823826,289.805619 C574.953803,334.466879 567.018792,376.030808 567.018792,414.497408 C567.018792,452.964008 574.953803,506.357499 590.823826,574.677882 Z M507.478489,893.572263 C358.313582,932.426961 264.446131,993.645876 225.876137,1077.22901 C168.021145,1202.6037 180.860563,1252.01917 180.860563,1318.6864 C180.860563,1385.35363 239.003831,1491.00244 369.471383,1541.25755 C456.44975,1574.76096 543.39116,1586.22855 630.29561,1575.66031 L565.178254,1196.84938 C526.711744,1196.84938 496.852891,1210.07191 475.601697,1236.51696 C443.724905,1276.18453 421.272556,1312.80894 445.177378,1385.35363 C461.113926,1433.71676 491.475415,1471.29148 536.261846,1498.07779 C437.493685,1479.40425 374.009899,1455.15178 345.810487,1425.32039 C303.51137,1380.5733 289.929085,1318.6864 345.810487,1198.4391 C383.064756,1118.27423 446.548542,1071.94489 536.261846,1059.45108 L507.478489,893.572263 Z M709.028514,1198.4391 L761.062526,1535.32411 C823.727898,1495.23805 858.875526,1451.95006 866.50541,1405.46016 C877.950236,1335.7253 864.521353,1273.0047 817.276556,1228.88996 C785.780024,1199.48012 749.697344,1189.32984 709.028514,1198.4391 Z" id="black-" stroke="#000000" fill="#000000" transform="translate(504.358568, 1097.222630) rotate(359.000000) translate(-504.358568, -1097.222630) "></path>
    </g>
</svg>