<?xml version="1.0" encoding="UTF-8"?>
<svg width="1626px" height="1468px" viewBox="0 0 1626 1468" version="1.1" xmlns="http://www.w3.org/2000/svg" xmlns:xlink="http://www.w3.org/1999/xlink">
    <!-- Generator: Sketch 50.2 (55047) - http://www.bohemiancoding.com/sketch -->
    <title>blue</title>
    <desc>Created with Sketch.</desc>
    <defs></defs>
    <g id="Page-1" stroke="none" stroke-width="1" fill="none" fill-rule="evenodd">
        <g id="blue" transform="translate(1.000000, 1.000000)" fill="#4A90E2" stroke="#4A90E2">
            <path d="M793.923871,2.21300469 C1276.17266,-45.4293812 1502.66295,690.155543 1550.71878,860.819822 C1582.75601,974.596008 1606.74361,1123.68173 1622.68159,1308.07699 C1628.32958,1406.69233 1615.83085,1456 1585.18538,1456 C1554.53991,1456 1536.95447,1406.69233 1532.42905,1308.07699 C1517.8561,1209.65539 1495.1741,1117.03527 1464.38307,1030.21662 C1418.19652,899.988639 1298.85497,514.924312 825.739148,487.883342 C352.623328,460.842371 158.690835,1010.77322 130.240838,1096.10414 C111.274173,1152.99141 91.6819725,1249.43657 71.4642364,1385.43961 C71.4642364,1432.47987 59.0415592,1456 34.1962046,1456 C9.35085011,1456 -1.95590456,1432.47987 0.275940624,1385.43961 C-0.729484441,1207.81608 22.9999475,1032.94282 71.4642364,860.819822 C144.16067,602.635326 311.675086,49.8553906 793.923871,2.21300469 Z" id="Path-8"></path>
            <ellipse id="Oval" cx="814" cy="1210.5" rx="164" ry="255.5"></ellipse>
        </g>
    </g>
</svg>