<?xml version="1.0" encoding="UTF-8"?>
<svg width="2924px" height="2450px" viewBox="0 0 2924 2450" version="1.1" xmlns="http://www.w3.org/2000/svg" xmlns:xlink="http://www.w3.org/1999/xlink">
    <!-- Generator: Sketch 50.2 (55047) - http://www.bohemiancoding.com/sketch -->
    <title>butterfly</title>
    <desc>Created with Sketch.</desc>
    <defs>
        <linearGradient x1="100%" y1="53.1011931%" x2="25.3762244%" y2="67.0641928%" id="linearGradient-1">
            <stop stop-color="#ECE151" offset="0%"></stop>
            <stop stop-color="#429321" offset="77.0434429%"></stop>
            <stop stop-color="#215F93" offset="100%"></stop>
        </linearGradient>
    </defs>
    <g id="Page-1" stroke="none" stroke-width="1" fill="none" fill-rule="evenodd">
        <g id="butterfly" transform="translate(-122.000000, -128.000000)">
            <path d="M1769.15582,621.886551 L1769.15582,111.738295 L1795.64611,111.738295 L1795.64611,652.451988 C1795.65112,652.481344 1795.6561,652.510663 1795.66105,652.540002 C1803.45601,698.700447 1775.51682,738.523994 1722.869,763.074075 C1670.22118,787.624157 1614.17847,778.868423 1597.69411,743.517597 C1581.20975,708.166771 1610.52603,659.607491 1663.17384,635.05741 C1698.10651,618.768042 1741.57859,611.469663 1769.15582,621.886551 Z" id="mustard" stroke="#F8E71C" fill="#F8E71C" transform="translate(1695.027458, 444.370329) rotate(197.000000) translate(-1695.027458, -444.370329) "></path>
            <path d="M1424.1009,620.886551 L1424.1009,110.738295 L1450.5912,110.738295 L1450.5912,651.451988 C1450.5962,651.481344 1450.60118,651.510663 1450.60614,651.540002 C1458.40109,697.700447 1430.4619,737.523994 1377.81408,762.074075 C1325.16626,786.624157 1269.12356,777.868423 1252.63919,742.517597 C1236.15483,707.166771 1265.47111,658.607491 1318.11893,634.05741 C1353.05159,617.768042 1396.52367,610.469663 1424.1009,620.886551 Z" id="mustard" stroke="#F8E71C" fill="#F8E71C" transform="translate(1349.972542, 443.370329) scale(-1, 1) rotate(197.000000) translate(-1349.972542, -443.370329) "></path>
            <path d="M2224.85536,814.440312 C2199.1929,669.240633 2190.33664,532.339973 2198.28657,403.738333 C2210.21148,210.835873 2299.02306,41 2432.83207,41 C2522.03807,41 2576.90998,111.43334 2597.44778,252.30002 C2615.63584,364.056021 2605.36694,485.68507 2566.64108,617.187167 C2527.91521,748.689264 2466.7158,868.324249 2383.04287,976.092123 L2411.15157,1257.24185 C2514.81124,1270.85985 2585.67113,1343.61002 2623.73124,1475.49236 C2680.8214,1673.31587 2650.0147,1770.07881 2623.73124,1851.747 C2606.20893,1906.19245 2561.39893,1962.49933 2489.30123,2020.66763 C2496.76444,2145.16619 2500.49604,2240.99621 2500.49604,2308.15769 C2500.49604,2408.89992 2432.32016,2595.58143 2321.01826,2623.66191 C2209.71635,2651.7424 2087.07698,2582.42326 2051.02533,2496.39112 C2014.97369,2410.35899 2023.65932,2345.98743 2051.02533,2252.1161 C2078.39135,2158.24477 2162.44472,2119.75182 2224.85536,2158.24477 C2287.266,2196.73772 2312.40955,2279.99011 2287.266,2370.64573 C2270.50362,2431.0828 2231.04766,2465.9325 2168.8981,2475.1948 C2191.69473,2504.35854 2217.43831,2518.9404 2246.12885,2518.9404 C2289.16467,2518.9404 2377.0854,2474.73122 2398.27418,2370.64573 C2412.40003,2301.2554 2407.32293,2194.80953 2383.04287,2051.30813 C2240.27969,2065.53628 2133.50662,2037.3541 2062.72366,1966.76159 C1956.54921,1860.87282 1891,1742.22381 1891,1475.49236 C1891,1297.67139 1944.34178,1141.52868 2051.02533,1007.06422 L2224.85536,814.440312 Z M2338.94338,716.377472 C2354.70492,702.091476 2378.21524,664.496078 2409.47434,603.591278 C2440.73344,542.686477 2462.37719,487.68834 2474.40559,438.596868 C2485.01856,357.33103 2472.85029,308.098435 2437.90078,290.899082 C2402.95127,273.699729 2369.96547,303.018215 2338.94338,378.854539 C2326.93176,431.770184 2320.92595,481.016043 2320.92595,526.592118 C2320.92595,572.168192 2326.93176,635.429977 2338.94338,716.377472 Z M2275.86139,1094.21056 C2162.96223,1140.24646 2091.91631,1212.77998 2062.72366,1311.81111 C2018.93467,1460.35781 2028.6525,1518.90635 2028.6525,1597.89516 C2028.6525,1676.88396 2072.65968,1802.05899 2171.40728,1861.60236 C2237.23902,1901.29793 2303.04279,1914.88498 2368.81858,1902.3635 L2319.53289,1453.53997 C2290.41856,1453.53997 2267.81914,1469.20631 2251.73465,1500.53899 C2227.60791,1547.538 2210.61429,1590.93141 2228.70725,1676.88396 C2240.76922,1734.18566 2263.74907,1778.70501 2297.64679,1810.44202 C2222.89165,1788.3172 2174.84237,1759.58234 2153.49895,1724.23745 C2121.48381,1671.22011 2111.20372,1597.89516 2153.49895,1455.4235 C2181.69577,1360.44239 2229.74505,1305.55037 2297.64679,1290.74743 L2275.86139,1094.21056 Z M2428.40953,1455.4235 L2467.79277,1854.57229 C2515.22261,1807.07743 2541.82496,1755.78887 2547.59983,1700.70661 C2556.26213,1618.08321 2546.09815,1543.77047 2510.33975,1491.50235 C2486.50082,1456.65693 2459.19075,1444.63065 2428.40953,1455.4235 Z" id="purple" stroke="#F8E71C" fill="url(#linearGradient-1)" transform="translate(2273.500000, 1335.500000) rotate(25.000000) translate(-2273.500000, -1335.500000) "></path>
            <path d="M845.85536,866.440312 C820.192899,721.240633 811.336636,584.339973 819.286573,455.738333 C831.211477,262.835873 920.023062,93 1053.83207,93 C1143.03807,93 1197.90998,163.43334 1218.44778,304.30002 C1236.63584,416.056021 1226.36694,537.68507 1187.64108,669.187167 C1148.91521,800.689264 1087.7158,920.324249 1004.04287,1028.09212 L1032.15157,1309.24185 C1135.81124,1322.85985 1206.67113,1395.61002 1244.73124,1527.49236 C1301.8214,1725.31587 1271.0147,1822.07881 1244.73124,1903.747 C1227.20893,1958.19245 1182.39893,2014.49933 1110.30123,2072.66763 C1117.76444,2197.16619 1121.49604,2292.99621 1121.49604,2360.15769 C1121.49604,2460.89992 1053.32016,2647.58143 942.018258,2675.66191 C830.716354,2703.7424 708.07698,2634.42326 672.025334,2548.39112 C635.973688,2462.35899 644.659315,2397.98743 672.025334,2304.1161 C699.391353,2210.24477 783.444725,2171.75182 845.85536,2210.24477 C908.265996,2248.73772 933.409551,2331.99011 908.265996,2422.64573 C891.503625,2483.0828 852.047661,2517.9325 789.898103,2527.1948 C812.694727,2556.35854 838.43831,2570.9404 867.128852,2570.9404 C910.164665,2570.9404 998.085405,2526.73122 1019.27418,2422.64573 C1033.40003,2353.2554 1028.32293,2246.80953 1004.04287,2103.30813 C861.279691,2117.53628 754.506621,2089.3541 683.723657,2018.76159 C577.54921,1912.87282 512,1794.22381 512,1527.49236 C512,1349.67139 565.341778,1193.52868 672.025334,1059.06422 L845.85536,866.440312 Z M959.943378,768.377472 C975.704919,754.091476 999.215238,716.496078 1030.47434,655.591278 C1061.73344,594.686477 1083.37719,539.68834 1095.40559,490.596868 C1106.01856,409.33103 1093.85029,360.098435 1058.90078,342.899082 C1023.95127,325.699729 990.965472,355.018215 959.943378,430.854539 C947.931757,483.770184 941.925947,533.016043 941.925947,578.592118 C941.925947,624.168192 947.931757,687.429977 959.943378,768.377472 Z M896.86139,1146.21056 C783.962226,1192.24646 712.916315,1264.77998 683.723657,1363.81111 C639.93467,1512.35781 649.652502,1570.90635 649.652502,1649.89516 C649.652502,1728.88396 693.659678,1854.05899 792.407285,1913.60236 C858.239022,1953.29793 924.042787,1966.88498 989.818578,1954.3635 L940.53289,1505.53997 C911.418556,1505.53997 888.819142,1521.20631 872.734648,1552.53899 C848.607907,1599.538 831.614289,1642.93141 849.707247,1728.88396 C861.769219,1786.18566 884.749066,1830.70501 918.646788,1862.44202 C843.891653,1840.3172 795.842373,1811.58234 774.498948,1776.23745 C742.483811,1723.22011 732.203721,1649.89516 774.498948,1507.4235 C802.695766,1412.44239 850.745046,1357.55037 918.646788,1342.74743 L896.86139,1146.21056 Z M1049.40953,1507.4235 L1088.79277,1906.57229 C1136.22261,1859.07743 1162.82496,1807.78887 1168.59983,1752.70661 C1177.26213,1670.08321 1167.09815,1595.77047 1131.33975,1543.50235 C1107.50082,1508.65693 1080.19075,1496.63065 1049.40953,1507.4235 Z" id="purple" stroke="#F8E71C" fill="url(#linearGradient-1)" transform="translate(894.500000, 1387.500000) scale(-1, 1) rotate(25.000000) translate(-894.500000, -1387.500000) "></path>
            <g id="pink" transform="translate(2545.000000, 1066.000000)" fill="#F8E71C">
                <path d="M202.160674,7.91740726 C281.855004,26.7031754 324.804781,95.7185732 298.911111,201.061476 C273.01744,306.404379 166.894559,363.012279 133.605702,383.904249 C100.316845,404.796219 50.1912423,427.836156 22.4795759,442.084343 C-5.23209042,456.332529 -5.23209042,427.728758 11.1298726,419.485932 C27.4918357,411.243105 128.722655,341.341671 176.792871,271.201573 C224.863086,201.061476 223.066125,138.308001 216.644543,109.480483 C210.22296,80.6529659 187.511534,33.2037612 115.849441,42.1804765 C68.0747127,48.1649534 46.1575952,68.4204883 50.0980888,102.947081 C112.72329,80.5346288 144.03589,89.9329822 144.03589,131.142142 C144.03589,172.351301 117.347911,187.160346 63.9719517,175.569275 C22.8461801,162.681468 2.28329426,136.064568 2.28329426,95.7185732 C2.28329426,55.3725785 20.3360436,28.4394493 56.4415422,14.9191855 C100.458078,-2.27251206 149.031122,-4.60643816 202.160674,7.91740726 Z" id="Path-10" stroke="#E39AC6"></path>
                <ellipse id="Oval-3" stroke="#F095C8" cx="381.111111" cy="211.769784" rx="38.8888889" ry="36.8992806"></ellipse>
                <ellipse id="Oval-3" stroke="#F095C8" cx="381.111111" cy="86.6330935" rx="38.8888889" ry="36.8992806"></ellipse>
            </g>
            <g id="pink" transform="translate(2174.000000, 678.000000) scale(-1, 1) rotate(-51.000000) translate(-2174.000000, -678.000000) translate(1964.000000, 455.000000)" fill="#F8E71C" stroke="#F8E71C">
                <path d="M202.160674,7.91740726 C281.855004,26.7031754 324.804781,95.7185732 298.911111,201.061476 C273.01744,306.404379 166.894559,363.012279 133.605702,383.904249 C100.316845,404.796219 50.1912423,427.836156 22.4795759,442.084343 C-5.23209042,456.332529 -5.23209042,427.728758 11.1298726,419.485932 C27.4918357,411.243105 128.722655,341.341671 176.792871,271.201573 C224.863086,201.061476 223.066125,138.308001 216.644543,109.480483 C210.22296,80.6529659 187.511534,33.2037612 115.849441,42.1804765 C68.0747127,48.1649534 46.1575952,68.4204883 50.0980888,102.947081 C112.72329,80.5346288 144.03589,89.9329822 144.03589,131.142142 C144.03589,172.351301 117.347911,187.160346 63.9719517,175.569275 C22.8461801,162.681468 2.28329426,136.064568 2.28329426,95.7185732 C2.28329426,55.3725785 20.3360436,28.4394493 56.4415422,14.9191855 C100.458078,-2.27251206 149.031122,-4.60643816 202.160674,7.91740726 Z" id="Path-10"></path>
                <ellipse id="Oval-3" cx="381.111111" cy="211.769784" rx="38.8888889" ry="36.8992806"></ellipse>
                <ellipse id="Oval-3" cx="381.111111" cy="86.6330935" rx="38.8888889" ry="36.8992806"></ellipse>
            </g>
            <g id="pink" transform="translate(957.000000, 679.000000) rotate(-51.000000) translate(-957.000000, -679.000000) translate(747.000000, 456.000000)" fill="#F8E71C" stroke="#F8E71C">
                <path d="M202.160674,7.91740726 C281.855004,26.7031754 324.804781,95.7185732 298.911111,201.061476 C273.01744,306.404379 166.894559,363.012279 133.605702,383.904249 C100.316845,404.796219 50.1912423,427.836156 22.4795759,442.084343 C-5.23209042,456.332529 -5.23209042,427.728758 11.1298726,419.485932 C27.4918357,411.243105 128.722655,341.341671 176.792871,271.201573 C224.863086,201.061476 223.066125,138.308001 216.644543,109.480483 C210.22296,80.6529659 187.511534,33.2037612 115.849441,42.1804765 C68.0747127,48.1649534 46.1575952,68.4204883 50.0980888,102.947081 C112.72329,80.5346288 144.03589,89.9329822 144.03589,131.142142 C144.03589,172.351301 117.347911,187.160346 63.9719517,175.569275 C22.8461801,162.681468 2.28329426,136.064568 2.28329426,95.7185732 C2.28329426,55.3725785 20.3360436,28.4394493 56.4415422,14.9191855 C100.458078,-2.27251206 149.031122,-4.60643816 202.160674,7.91740726 Z" id="Path-10"></path>
                <ellipse id="Oval-3" cx="381.111111" cy="211.769784" rx="38.8888889" ry="36.8992806"></ellipse>
                <ellipse id="Oval-3" cx="381.111111" cy="86.6330935" rx="38.8888889" ry="36.8992806"></ellipse>
            </g>
            <g id="pink" transform="translate(394.000000, 1289.000000) scale(-1, 1) translate(-394.000000, -1289.000000) translate(184.000000, 1066.000000)" fill="#F8E71C" stroke="#F8E71C">
                <path d="M202.160674,7.91740726 C281.855004,26.7031754 324.804781,95.7185732 298.911111,201.061476 C273.01744,306.404379 166.894559,363.012279 133.605702,383.904249 C100.316845,404.796219 50.1912423,427.836156 22.4795759,442.084343 C-5.23209042,456.332529 -5.23209042,427.728758 11.1298726,419.485932 C27.4918357,411.243105 128.722655,341.341671 176.792871,271.201573 C224.863086,201.061476 223.066125,138.308001 216.644543,109.480483 C210.22296,80.6529659 187.511534,33.2037612 115.849441,42.1804765 C68.0747127,48.1649534 46.1575952,68.4204883 50.0980888,102.947081 C112.72329,80.5346288 144.03589,89.9329822 144.03589,131.142142 C144.03589,172.351301 117.347911,187.160346 63.9719517,175.569275 C22.8461801,162.681468 2.28329426,136.064568 2.28329426,95.7185732 C2.28329426,55.3725785 20.3360436,28.4394493 56.4415422,14.9191855 C100.458078,-2.27251206 149.031122,-4.60643816 202.160674,7.91740726 Z" id="Path-10"></path>
                <ellipse id="Oval-3" cx="381.111111" cy="211.769784" rx="38.8888889" ry="36.8992806"></ellipse>
                <ellipse id="Oval-3" cx="381.111111" cy="86.6330935" rx="38.8888889" ry="36.8992806"></ellipse>
            </g>
            <path d="M1536.3258,1057.60997 L1604.26125,854.591805 C1658.38084,740.207905 1712.50837,671.693954 1766.64385,649.049952 C1847.84706,615.083949 1880.78113,634.097996 1907.66815,664.580971 C1934.55517,695.063946 1949.90309,749.728334 1957.67693,794.662984 C1965.45077,839.597634 1974.04269,878.808787 1957.67693,933.96681 C1946.76643,970.738825 1924.161,993.621943 1889.86063,1002.61616 C1847.04873,995.206447 1825.64277,961.989483 1825.64277,902.96527 C1825.64277,843.941057 1842.48911,807.840295 1876.18179,794.662984 C1873.09969,768.682881 1859.27588,755.69283 1834.71037,755.69283 C1797.8621,755.69283 1771.32276,798.55051 1744.60042,878.808787 C1726.78553,932.314305 1714.85428,991.914701 1708.80666,1057.60997 L1779.00604,1057.60997 C1803.69467,1073.76615 1816.03899,1099.61085 1816.03899,1135.14407 C1816.03899,1170.6773 1803.69467,1197.21053 1779.00604,1214.74379 L1693.51329,1214.74379 C1647.8139,1424.95849 1604.74184,1586.52316 1564.29712,1699.43779 C1503.63004,1868.80974 1423.33835,1939.04936 1374.31854,1949.0663 C1325.29873,1959.08325 1260.71149,1959.08325 1234.18193,1897.64195 C1207.65237,1836.20065 1193.34798,1739.93771 1207.65237,1663.12096 C1217.18864,1611.90979 1244.03594,1586.30421 1288.19428,1586.30421 C1323.853,1586.30421 1344.27395,1616.49909 1349.45713,1676.88886 C1354.64032,1737.27862 1334.21937,1776.02407 1288.19428,1793.12519 C1286.58968,1821.84216 1298.95783,1836.20065 1325.29873,1836.20065 C1364.81008,1836.20065 1412.13791,1762.68543 1430.17181,1663.12096 C1442.19442,1596.74465 1454.26667,1522.25568 1466.38857,1439.65404 L1506.78761,1214.74379 L1430.17181,1214.74379 C1393.66711,1189.50696 1378.4909,1158.33545 1384.6432,1121.22925 C1390.7955,1084.12305 1409.04786,1062.91662 1439.40026,1057.60997 L1536.3258,1057.60997 Z" id="yellow" stroke="#F8E71C" fill="#F8E71C" transform="translate(1584.500000, 1292.500000) rotate(-25.000000) translate(-1584.500000, -1292.500000) "></path>
        </g>
    </g>
</svg>