<?xml version="1.0" encoding="UTF-8"?>
<svg width="1191px" height="1604px" viewBox="0 0 1191 1604" version="1.1" xmlns="http://www.w3.org/2000/svg" xmlns:xlink="http://www.w3.org/1999/xlink">
    <!-- Generator: Sketch 50.2 (55047) - http://www.bohemiancoding.com/sketch -->
    <title>green</title>
    <desc>Created with Sketch.</desc>
    <defs></defs>
    <g id="Page-1" stroke="none" stroke-width="1" fill="none" fill-rule="evenodd">
        <g id="green" transform="translate(1.000000, 1.000000)" fill="#B8E986" stroke="#B8E986">
            <path d="M341.411321,1557.98505 C341.411321,1612.48859 288.927048,1600.98687 288.927048,1600.98687 C288.927048,1600.98687 216.707836,1600.98687 72.2694122,1600.98687 C24.0898041,1600.98687 3.0375702e-13,1583.46828 9.11271059e-13,1548.43111 C1.82376984e-12,1495.87535 2.37310172e-15,180.768744 0,44.6403067 C0,24.1806 31.9614886,1.64863421 54.6949925,1.64863421 C124.246962,1.64863421 265.390132,-2.06079276 294.519854,1.64863421 C315.061644,4.26445976 341.187735,21.6322735 341.411321,44.6403067 C342.735849,180.940582 341.411321,1503.48151 341.411321,1557.98505 Z" id="Path-9"></path>
            <ellipse id="Oval-2" cx="1017.5" cy="579" rx="171.5" ry="130"></ellipse>
            <ellipse id="Oval-2" cx="1017.5" cy="1029" rx="171.5" ry="130"></ellipse>
            <path d="M671,1548.45536 C671,1601 645.173798,1601 645.173798,1601 C645.173798,1601 609.636524,1601 538.561976,1601 C514.853992,1601 503,1583.48512 503,1548.45536 C503,1495.91072 503,181.082229 503,44.9825805 C503,14.4422729 518.727452,2 529.914042,2 C564.138833,2 618.202524,2 647.925878,2 C658.037704,2 671,14.7816695 671,44.9825805 C671,181.395026 671,1495.91072 671,1548.45536 Z" id="Path-9-Copy"></path>
        </g>
    </g>
</svg>