<?xml version="1.0" encoding="UTF-8"?>
<svg width="1198px" height="1687px" viewBox="0 0 1198 1687" version="1.1" xmlns="http://www.w3.org/2000/svg" xmlns:xlink="http://www.w3.org/1999/xlink">
    <!-- Generator: Sketch 50.2 (55047) - http://www.bohemiancoding.com/sketch -->
    <title>green </title>
    <desc>Created with Sketch.</desc>
    <defs></defs>
    <g id="Page-1" stroke="none" stroke-width="1" fill="none" fill-rule="evenodd">
        <path d="M486.29142,111.453452 C497.854974,37.8178174 536.022261,1 600.79328,1 C665.564299,1 697.949809,33.0902346 697.949809,97.2707037 L782.673628,191.795962 C1020.06107,324.271583 1153.52895,453.355646 1183.07726,579.048149 C1212.62558,704.740652 1195.14096,817.324302 1130.6234,916.7991 C1199.7963,1018.33766 1210.45257,1139.00878 1162.59219,1278.81244 C1114.7318,1418.6161 1005.79511,1491.88634 835.782109,1498.62315 C962.520481,1387.13382 1025.88967,1280.17294 1025.88967,1177.74052 C1025.88967,1075.3081 967.581819,983.017044 850.966123,900.867358 L697.949809,816.752494 L697.949809,1485.62672 C636.590446,1619.16195 522.679017,1685.92956 356.215524,1685.92956 C106.520283,1685.92956 -15.6826041,1545.96487 2.83052437,1439.17488 C21.3436528,1332.38489 75.0618847,1258.48369 217.212048,1219.11377 C311.978823,1192.86716 401.671947,1201.38371 486.29142,1244.66343 L486.29142,111.453452 Z M702.295589,400.015226 L702.295589,517.469776 C734.178626,569.601704 769.146909,606.430916 807.200437,627.957412 C862.005175,658.959898 930.957973,708.329329 1014.05883,776.065704 C1014.05833,763.334587 1014.05808,739.860809 1014.05808,705.64437 C1014.05808,654.319713 995.602839,608.17953 901.401638,517.469776 C838.600838,456.996606 772.232155,417.84509 702.295589,400.015226 Z" id="green-" stroke="#50E3C2" fill="#50E3C2"></path>
    </g>
</svg>