<?xml version="1.0" encoding="UTF-8"?>
<svg width="11197px" height="5596px" viewBox="0 0 11197 5596" version="1.1" xmlns="http://www.w3.org/2000/svg" xmlns:xlink="http://www.w3.org/1999/xlink">
    <!-- Generator: Sketch 50.2 (55047) - http://www.bohemiancoding.com/sketch -->
    <title>logo</title>
    <desc>Created with Sketch.</desc>
    <defs></defs>
    <g id="Page-1" stroke="none" stroke-width="1" fill="none" fill-rule="evenodd">
        <g id="logo" transform="translate(-111.000000, -294.000000)">
            <path d="M4143.0246,1091.81513 C4097.82176,912.279739 4082.22201,743.005861 4096.22533,583.99349 C4117.2303,345.474934 4273.6664,135.477575 4509.36265,135.477575 C4666.49349,135.477575 4763.14694,222.566452 4799.323,396.744205 C4831.36015,534.927409 4813.27212,685.318364 4745.05891,847.917068 C4676.8457,1010.51577 4569.04675,1158.44112 4421.66206,1291.69312 L4471.1738,1639.32698 C4653.76387,1656.16526 4778.57917,1746.11883 4845.61969,1909.18769 C4946.18047,2153.79099 4891.91638,2273.43569 4845.61969,2374.41615 C4814.75523,2441.73645 4735.8252,2511.35835 4608.82958,2583.28184 C4621.97555,2737.22086 4628.54854,2855.71203 4628.54854,2938.75535 C4628.54854,3063.32032 4508.46096,3294.14685 4312.40957,3328.86759 C4116.35818,3363.58833 3900.33653,3277.87714 3836.8338,3171.50078 C3773.33106,3065.12442 3788.63025,2985.53077 3836.8338,2869.46147 C3885.03734,2753.39217 4033.09214,2705.7967 4143.0246,2753.39217 C4252.95705,2800.98763 4297.24587,2903.92691 4252.95705,3016.02007 C4223.43118,3090.74885 4153.93195,3133.83953 4044.45936,3145.29211 C4084.6142,3181.35226 4129.95992,3199.38234 4180.49653,3199.38234 C4256.30144,3199.38234 4411.16837,3144.71891 4448.49108,3016.02007 C4473.37289,2930.22085 4464.42989,2798.60348 4421.66206,2621.16796 C4170.1936,2638.76068 3982.11946,2603.9142 3857.43967,2516.62851 C3670.41997,2385.69998 3554.95911,2238.99376 3554.95911,1909.18769 C3554.95911,1689.31698 3648.91734,1496.25084 3836.8338,1329.98926 L4143.0246,1091.81513 Z M4343.98356,970.563136 C4371.74653,952.898898 4413.1585,906.413229 4468.21946,831.106127 C4523.28042,755.799026 4561.40454,687.795351 4582.59183,627.095103 C4601.28592,526.612144 4579.85227,465.737401 4518.29088,444.470877 C4456.72949,423.204353 4398.62705,459.45585 4343.98356,553.225367 C4322.82583,618.654097 4312.24697,679.54524 4312.24697,735.898796 C4312.24697,792.252352 4322.82583,870.473798 4343.98356,970.563136 Z M4232.86855,1437.7433 C4034.00368,1494.66542 3908.86072,1584.35111 3857.43967,1706.80036 C3780.30809,1890.47425 3797.42544,1962.8679 3797.42544,2060.53537 C3797.42544,2158.20284 3874.94135,2312.97831 4048.87913,2386.60203 C4164.83765,2435.68451 4280.74689,2452.48452 4396.60687,2437.00205 L4309.79319,1882.04417 C4258.5101,1882.04417 4218.70263,1901.41517 4190.37079,1940.15716 C4147.87304,1998.27014 4117.93983,2051.92489 4149.80945,2158.20284 C4171.05587,2229.05481 4211.53344,2284.10176 4271.24218,2323.34369 C4139.56565,2295.98695 4054.92982,2260.4571 4017.33471,2216.75412 C3960.94203,2151.19965 3942.83429,2060.53537 4017.33471,1884.37311 C4067.00165,1766.9316 4151.63747,1699.05913 4271.24218,1680.7557 L4232.86855,1437.7433 Z M4501.57263,1884.37311 L4570.94375,2377.90954 C4654.48848,2319.18347 4701.34687,2255.76658 4711.51894,2187.65889 C4726.77705,2085.49734 4708.87382,1993.61169 4645.88762,1928.9836 C4603.89682,1885.89821 4555.79183,1871.02804 4501.57263,1884.37311 Z" id="black-" fill="#FE0000" transform="translate(4228.709108, 1736.091016) rotate(385.000000) translate(-4228.709108, -1736.091016) "></path>
            <path d="M2659.58093,1102.22733 C2619.20786,955.37957 2605.27489,816.925028 2617.782,686.863704 C2636.54267,491.771717 2776.26412,320.008134 2986.77707,320.008134 C3127.11903,320.008134 3213.44541,391.240923 3245.75618,533.706501 C3274.37028,646.730981 3258.21489,769.740572 3197.29002,902.735274 C3136.36514,1035.72998 3040.08413,1156.72287 2908.44698,1265.71396 L2952.66856,1550.05486 C3115.74953,1563.82743 3227.22876,1637.40334 3287.10623,1770.7826 C3376.92245,1970.85149 3328.45628,2068.71273 3287.10623,2151.30789 C3259.53953,2206.37133 3189.04289,2263.31731 3075.61631,2322.14585 C3087.35768,2448.05752 3093.22836,2544.97525 3093.22836,2612.89905 C3093.22836,2714.78474 2985.97172,2903.58517 2810.86772,2931.98438 C2635.76373,2960.38359 2442.82323,2890.27765 2386.10554,2803.26901 C2329.38784,2716.26037 2343.05237,2651.15816 2386.10554,2556.22136 C2429.1587,2461.28455 2561.39437,2422.35469 2659.58093,2461.28455 C2757.7675,2500.21441 2797.32421,2584.41175 2757.7675,2676.09635 C2731.39636,2737.21941 2669.32288,2772.46466 2571.54705,2781.8321 C2607.41148,2811.32685 2647.91218,2826.07423 2693.04913,2826.07423 C2760.75455,2826.07423 2899.07449,2781.36326 2932.40941,2676.09635 C2954.63269,2605.91841 2946.64521,2498.26433 2908.44698,2353.13413 C2683.84702,2367.52378 2515.86795,2339.02172 2404.50974,2267.62795 C2237.47244,2160.5373 2134.34816,2040.54157 2134.34816,1770.7826 C2134.34816,1590.94328 2218.26729,1433.02829 2386.10554,1297.0376 L2659.58093,1102.22733 Z M2839.06814,1003.05143 C2863.86474,988.603284 2900.85199,950.581162 2950.02988,888.985066 C2999.20777,827.388969 3033.25847,771.76658 3052.18197,722.117898 C3068.87866,639.929658 3049.73512,590.138252 2994.75134,572.743679 C2939.76757,555.349106 2887.87317,585.000369 2839.06814,661.697468 C2820.17104,715.213728 2810.7225,765.018549 2810.7225,811.111932 C2810.7225,857.205315 2820.17104,921.185148 2839.06814,1003.05143 Z M2739.82538,1385.17309 C2562.20852,1431.73152 2450.43664,1505.08832 2404.50974,1605.2435 C2335.6194,1755.47627 2350.90783,1814.68936 2350.90783,1894.57472 C2350.90783,1974.46008 2420.14143,2101.05591 2575.49458,2161.27512 C2679.06334,2201.42125 2782.58809,2215.16252 2886.06884,2202.49891 L2808.53089,1748.58104 C2762.72722,1748.58104 2727.17304,1764.4252 2701.86836,1796.11352 C2663.91134,1843.64599 2637.17639,1887.53193 2665.64086,1974.46008 C2684.61717,2032.41218 2720.76985,2077.43685 2774.09892,2109.53409 C2656.49156,2087.15814 2580.89878,2058.09713 2547.32056,2022.35105 C2496.95325,1968.73195 2480.78025,1894.57472 2547.32056,1750.48595 C2591.68077,1654.42677 2667.27356,1598.9117 2774.09892,1583.94074 L2739.82538,1385.17309 Z M2979.81938,1750.48595 L3041.77844,2154.16525 C3116.39671,2106.13131 3158.24845,2054.2606 3167.33367,1998.55313 C3180.9615,1914.99192 3164.97117,1839.8357 3108.71483,1786.97431 C3071.2106,1751.73338 3028.24545,1739.5706 2979.81938,1750.48595 Z" id="black-" fill="#FF0076" transform="translate(2736.110360, 1629.201268) rotate(352.000000) translate(-2736.110360, -1629.201268) "></path>
            <path d="M1494.49033,1849.81652 C1459.31038,1715.73465 1447.16958,1589.31634 1458.06792,1470.56161 C1474.41544,1292.42952 1596.16476,1135.59782 1779.59979,1135.59782 C1901.88981,1135.59782 1977.11217,1200.63815 2005.26687,1330.71879 C2030.20038,1433.91774 2016.12303,1546.23376 1963.03482,1667.66687 C1909.94661,1789.09997 1826.05006,1899.57461 1711.34516,1999.0908 L1749.8786,2258.71315 C1891.98275,2271.28843 1989.12259,2338.46819 2041.29813,2460.25242 C2119.56145,2642.92876 2077.3294,2732.28265 2041.29813,2807.69758 C2017.27729,2857.9742 1955.84851,2909.96971 1857.01179,2963.68412 C1867.24289,3078.64993 1872.35844,3167.14234 1872.35844,3229.16133 C1872.35844,3322.18981 1778.89803,3494.57729 1626.31736,3520.50768 C1473.73669,3546.43807 1305.6138,3482.42663 1256.1916,3402.9819 C1206.76941,3323.53716 1218.67629,3264.09447 1256.1916,3177.41079 C1293.70691,3090.7271 1408.93333,3055.18152 1494.49033,3090.7271 C1580.04733,3126.27268 1614.51593,3203.15051 1580.04733,3286.86471 C1557.06826,3342.67418 1502.97918,3374.85546 1417.78009,3383.40856 C1449.03134,3410.33925 1484.3225,3423.8046 1523.65357,3423.8046 C1582.65016,3423.8046 1703.17825,3382.98048 1732.22535,3286.86471 C1751.59009,3222.78753 1744.63002,3124.49213 1711.34516,2991.9785 C1515.63511,3005.11721 1369.26289,2979.09292 1272.22851,2913.90561 C1126.67692,2816.12465 1036.81734,2706.56049 1036.81734,2460.25242 C1036.81734,2296.04703 1109.94209,2151.86003 1256.1916,2027.69139 L1494.49033,1849.81652 Z M1650.89041,1759.26226 C1672.49746,1746.07013 1704.7271,1711.35338 1747.57933,1655.112 C1790.43155,1598.87062 1820.10237,1548.08365 1836.59177,1502.75106 C1851.14079,1427.70768 1834.45965,1382.24477 1786.54835,1366.36236 C1738.63704,1350.47995 1693.41773,1377.55354 1650.89041,1447.58315 C1634.42401,1496.44709 1626.19081,1541.92224 1626.19081,1584.0086 C1626.19081,1626.09495 1634.42401,1684.51284 1650.89041,1759.26226 Z M1564.41307,2108.16501 C1409.64276,2150.67599 1312.2479,2217.65568 1272.22851,2309.10409 C1212.19941,2446.27671 1225.52131,2500.34224 1225.52131,2573.28294 C1225.52131,2646.22365 1285.84952,2761.81414 1421.21986,2816.79833 C1511.46675,2853.45445 1601.67529,2866.00115 1691.84548,2854.43842 L1624.28111,2439.9809 C1584.36908,2439.9809 1553.38818,2454.44768 1531.33839,2483.38125 C1498.26372,2526.78159 1474.96764,2566.8524 1499.77077,2646.22365 C1516.30619,2699.13781 1547.80862,2740.24835 1594.27807,2769.55529 C1491.79834,2749.12454 1425.92892,2722.58989 1396.66982,2689.95132 C1352.78116,2640.99347 1338.68847,2573.28294 1396.66982,2441.72021 C1435.32405,2354.01172 1501.19346,2303.32273 1594.27807,2289.65324 L1564.41307,2108.16501 Z M1773.53706,2441.72021 L1827.52643,2810.30654 C1892.54668,2766.44833 1929.01511,2719.08688 1936.93171,2668.22222 C1948.80662,2591.92522 1934.8731,2523.30254 1885.85291,2475.03653 C1853.17278,2442.8592 1815.73416,2431.75376 1773.53706,2441.72021 Z" id="black-" fill="#CF00FE" transform="translate(1561.175908, 2330.979143) rotate(311.000000) translate(-1561.175908, -2330.979143) "></path>
            <path d="M1130.34195,2945.21273 C1098.86902,2819.00748 1088.00753,2700.0156 1097.75748,2588.23709 C1112.38241,2420.56933 1221.30265,2272.95069 1385.40859,2272.95069 C1494.81254,2272.95069 1562.1085,2334.17023 1587.29646,2456.60931 C1609.60265,2553.74585 1597.00867,2659.46389 1549.51452,2773.76343 C1502.02038,2888.06297 1426.96425,2992.0478 1324.34615,3085.71792 L1358.8192,3330.08881 C1485.94942,3341.92536 1572.85335,3405.15865 1619.531,3519.78868 C1689.54747,3691.73374 1651.76554,3775.83855 1619.531,3846.82324 C1598.0413,3894.14637 1543.08545,3943.08742 1454.66345,3993.64638 C1463.81647,4101.85855 1468.39298,4185.15248 1468.39298,4243.52818 C1468.39298,4331.09172 1384.78077,4493.35233 1248.27798,4517.75945 C1111.77518,4542.16656 961.367898,4481.91546 917.153466,4407.13769 C872.939035,4332.35993 883.591255,4276.40918 917.153466,4194.81772 C950.715678,4113.22625 1053.80035,4079.76879 1130.34195,4113.22625 C1206.88356,4146.68371 1237.7201,4219.04536 1206.88356,4297.84179 C1186.32586,4350.37274 1137.93631,4380.66354 1061.7149,4388.71419 C1089.67311,4414.06284 1121.24554,4426.73717 1156.43217,4426.73717 C1209.21212,4426.73717 1317.03981,4388.31125 1343.02613,4297.84179 C1360.35035,4237.52881 1354.12369,4145.00776 1324.34615,4020.27861 C1149.25865,4032.6455 1018.3101,4008.15 931.500514,3946.7921 C801.286131,3854.75527 720.89532,3751.62743 720.89532,3519.78868 C720.89532,3365.22952 786.314702,3229.51275 917.153466,3112.63838 L1130.34195,2945.21273 Z M1270.26169,2859.97807 C1289.59195,2847.56091 1318.42546,2814.88358 1356.76221,2761.9461 C1395.09897,2709.00861 1421.64329,2661.2051 1436.39515,2618.53557 C1449.4111,2547.9006 1434.4877,2505.10841 1391.62495,2490.159 C1348.7622,2475.2096 1308.30778,2500.69276 1270.26169,2566.60849 C1255.53041,2612.60193 1248.16477,2655.40565 1248.16477,2695.01965 C1248.16477,2734.63365 1255.53041,2789.61979 1270.26169,2859.97807 Z M1192.89673,3188.38459 C1054.43502,3228.39827 967.302951,3291.44325 931.500514,3377.51954 C877.796859,3506.63398 889.714994,3557.52344 889.714994,3626.17925 C889.714994,3694.83507 943.686242,3803.63522 1064.7922,3855.38937 C1145.52951,3889.89213 1226.23252,3901.70178 1306.90121,3890.81831 L1246.4563,3500.70802 C1210.74992,3500.70802 1183.03356,3514.32495 1163.30723,3541.55882 C1133.71773,3582.40961 1112.87643,3620.12648 1135.06598,3694.83507 C1149.85901,3744.6408 1178.04194,3783.33631 1219.61476,3810.92162 C1127.93362,3791.69107 1069.00506,3766.71519 1042.82908,3735.99397 C1003.5651,3689.91214 990.957398,3626.17925 1042.82908,3502.34515 C1077.4102,3419.78908 1136.33876,3372.0778 1219.61476,3359.21133 L1192.89673,3188.38459 Z M1379.9847,3502.34515 L1428.28506,3849.27894 C1486.45393,3807.99717 1519.07957,3763.41797 1526.16198,3715.54134 C1536.78559,3643.72639 1524.32028,3579.13494 1480.4655,3533.70431 C1451.22897,3503.41723 1417.73537,3492.96418 1379.9847,3502.34515 Z" id="black-" fill="#1A00FF" transform="translate(1190.000674, 3398.109547) rotate(280.000000) translate(-1190.000674, -3398.109547) "></path>
            <path d="M1351.89648,3947.52196 C1326.10627,3833.47548 1317.20591,3725.94742 1325.19543,3624.9378 C1337.1797,3473.42337 1426.43341,3340.02649 1560.90856,3340.02649 C1650.55865,3340.02649 1705.70372,3395.34807 1726.34377,3505.99121 C1744.62238,3593.7695 1734.30236,3689.30253 1695.3837,3792.5903 C1656.46505,3895.87807 1594.96098,3989.84487 1510.87149,4074.4907 L1539.12013,4295.31858 C1643.29584,4306.01478 1714.50849,4363.15609 1752.75808,4466.74253 C1810.13245,4622.12218 1779.17239,4698.12422 1752.75808,4762.27016 C1735.14854,4805.03412 1690.11546,4849.26012 1617.65884,4894.94817 C1625.1592,4992.73504 1628.90938,5068.00433 1628.90938,5120.75603 C1628.90938,5199.8836 1560.3941,5346.51181 1448.53811,5368.56751 C1336.68211,5390.62321 1213.4322,5336.17678 1177.20108,5268.6032 C1140.96996,5201.02962 1149.69883,5150.46924 1177.20108,5076.7384 C1204.70334,5003.00756 1289.17515,4972.77343 1351.89648,5003.00756 C1414.61782,5033.24168 1439.88654,5098.63192 1414.61782,5169.837 C1397.772,5217.30705 1358.11961,5244.6796 1295.66065,5251.95463 C1318.57077,5274.86117 1344.44251,5286.31444 1373.27588,5286.31444 C1416.52594,5286.31444 1504.88437,5251.59052 1526.17863,5169.837 C1540.37481,5115.33466 1535.27243,5031.72719 1510.87149,4919.01462 C1367.3976,4930.19006 1260.09298,4908.05449 1188.95764,4852.60789 C1082.25463,4769.438 1016.3791,4676.24564 1016.3791,4466.74253 C1016.3791,4327.07379 1069.98642,4204.43215 1177.20108,4098.8176 L1351.89648,3947.52196 Z M1466.55246,3870.49891 C1482.39247,3859.27803 1506.01983,3829.74889 1537.43454,3781.91146 C1568.84926,3734.07404 1590.60076,3690.87599 1602.68904,3652.31729 C1613.35485,3588.48738 1601.126,3549.81785 1566.0025,3536.30869 C1530.87901,3522.79953 1497.72899,3545.82761 1466.55246,3605.39293 C1454.48104,3646.9553 1448.44534,3685.63526 1448.44534,3721.4328 C1448.44534,3757.23033 1454.48104,3806.91904 1466.55246,3870.49891 Z M1403.15643,4167.26633 C1289.69523,4203.42504 1218.29563,4260.39619 1188.95764,4338.17978 C1144.95066,4454.85516 1154.71687,4500.84187 1154.71687,4562.88329 C1154.71687,4624.92472 1198.94313,4723.24293 1298.18233,4770.01101 C1364.34179,4801.18974 1430.47315,4811.86163 1496.57639,4802.02668 L1447.04534,4449.50012 C1417.78607,4449.50012 1395.07415,4461.80518 1378.90958,4486.4153 C1354.66273,4523.33048 1337.58451,4557.41365 1355.76754,4624.92472 C1367.88956,4669.9321 1390.98381,4704.89964 1425.05029,4729.82734 C1349.923,4712.44949 1301.63452,4689.87982 1280.18484,4662.11832 C1248.01032,4620.47607 1237.67905,4562.88329 1280.18484,4450.97952 C1308.52203,4376.37701 1356.81051,4333.2623 1425.05029,4321.6354 L1403.15643,4167.26633 Z M1556.464,4450.97952 L1596.0433,4764.48927 C1643.70926,4727.18464 1670.44405,4686.90025 1676.24767,4643.63612 C1684.95309,4578.73992 1674.73851,4520.37129 1638.80209,4479.31751 C1614.84448,4451.94832 1587.39845,4442.50233 1556.464,4450.97952 Z" id="black-" fill="#00A2FF" transform="translate(1400.783289, 4356.786113) rotate(612.000000) translate(-1400.783289, -4356.786113) "></path>
            <path d="M1952.13923,4649.37658 C1931.95848,4559.64329 1924.99398,4475.03879 1931.24575,4395.56307 C1940.6234,4276.3495 2010.46413,4171.39106 2115.69047,4171.39106 C2185.84137,4171.39106 2228.9922,4214.91881 2245.14296,4301.97431 C2259.44592,4371.03943 2251.37053,4446.20609 2220.91682,4527.47429 C2190.4631,4608.74248 2142.33637,4682.67681 2076.53664,4749.27727 L2098.6411,4923.02759 C2180.15824,4931.4435 2235.8819,4976.40305 2265.81207,5057.90623 C2310.70733,5180.16101 2286.48118,5239.96043 2265.81207,5290.43131 C2252.03267,5324.07856 2216.79444,5358.87617 2160.09738,5394.82413 C2165.96638,5471.76414 2168.90088,5530.98702 2168.90088,5572.49276 C2168.90088,5634.75138 2115.28791,5750.12041 2027.76098,5767.47413 C1940.23404,5784.82785 1843.7914,5741.98867 1815.44068,5688.82088 C1787.08995,5635.65309 1793.92025,5595.87151 1815.44068,5537.8591 C1836.9611,5479.8467 1903.06,5456.05808 1952.13923,5479.8467 C2001.21846,5503.63531 2020.99116,5555.08522 2001.21846,5611.11032 C1988.03667,5648.46039 1957.00881,5669.99747 1908.13489,5675.72157 C1926.06197,5693.74474 1946.30652,5702.75632 1968.86854,5702.75632 C2002.71156,5702.75632 2071.85174,5675.43508 2088.51442,5611.11032 C2099.62288,5568.22715 2095.63029,5502.44369 2076.53664,5413.75993 C1964.26881,5422.55292 1880.30331,5405.13635 1824.64014,5361.51024 C1741.1454,5296.07106 1689.59802,5222.74607 1689.59802,5057.90623 C1689.59802,4948.01301 1731.54557,4851.51693 1815.44068,4768.41801 L1952.13923,4649.37658 Z M2041.85715,4588.77382 C2054.2519,4579.94508 2072.74023,4556.71116 2097.32214,4519.07204 C2121.90405,4481.43292 2138.92452,4447.44411 2148.38356,4417.10562 C2156.72952,4366.8834 2147.16049,4336.45769 2119.67647,4325.8285 C2092.19245,4315.19932 2066.25268,4333.31812 2041.85715,4380.18491 C2032.41131,4412.88673 2027.68838,4443.32064 2027.68838,4471.48662 C2027.68838,4499.6526 2032.41131,4538.74833 2041.85715,4588.77382 Z M1992.24997,4822.27437 C1903.46696,4850.72453 1847.59702,4895.55018 1824.64014,4956.75135 C1790.20483,5048.55309 1797.84686,5084.73605 1797.84686,5133.55107 C1797.84686,5182.36609 1832.45375,5259.72416 1910.10809,5296.52191 C1961.87765,5321.05375 2013.62521,5329.45053 2065.35077,5321.71227 L2026.59289,5044.33967 C2003.69761,5044.33967 1985.92561,5054.02146 1973.27689,5073.38503 C1954.30381,5102.43038 1940.94017,5129.24748 1955.16833,5182.36609 C1964.65377,5217.77849 1982.72494,5245.29142 2009.38184,5264.90486 C1950.59499,5251.23174 1912.80942,5233.47362 1896.02512,5211.63051 C1870.84866,5178.86583 1862.76448,5133.55107 1896.02512,5045.50369 C1918.19887,4986.80544 1955.98444,4952.88222 2009.38184,4943.73401 L1992.24997,4822.27437 Z M2112.21262,5045.50369 L2143.18329,5292.17734 C2180.48174,5262.82555 2201.40162,5231.12926 2205.94293,5197.08847 C2212.7549,5146.02727 2204.76202,5100.10205 2176.6419,5067.80039 C2157.89515,5046.26595 2136.41873,5038.83372 2112.21262,5045.50369 Z" id="black-" fill="#00FF6F" transform="translate(1990.392994, 4971.391063) rotate(583.000000) translate(-1990.392994, -4971.391063) "></path>
            <path d="M2561.77616,4918.9118 C2541.59541,4845.30209 2534.63091,4775.89961 2540.88268,4710.70437 C2550.26033,4612.91149 2620.10106,4526.81234 2725.3274,4526.81234 C2795.4783,4526.81234 2838.62913,4562.51888 2854.77989,4633.93195 C2869.08284,4690.58722 2861.00746,4752.24768 2830.55375,4818.91333 C2800.10003,4885.57897 2751.9733,4946.22853 2686.17357,5000.862 L2708.27803,5143.39227 C2789.79517,5150.29598 2845.51883,5187.17704 2875.449,5254.03546 C2920.34425,5354.32308 2896.11811,5403.37754 2875.449,5444.77964 C2861.6696,5472.38104 2826.43136,5500.92609 2769.7343,5530.41481 C2775.60331,5593.52997 2778.53781,5642.11149 2778.53781,5676.15934 C2778.53781,5727.23112 2724.92484,5821.87025 2637.3979,5836.10579 C2549.87097,5850.34133 2453.42833,5815.19965 2425.0776,5771.58522 C2396.72687,5727.9708 2403.55718,5695.33731 2425.0776,5647.74877 C2446.59802,5600.16023 2512.69693,5580.64603 2561.77616,5600.16023 C2610.85539,5619.67442 2630.62809,5661.87964 2610.85539,5707.83796 C2597.6736,5738.47684 2566.64574,5756.14407 2517.77182,5760.83964 C2535.6989,5775.62434 2555.94345,5783.01669 2578.50547,5783.01669 C2612.34849,5783.01669 2681.48867,5760.60463 2698.15135,5707.83796 C2709.25981,5672.66018 2705.26722,5618.69692 2686.17357,5545.94816 C2573.90573,5553.16119 2489.94024,5538.87409 2434.27707,5503.08687 C2350.78233,5449.40602 2299.23495,5389.25631 2299.23495,5254.03546 C2299.23495,5163.88822 2341.1825,5084.73089 2425.0776,5016.56346 L2561.77616,4918.9118 Z M2651.49408,4869.19835 C2663.88883,4861.95599 2682.37716,4842.89682 2706.95907,4812.02082 C2731.54097,4781.14483 2748.56145,4753.26324 2758.02049,4728.37608 C2766.36645,4687.17795 2756.79741,4662.21924 2729.3134,4653.49994 C2701.82938,4644.78064 2675.88961,4659.6438 2651.49408,4698.0894 C2642.04823,4724.91525 2637.32531,4749.88069 2637.32531,4772.98571 C2637.32531,4796.09073 2642.04823,4828.16161 2651.49408,4869.19835 Z M2601.8869,5060.74273 C2513.10389,5084.08087 2457.23395,5120.8521 2434.27707,5171.05643 C2399.84176,5246.36292 2407.48379,5276.0444 2407.48379,5316.08817 C2407.48379,5356.13194 2442.09068,5419.59006 2519.74502,5449.77586 C2571.51458,5469.89974 2623.26214,5476.78776 2674.9877,5470.43993 L2636.22982,5242.90659 C2613.33454,5242.90659 2595.56254,5250.84871 2582.91382,5266.73297 C2563.94074,5290.55936 2550.5771,5312.55787 2564.80526,5356.13194 C2574.2907,5385.18133 2592.36187,5407.75064 2619.01877,5423.83987 C2560.23192,5412.62358 2522.44634,5398.0563 2505.66204,5380.13803 C2480.48559,5353.26063 2472.40141,5316.08817 2505.66204,5243.86145 C2527.8358,5195.7103 2565.62137,5167.88251 2619.01877,5160.37809 L2601.8869,5060.74273 Z M2721.84955,5243.86145 L2752.82022,5446.21194 C2790.11867,5422.13418 2811.03855,5396.13319 2815.57986,5368.20896 C2822.39183,5326.32261 2814.39895,5288.64939 2786.27883,5262.1518 C2767.53208,5244.48674 2746.05566,5238.38996 2721.84955,5243.86145 Z" id="black-" fill="#FFC915" transform="translate(2600.029923, 5183.065629) rotate(562.000000) translate(-2600.029923, -5183.065629) "></path>
            <path d="M3166.3213,4985.56376 C3151.30371,4925.00342 3146.12105,4867.90446 3150.77333,4814.26688 C3157.75175,4733.81052 3209.72401,4662.97483 3288.02864,4662.97483 C3340.23172,4662.97483 3372.34259,4692.35139 3384.36125,4751.10451 C3395.00485,4797.71606 3388.99552,4848.44549 3366.33326,4903.2928 C3343.671,4958.1401 3307.8573,5008.03784 3258.89215,5052.98601 L3275.34128,5170.24882 C3336.0026,5175.92866 3377.46959,5206.27153 3399.74225,5261.27743 C3433.15124,5343.78629 3415.12325,5384.14448 3399.74225,5418.2069 C3389.48825,5440.91519 3363.26557,5464.39984 3321.07422,5488.66086 C3325.44166,5540.58711 3327.62539,5580.55619 3327.62539,5608.56812 C3327.62539,5650.586 3287.72907,5728.44772 3222.59554,5740.15962 C3157.462,5751.87151 3085.69381,5722.95967 3064.5965,5687.07711 C3043.49919,5651.19456 3048.58199,5624.34626 3064.5965,5585.19411 C3080.61101,5546.04196 3129.79879,5529.9872 3166.3213,5546.04196 C3202.84381,5562.09672 3217.55775,5596.81989 3202.84381,5634.63083 C3193.03453,5659.83811 3169.94502,5674.37333 3133.57528,5678.23648 C3146.9158,5690.40019 3161.98087,5696.48204 3178.77048,5696.48204 C3203.95491,5696.48204 3255.40586,5678.04313 3267.80547,5634.63083 C3276.07187,5605.68929 3273.10077,5561.29251 3258.89215,5501.44049 C3175.34757,5507.37481 3112.8643,5495.6205 3071.44232,5466.17755 C3009.30936,5422.01313 2970.95016,5372.52663 2970.95016,5261.27743 C2970.95016,5187.1113 3002.16561,5121.98681 3064.5965,5065.90395 L3166.3213,4985.56376 Z M3233.08526,4944.6634 C3242.30887,4938.70495 3256.06703,4923.02455 3274.35976,4897.62218 C3292.65249,4872.21981 3305.31835,4849.28102 3312.35734,4828.80579 C3318.56801,4794.91118 3311.44718,4774.37709 3290.99483,4767.20353 C3270.54249,4760.02997 3251.2393,4772.25822 3233.08526,4803.88827 C3226.0561,4825.95849 3222.54152,4846.49811 3222.54152,4865.50713 C3222.54152,4884.51614 3226.0561,4910.90156 3233.08526,4944.6634 Z M3196.16987,5102.25122 C3130.10163,5121.45202 3088.52578,5151.70453 3071.44232,5193.00874 C3045.81714,5254.96507 3051.50399,5279.38468 3051.50399,5312.32958 C3051.50399,5345.27448 3077.25685,5397.48288 3135.04365,5422.31741 C3173.56818,5438.87377 3212.07635,5444.54069 3250.56814,5439.3182 L3221.7263,5252.12146 C3204.68868,5252.12146 3191.46358,5258.65563 3182.05098,5271.72396 C3167.93208,5291.32646 3157.98747,5309.42512 3168.57541,5345.27448 C3175.63404,5369.17405 3189.08178,5387.74232 3208.91862,5400.9793 C3165.17215,5391.7514 3137.05385,5379.76658 3124.56375,5365.02482 C3105.82859,5342.91218 3099.81271,5312.32958 3124.56375,5252.90705 C3141.06444,5213.29203 3169.18273,5190.39749 3208.91862,5184.22344 L3196.16987,5102.25122 Z M3285.44058,5252.90705 L3308.48753,5419.38529 C3336.24333,5399.57598 3351.81095,5378.18439 3355.19038,5355.2105 C3360.25953,5320.74968 3354.3116,5289.75508 3333.3859,5267.95493 C3319.43543,5253.42149 3303.45365,5248.40553 3285.44058,5252.90705 Z" id="black-" fill="#FA8443" transform="translate(3194.787996, 5202.888979) rotate(543.000000) translate(-3194.787996, -5202.888979) "></path>
            <path d="M11296.4582,5889.19565 C11392.2699,5889.19565 10832.196,5199.30247 10360.6878,4803.99915 C9889.17961,4408.69584 9362.53093,4148.14193 8412.33325,4027.97296 C7462.13557,3907.80399 6957.43421,3948.968 6009.42476,4088.22534 C5061.41532,4227.48269 3955.37126,4417.51487 3331.84537,4391.46373 C2708.31948,4365.41259 2596.49335,4027.97296 2596.49335,3784.10606 C2596.49335,3540.23915 2736.66788,3191.42038 3002.9298,3191.42038 C3180.43775,3191.42038 3341.9987,3236.93516 3487.61265,3327.96473 C3430.14632,3131.98824 3268.58537,3034 3002.9298,3034 C2604.44645,3034 2393,3468.78488 2393,3719.89869 C2393,3971.0125 2473.56049,4192.48092 2813.81753,4431.91469 C3040.65556,4591.53721 3656.60665,4606.28661 4661.67081,4476.16289 L6062.03828,4269.79484 C4759.70299,4696.35609 4143.00516,4940.0987 4211.94476,5001.02266 C4315.35417,5092.4086 6336.25633,4310.2458 6917.33759,4269.79484 C7498.41885,4229.34389 8018.67399,4244.53414 9085.96475,4391.46373 C10153.2555,4538.39332 11200.6465,5889.19565 11296.4582,5889.19565 Z" id="Path-11" stroke="#007900" fill="#157600"></path>
            <g id="Group-2" transform="translate(8721.997804, 4901.184000) rotate(-9.000000) translate(-8721.997804, -4901.184000) translate(3988.497804, 3431.684000)">
                <path d="M4402.66491,2938.30771 C6296.82914,2938.30771 6825.85566,1544.50102 6825.85566,733.93818 C6825.85566,-76.6246618 6296.82914,3 4402.66491,3 C2508.50067,3 0.496983523,1176.5357 0.496983523,1987.09854 C0.496983523,2797.66138 2508.50067,2938.30771 4402.66491,2938.30771 Z" id="Oval-5" transform="translate(3413.176322, 1469.580365) scale(-1, 1) translate(-3413.176322, -1469.580365) "></path>
                <text id="DU-SON-JARDIN" transform="translate(5593.000000, 789.000000) scale(-1, 1) translate(-5593.000000, -789.000000) " font-family="Philosopher-Regular, Philosopher" font-size="900" font-weight="normal" fill="#000000">
                    <tspan x="2448.85" y="1095">DU SON JARDIN </tspan>
                </text>
            </g>
        </g>
    </g>
</svg>