<?xml version="1.0" encoding="UTF-8"?>
<svg width="1772px" height="4444px" viewBox="0 0 1772 4444" version="1.1" xmlns="http://www.w3.org/2000/svg" xmlns:xlink="http://www.w3.org/1999/xlink">
    <!-- Generator: Sketch 50.2 (55047) - http://www.bohemiancoding.com/sketch -->
    <title>Slice 1</title>
    <desc>Created with Sketch.</desc>
    <defs></defs>
    <g id="Page-1" stroke="none" stroke-width="1" fill="none" fill-rule="evenodd">
        <g id="flower-flyaway" transform="translate(-4467.000000, -2469.000000)"></g>
        <g id="white-nonFlower" transform="translate(3.000000, 0.000000)">
            <path d="M1288.55077,3553.33458 L1302.49308,3501.4675 C1313.59997,3472.24471 1324.7085,3454.74076 1335.81866,3448.95568 C1352.48389,3440.27804 1359.24291,3445.13575 1364.7609,3452.92354 C1370.27889,3460.71133 1373.42872,3474.67699 1375.02414,3486.15689 C1376.61955,3497.63679 1378.38286,3507.65446 1375.02414,3521.74623 C1372.78499,3531.14074 1368.14571,3536.98692 1361.10628,3539.28476 C1352.32005,3537.39173 1347.92693,3528.90546 1347.92693,3513.82595 C1347.92693,3498.74645 1351.38429,3489.52343 1358.29899,3486.15689 C1357.66646,3479.51949 1354.82941,3476.20079 1349.78786,3476.20079 C1342.22554,3476.20079 1336.7789,3487.15007 1331.29471,3507.65446 C1327.63858,3521.32404 1325.18995,3536.55075 1323.9488,3553.33458 L1338.35573,3553.33458 C1343.42255,3557.46216 1345.95596,3564.06496 1345.95596,3573.14299 C1345.95596,3582.22101 1343.42255,3588.99972 1338.35573,3593.47912 L1320.81016,3593.47912 C1311.43133,3647.18477 1302.59171,3688.4613 1294.29129,3717.30873 C1281.84066,3760.57987 1265.3625,3778.52468 1255.30222,3781.08381 C1245.24195,3783.64294 1231.98679,3783.64294 1226.54216,3767.94592 C1221.09753,3752.2489 1218.16186,3727.65565 1221.09753,3708.03051 C1223.05465,3694.94708 1228.56448,3688.40536 1237.62705,3688.40536 C1244.94524,3688.40536 1249.13621,3696.11955 1250.19994,3711.54793 C1251.26368,3726.9763 1247.07272,3736.87499 1237.62705,3741.24398 C1237.29774,3748.58059 1239.83604,3752.2489 1245.24195,3752.2489 C1253.35081,3752.2489 1263.06384,3733.46723 1266.76492,3708.03051 C1269.2323,3691.07269 1271.70988,3672.04225 1274.19764,3650.93919 L1282.48868,3593.47912 L1266.76492,3593.47912 C1259.2731,3587.03162 1256.15851,3579.06792 1257.42114,3569.58803 C1258.68377,3560.10814 1262.42968,3554.69032 1268.65886,3553.33458 L1288.55077,3553.33458 Z" id="yellow-copy" stroke="#F8E71C" fill="#F8E71C" transform="translate(1298.437501, 3613.344274) rotate(-1.000000) translate(-1298.437501, -3613.344274) "></path>
            <g id="pink" transform="translate(1573.774037, 2365.219481) rotate(25.000000) translate(-1573.774037, -2365.219481) translate(1438.774037, 2196.219481)" fill="#E39AC6">
                <path d="M129.960434,6.00018757 C181.192502,20.2369356 208.803074,72.5400846 192.157142,152.373944 C175.511211,232.207803 107.289359,275.10796 85.8893798,290.940888 C64.4894003,306.773816 32.2657986,324.234576 14.451156,335.032529 C-3.3634867,345.830482 -3.3634867,324.153184 7.15491812,317.906379 C17.6733229,311.659573 82.7502783,258.684943 113.65256,205.529444 C144.554841,152.373944 143.399652,104.816377 139.271492,82.9695143 C135.143332,61.1226513 120.543129,25.1633885 74.4746408,31.9663701 C43.7623153,36.5016911 29.6727398,51.8522983 32.2059142,78.0181917 C72.4649719,61.0329698 92.5945007,68.1554887 92.5945007,99.3857486 C92.5945007,130.616008 75.4379425,141.839006 41.1248261,133.054742 C14.68683,123.28775 1.46783203,103.116197 1.46783203,72.5400846 C1.46783203,41.9639721 13.0731709,21.5527665 36.2838486,11.306468 C64.5801927,-1.72221766 95.8057211,-3.4909778 129.960434,6.00018757 Z" id="Path-10" stroke="#E39AC6"></path>
                <ellipse id="Oval-3" stroke="#F095C8" cx="245" cy="160" rx="25" ry="28"></ellipse>
                <ellipse id="Oval-3" stroke="#F095C8" cx="245" cy="66" rx="25" ry="28"></ellipse>
            </g>
            <g id="green" transform="translate(1298.488922, 2100.344507) rotate(-26.000000) translate(-1298.488922, -2100.344507) translate(1219.988922, 1961.344507)" fill="#B8E986" stroke="#B8E986">
                <path d="M45.7688656,269.985425 C45.7688656,279.418314 38.8703194,277.427719 38.8703194,277.427719 C38.8703194,277.427719 29.3778078,277.427719 10.3927844,277.427719 C4.06004436,277.427719 0.893674354,274.39579 0.893674354,268.331932 C0.893674354,259.236144 0.893674354,31.6315734 0.893674354,8.07192102 C0.893674354,4.53097406 5.09470058,0.631382671 8.08279814,0.631382671 C17.2247268,0.631382671 35.7766211,-0.0106052298 39.6054392,0.631382671 C42.3054574,1.08410175 45.7394775,4.08993698 45.7688656,8.07192102 C45.942962,31.6613133 45.7688656,260.552537 45.7688656,269.985425 Z" id="Path-9"></path>
                <circle id="Oval-2" cx="134.5" cy="100.5" r="22.5"></circle>
                <circle id="Oval-2" cx="134.5" cy="178.5" r="22.5"></circle>
                <path d="M88.9571943,268.331932 C88.9571943,277.427719 85.5648502,277.427719 85.5648502,277.427719 C85.5648502,277.427719 80.8969295,277.427719 71.5610883,277.427719 C68.446978,277.427719 66.8899229,274.39579 66.8899229,268.331932 C66.8899229,259.236144 66.8899229,31.6315734 66.8899229,8.07192102 C66.8899229,2.78521354 68.9557678,0.631382671 70.4251579,0.631382671 C74.9206801,0.631382671 82.0220977,0.631382671 85.9263436,0.631382671 C87.2545603,0.631382671 88.9571943,2.84396509 88.9571943,8.07192102 C88.9571943,31.6857204 88.9571943,259.236144 88.9571943,268.331932 Z" id="Path-9-Copy"></path>
            </g>
            <path d="M1179.0885,1363.36346 C1180.66326,1343.78782 1185.861,1334 1194.68172,1334 C1203.50243,1334 1207.91279,1342.53102 1207.91279,1359.59305 L1219.45075,1384.72209 C1251.77891,1419.94003 1269.95498,1454.25634 1273.97896,1487.67103 C1278.00294,1521.08571 1275.62183,1551.01547 1266.83563,1577.46032 C1276.25581,1604.45381 1277.70701,1636.53358 1271.18924,1673.69964 C1264.67146,1710.8657 1249.83612,1730.3442 1226.68323,1732.13515 C1243.94285,1702.4963 1252.57266,1674.06132 1252.57266,1646.83021 C1252.57266,1619.59909 1244.63212,1595.06401 1228.75103,1573.22495 L1207.91279,1550.86346 L1207.91279,1728.68012 C1199.55668,1764.17975 1184.04387,1781.92956 1161.37436,1781.92956 C1127.37008,1781.92956 1110.72811,1744.72069 1113.24929,1716.33114 C1115.77046,1687.94159 1123.08598,1668.29535 1142.44443,1657.82907 C1155.35006,1650.85154 1167.56475,1653.11562 1179.0885,1664.62131 L1179.0885,1363.36346 Z M1208.50462,1440.07608 L1208.50462,1471.30074 C1212.84655,1485.15974 1217.60864,1494.95059 1222.79088,1500.67329 C1230.25436,1508.91514 1239.64457,1522.03974 1250.9615,1540.04709 C1250.96144,1536.66259 1250.9614,1530.42222 1250.9614,1521.32596 C1250.9614,1507.68157 1248.44811,1495.41545 1235.6195,1471.30074 C1227.06709,1455.22427 1218.02879,1444.81605 1208.50462,1440.07608 Z" id="green-" stroke="#50E3C2" fill="#50E3C2" transform="translate(1194.437501, 1557.964780) rotate(-43.000000) translate(-1194.437501, -1557.964780) "></path>
            <path d="M516.855144,2292.06916 C518.429905,2272.49352 523.627645,2262.70569 532.448364,2262.70569 C541.269083,2262.70569 545.679442,2271.23671 545.679442,2288.29875 L557.217396,2313.42779 C589.545556,2348.64573 607.721627,2382.96204 611.745609,2416.37672 C615.76959,2449.7914 613.38848,2479.72117 604.602278,2506.16601 C614.02246,2533.1595 615.473662,2565.23927 608.955887,2602.40533 C602.438111,2639.57139 587.602774,2659.0499 564.449874,2660.84084 C581.7095,2631.202 590.339313,2602.76702 590.339313,2575.5359 C590.339313,2548.30479 582.398768,2523.7697 566.51768,2501.93064 L545.679442,2479.56916 L545.679442,2657.38581 C537.323333,2692.88544 521.81052,2710.63526 499.141004,2710.63526 C465.136729,2710.63526 448.49476,2673.42639 451.015935,2645.03684 C453.537111,2616.64729 460.852626,2597.00104 480.211078,2586.53476 C493.116712,2579.55724 505.331401,2581.82132 516.855144,2593.327 L516.855144,2292.06916 Z M546.271264,2368.78177 L546.271264,2400.00644 C550.613195,2413.86543 555.375285,2423.65628 560.557533,2429.37899 C568.021012,2437.62083 577.411219,2450.74543 588.728153,2468.75279 C588.728084,2465.36829 588.72805,2459.12791 588.72805,2450.03165 C588.72805,2436.38726 586.214758,2424.12114 573.386145,2400.00644 C564.833737,2383.92997 555.795443,2373.52174 546.271264,2368.78177 Z" id="green-" stroke="#50E3C2" fill="#50E3C2" transform="translate(532.204149, 2486.670475) rotate(-2.000000) translate(-532.204149, -2486.670475) "></path>
            <path d="M1668.79981,2833.31303 C1676.31693,2833.31303 1681.87635,2834.50793 1685.47808,2836.89774 C1689.07981,2839.28754 1692.54877,2843.7561 1695.88496,2850.3034 L1695.88496,3032.6204 C1689.72134,3046.20093 1680.69296,3056.19714 1668.79981,3062.60902 C1650.27828,3072.59442 1629.66419,3076.27165 1598.79907,3069.77451 C1576.53244,3065.08736 1564.87067,3050.95689 1558.29126,3037.23358 C1549.77744,3019.47551 1555.12988,2999.47511 1569.26474,2986.93718 C1587.61135,2970.66334 1604.36761,2966.14452 1623.63256,2966.14452 C1642.8175,2966.14452 1654.37845,2970.35685 1658.31541,2978.78153 L1658.31541,2878.35059 L1500.81949,2913.60817 L1500.81949,3062.60902 C1498.46131,3079.93401 1490.49977,3092.26879 1476.93485,3099.61336 C1454.91388,3111.53636 1432.22289,3112.8347 1412.36088,3110.12357 C1404.13581,3109.00086 1381.30101,3104.51453 1370.11473,3093.14418 C1358.27632,3081.11098 1358.35549,3061.97604 1360.36539,3053.72294 C1364.88471,3035.16562 1368.34132,3025.98032 1383.08658,3014.71052 C1397.83183,3003.44072 1430.24239,3005.5678 1441.25274,3007.82959 C1450.89671,3009.81069 1459.56483,3012.10434 1467.2571,3014.71052 C1467.2571,2941.33975 1467.2571,2901.45051 1467.2571,2895.0428 C1467.2571,2888.63509 1472.5949,2883.55585 1483.2705,2879.80507 C1524.49924,2869.47351 1586.34234,2853.97616 1668.79981,2833.31303 Z" id="red" stroke="#D0021B" stroke-width="4" fill="#E30909" transform="translate(1527.616021, 2972.313032) rotate(-87.000000) translate(-1527.616021, -2972.313032) "></path>
            <path d="M1614.81568,1879.7495 L1614.81568,1562.79994 L1631.81568,1562.79994 L1631.81568,1898.86564 C1636.46065,1927.7224 1618.3385,1952.8665 1584.55206,1968.62138 C1550.76561,1984.37626 1515.05092,1979.29433 1504.78108,1957.27057 C1494.51123,1935.24681 1513.5752,1904.62118 1547.36165,1888.8663 C1569.6524,1878.47195 1597.26926,1873.58486 1614.81568,1879.7495 Z" id="mustard" stroke="#F5A800" fill="#EAAA0D" transform="translate(1567.267307, 1770.289044) rotate(-150.000000) translate(-1567.267307, -1770.289044) "></path>
            <g id="green" transform="translate(1035.488922, 1001.344507) rotate(-64.000000) translate(-1035.488922, -1001.344507) translate(956.988922, 862.344507)" fill="#B8E986" stroke="#B8E986">
                <path d="M45.7688656,269.985425 C45.7688656,279.418314 38.8703194,277.427719 38.8703194,277.427719 C38.8703194,277.427719 29.3778078,277.427719 10.3927844,277.427719 C4.06004436,277.427719 0.893674354,274.39579 0.893674354,268.331932 C0.893674354,259.236144 0.893674354,31.6315734 0.893674354,8.07192102 C0.893674354,4.53097406 5.09470058,0.631382671 8.08279814,0.631382671 C17.2247268,0.631382671 35.7766211,-0.0106052298 39.6054392,0.631382671 C42.3054574,1.08410175 45.7394775,4.08993698 45.7688656,8.07192102 C45.942962,31.6613133 45.7688656,260.552537 45.7688656,269.985425 Z" id="Path-9"></path>
                <circle id="Oval-2" cx="134.5" cy="100.5" r="22.5"></circle>
                <circle id="Oval-2" cx="134.5" cy="178.5" r="22.5"></circle>
                <path d="M88.9571943,268.331932 C88.9571943,277.427719 85.5648502,277.427719 85.5648502,277.427719 C85.5648502,277.427719 80.8969295,277.427719 71.5610883,277.427719 C68.446978,277.427719 66.8899229,274.39579 66.8899229,268.331932 C66.8899229,259.236144 66.8899229,31.6315734 66.8899229,8.07192102 C66.8899229,2.78521354 68.9557678,0.631382671 70.4251579,0.631382671 C74.9206801,0.631382671 82.0220977,0.631382671 85.9263436,0.631382671 C87.2545603,0.631382671 88.9571943,2.84396509 88.9571943,8.07192102 C88.9571943,31.6857204 88.9571943,259.236144 88.9571943,268.331932 Z" id="Path-9-Copy"></path>
            </g>
            <g id="blue" transform="translate(1146.702974, 4038.271752) rotate(228.000000) translate(-1146.702974, -4038.271752) translate(1011.702974, 3930.771752)" fill="#4A90E2" stroke="#4A90E2">
                <path d="M131.777634,0.324607373 C211.822593,-6.6636606 249.416065,101.233214 257.392502,126.266548 C262.710127,142.955436 266.691654,164.823589 269.337083,191.871006 C270.274553,206.336076 268.199979,213.568611 263.113361,213.568611 C258.026744,213.568611 255.107865,206.336076 254.356723,191.871006 C251.937865,177.434356 248.173046,163.848675 243.062267,151.113964 C235.396098,132.011898 215.587464,75.5299931 137.05842,71.5635765 C58.5293746,67.5971599 26.3399344,148.261973 21.6177268,160.77846 C18.4695885,169.122785 15.217622,183.269528 11.8618275,203.21869 C11.8618275,210.118637 9.79987785,213.568611 5.67597863,213.568611 C1.55207942,213.568611 -0.324646335,210.118637 0.0458013719,203.21869 C-0.121081803,177.164562 3.81759356,151.513848 11.8618275,126.266548 C23.9281783,88.395597 51.7326746,7.31287534 131.777634,0.324607373 Z" id="Path-8"></path>
                <ellipse id="Oval" cx="135.115175" cy="177.5" rx="27.3105142" ry="37.5"></ellipse>
            </g>
            <path d="M755.385798,1381.93715 C713.726564,1166.53452 699.349724,963.443429 712.255277,772.663865 C731.613606,486.49452 875.786158,234.544283 1093.00541,234.544283 C1237.81824,234.544283 1326.89471,339.031612 1360.23481,548.00627 C1389.76047,713.795455 1373.09042,894.231232 1310.22466,1089.3136 C1247.35891,1284.39597 1148.01067,1461.87357 1012.17996,1621.7464 L1057.81031,2038.8299 C1226.08654,2059.0321 1341.11716,2166.95642 1402.90215,2362.60288 C1495.57964,2656.07256 1445.56949,2799.61966 1402.90215,2920.7738 C1374.45726,3001.54322 1301.71481,3085.07405 1184.6748,3171.36629 C1196.79021,3356.05896 1202.84792,3498.22207 1202.84792,3597.85562 C1202.84792,3747.30595 1092.17441,4024.24657 911.492126,4065.90376 C730.809847,4107.56095 531.722851,4004.72653 473.198304,3877.0985 C414.673757,3749.47047 428.773595,3653.97575 473.198304,3514.71834 C517.623013,3375.46093 654.071305,3318.35694 755.385798,3375.46093 C856.70029,3432.56493 897.517157,3556.06923 856.70029,3690.55615 C829.489045,3780.2141 765.438088,3831.91335 664.547417,3845.65391 C701.554385,3888.9181 743.345307,3910.55019 789.920185,3910.55019 C859.782501,3910.55019 1002.5089,3844.9662 1036.90576,3690.55615 C1059.83701,3587.61612 1051.59507,3429.70448 1012.17996,3216.82123 C780.424931,3237.92859 607.094549,3196.12054 492.188811,3091.39708 C319.830205,2934.31189 213.420698,2758.29698 213.420698,2362.60288 C213.420698,2098.80681 300.013234,1867.17027 473.198304,1667.69327 L755.385798,1381.93715 Z M940.590923,1236.46167 C966.177468,1215.2685 1004.34302,1159.49601 1055.08757,1069.1442 C1105.83212,978.792388 1140.96757,897.203067 1160.49391,824.376238 C1177.72251,703.818981 1157.96911,630.782798 1101.23372,605.267687 C1044.49833,579.752577 990.950733,623.246329 940.590923,735.748945 C921.091823,814.248904 911.342273,887.304765 911.342273,954.916528 C911.342273,1022.52829 921.091823,1116.37667 940.590923,1236.46167 Z M838.186589,1796.9742 C654.911392,1865.26812 539.5788,1972.87105 492.188811,2119.78299 C421.103828,2340.15089 436.879299,2427.00722 436.879299,2544.18651 C436.879299,2661.3658 508.318481,2847.06202 668.620704,2935.39415 C775.488852,2994.28224 882.311591,3014.43852 989.088919,2995.86299 L909.080849,2330.03668 C861.818009,2330.03668 825.131183,2353.27757 799.02037,2399.75936 C759.854152,2469.48205 732.267512,2533.85584 761.638769,2661.3658 C781.219608,2746.37244 818.524012,2812.41657 873.551981,2859.49818 C752.198008,2826.67617 674.197065,2784.04822 639.549153,2731.61434 C587.577284,2652.96352 570.889069,2544.18651 639.549153,2332.83088 C685.322542,2191.92712 763.323484,2110.49522 873.551981,2088.53517 L838.186589,1796.9742 Z M1085.82607,2332.83088 L1149.75896,2924.9651 C1226.75434,2854.50684 1269.93935,2778.42065 1279.314,2696.70652 C1293.37597,2574.13534 1276.87624,2463.89294 1218.82774,2386.35358 C1180.12874,2334.66067 1135.79485,2316.81977 1085.82607,2332.83088 Z" id="black-" stroke="#000000" stroke-width="2" fill="#FFFFFF" transform="translate(834.353220, 2154.925271) rotate(359.000000) translate(-834.353220, -2154.925271) "></path>
            <g id="pink" transform="translate(1573.774037, 2365.219481) rotate(25.000000) translate(-1573.774037, -2365.219481) translate(1438.774037, 2196.219481)" fill="#E39AC6">
                <path d="M129.960434,6.00018757 C181.192502,20.2369356 208.803074,72.5400846 192.157142,152.373944 C175.511211,232.207803 107.289359,275.10796 85.8893798,290.940888 C64.4894003,306.773816 32.2657986,324.234576 14.451156,335.032529 C-3.3634867,345.830482 -3.3634867,324.153184 7.15491812,317.906379 C17.6733229,311.659573 82.7502783,258.684943 113.65256,205.529444 C144.554841,152.373944 143.399652,104.816377 139.271492,82.9695143 C135.143332,61.1226513 120.543129,25.1633885 74.4746408,31.9663701 C43.7623153,36.5016911 29.6727398,51.8522983 32.2059142,78.0181917 C72.4649719,61.0329698 92.5945007,68.1554887 92.5945007,99.3857486 C92.5945007,130.616008 75.4379425,141.839006 41.1248261,133.054742 C14.68683,123.28775 1.46783203,103.116197 1.46783203,72.5400846 C1.46783203,41.9639721 13.0731709,21.5527665 36.2838486,11.306468 C64.5801927,-1.72221766 95.8057211,-3.4909778 129.960434,6.00018757 Z" id="Path-10" stroke="#E39AC6"></path>
                <ellipse id="Oval-3" stroke="#F095C8" cx="245" cy="160" rx="25" ry="28"></ellipse>
                <ellipse id="Oval-3" stroke="#F095C8" cx="245" cy="66" rx="25" ry="28"></ellipse>
            </g>
            <path d="M966.855144,3589.06916 C968.429905,3569.49352 973.627645,3559.70569 982.448364,3559.70569 C991.269083,3559.70569 995.679442,3568.23671 995.679442,3585.29875 L1007.2174,3610.42779 C1039.54556,3645.64573 1057.72163,3679.96204 1061.74561,3713.37672 C1065.76959,3746.7914 1063.38848,3776.72117 1054.60228,3803.16601 C1064.02246,3830.1595 1065.47366,3862.23927 1058.95589,3899.40533 C1052.43811,3936.57139 1037.60277,3956.0499 1014.44987,3957.84084 C1031.7095,3928.202 1040.33931,3899.76702 1040.33931,3872.5359 C1040.33931,3845.30479 1032.39877,3820.7697 1016.51768,3798.93064 L995.679442,3776.56916 L995.679442,3954.38581 C987.323333,3989.88544 971.81052,4007.63526 949.141004,4007.63526 C915.136729,4007.63526 898.49476,3970.42639 901.015935,3942.03684 C903.537111,3913.64729 910.852626,3894.00104 930.211078,3883.53476 C943.116712,3876.55724 955.331401,3878.82132 966.855144,3890.327 L966.855144,3589.06916 Z M996.271264,3665.78177 L996.271264,3697.00644 C1000.6132,3710.86543 1005.37528,3720.65628 1010.55753,3726.37899 C1018.02101,3734.62083 1027.41122,3747.74543 1038.72815,3765.75279 C1038.72808,3762.36829 1038.72805,3756.12791 1038.72805,3747.03165 C1038.72805,3733.38726 1036.21476,3721.12114 1023.38615,3697.00644 C1014.83374,3680.92997 1005.79544,3670.52174 996.271264,3665.78177 Z" id="green-" stroke="#50E3C2" fill="#50E3C2" transform="translate(982.204149, 3783.670475) rotate(-2.000000) translate(-982.204149, -3783.670475) "></path>
            <path d="M1297.14254,4010.12431 C1298.7173,3990.54866 1303.91504,3980.76084 1312.73576,3980.76084 C1321.55648,3980.76084 1325.96683,3989.29186 1325.96683,4006.3539 L1337.50479,4031.48293 C1369.83295,4066.70087 1388.00902,4101.01719 1392.033,4134.43187 C1396.05698,4167.84655 1393.67587,4197.77632 1384.88967,4224.22116 C1394.30985,4251.21465 1395.76105,4283.29442 1389.24328,4320.46048 C1382.7255,4357.62654 1367.89017,4377.10504 1344.73727,4378.89599 C1361.99689,4349.25715 1370.62671,4320.82217 1370.62671,4293.59105 C1370.62671,4266.35994 1362.68616,4241.82485 1346.80507,4219.98579 L1325.96683,4197.6243 L1325.96683,4375.44096 C1317.61073,4410.94059 1302.09791,4428.6904 1279.4284,4428.6904 C1245.42412,4428.6904 1228.78215,4391.48154 1231.30333,4363.09198 C1233.8245,4334.70243 1241.14002,4315.05619 1260.49847,4304.58991 C1273.4041,4297.61239 1285.61879,4299.87647 1297.14254,4311.38215 L1297.14254,4010.12431 Z M1326.55866,4086.83692 L1326.55866,4118.06159 C1330.90059,4131.92058 1335.66268,4141.71143 1340.84493,4147.43414 C1348.3084,4155.67598 1357.69861,4168.80058 1369.01555,4186.80794 C1369.01548,4183.42344 1369.01544,4177.18306 1369.01544,4168.0868 C1369.01544,4154.44241 1366.50215,4142.17629 1353.67354,4118.06159 C1345.12113,4101.98512 1336.08284,4091.57689 1326.55866,4086.83692 Z" id="green-" stroke="#50E3C2" fill="#50E3C2" transform="translate(1312.491542, 4204.725623) rotate(-24.000000) translate(-1312.491542, -4204.725623) "></path>
            <g id="blue" transform="translate(1281.115584, 1231.052826) rotate(246.000000) translate(-1281.115584, -1231.052826) translate(1146.115584, 1123.552826)" fill="#4A90E2" stroke="#4A90E2">
                <path d="M131.777634,0.324607373 C211.822593,-6.6636606 249.416065,101.233214 257.392502,126.266548 C262.710127,142.955436 266.691654,164.823589 269.337083,191.871006 C270.274553,206.336076 268.199979,213.568611 263.113361,213.568611 C258.026744,213.568611 255.107865,206.336076 254.356723,191.871006 C251.937865,177.434356 248.173046,163.848675 243.062267,151.113964 C235.396098,132.011898 215.587464,75.5299931 137.05842,71.5635765 C58.5293746,67.5971599 26.3399344,148.261973 21.6177268,160.77846 C18.4695885,169.122785 15.217622,183.269528 11.8618275,203.21869 C11.8618275,210.118637 9.79987785,213.568611 5.67597863,213.568611 C1.55207942,213.568611 -0.324646335,210.118637 0.0458013719,203.21869 C-0.121081803,177.164562 3.81759356,151.513848 11.8618275,126.266548 C23.9281783,88.395597 51.7326746,7.31287534 131.777634,0.324607373 Z" id="Path-8"></path>
                <ellipse id="Oval" cx="135.115175" cy="177.5" rx="27.3105142" ry="37.5"></ellipse>
            </g>
            <path d="M1212.85514,30.0691572 C1214.4299,10.4935154 1219.62764,0.705694496 1228.44836,0.705694496 C1237.26908,0.705694496 1241.67944,9.23671265 1241.67944,26.298749 L1253.2174,51.427786 C1285.54556,86.6457253 1303.72163,120.962037 1307.74561,154.37672 C1311.76959,187.791403 1309.38848,217.721168 1300.60228,244.166014 C1310.02246,271.1595 1311.47366,303.239274 1304.95589,340.405334 C1298.43811,377.571393 1283.60277,397.049896 1260.44987,398.840842 C1277.7095,369.201997 1286.33931,340.767017 1286.33931,313.535903 C1286.33931,286.304788 1278.39877,261.769702 1262.51768,239.930645 L1241.67944,217.569156 L1241.67944,395.385811 C1233.32333,430.885441 1217.81052,448.635255 1195.141,448.635255 C1161.13673,448.635255 1144.49476,411.426387 1147.01594,383.036836 C1149.53711,354.647285 1156.85263,335.001045 1176.21108,324.534761 C1189.11671,317.557239 1201.3314,319.821319 1212.85514,331.327002 L1212.85514,30.0691572 Z M1239.87998,105.591337 L1239.87998,136.816005 C1244.22191,150.675 1248.984,160.465851 1254.16624,166.188555 C1261.62972,174.430401 1271.01993,187.555001 1282.33686,205.562356 C1282.3368,202.177857 1282.33676,195.937478 1282.33676,186.84122 C1282.33676,173.196832 1279.82347,160.93071 1266.99486,136.816005 C1258.44245,120.739534 1249.40415,110.331312 1239.87998,105.591337 Z" id="green-" stroke="#50E3C2" fill="#50E3C2"></path>
            <g id="blue" transform="translate(882.666118, 224.295527) rotate(152.000000) translate(-882.666118, -224.295527) translate(747.666118, 116.795527)" fill="#4A90E2" stroke="#4A90E2">
                <path d="M131.777634,0.324607373 C211.822593,-6.6636606 249.416065,101.233214 257.392502,126.266548 C262.710127,142.955436 266.691654,164.823589 269.337083,191.871006 C270.274553,206.336076 268.199979,213.568611 263.113361,213.568611 C258.026744,213.568611 255.107865,206.336076 254.356723,191.871006 C251.937865,177.434356 248.173046,163.848675 243.062267,151.113964 C235.396098,132.011898 215.587464,75.5299931 137.05842,71.5635765 C58.5293746,67.5971599 26.3399344,148.261973 21.6177268,160.77846 C18.4695885,169.122785 15.217622,183.269528 11.8618275,203.21869 C11.8618275,210.118637 9.79987785,213.568611 5.67597863,213.568611 C1.55207942,213.568611 -0.324646335,210.118637 0.0458013719,203.21869 C-0.121081803,177.164562 3.81759356,151.513848 11.8618275,126.266548 C23.9281783,88.395597 51.7326746,7.31287534 131.777634,0.324607373 Z" id="Path-8"></path>
                <ellipse id="Oval" cx="135.115175" cy="177.5" rx="27.3105142" ry="37.5"></ellipse>
            </g>
            <path d="M762.452732,442 C769.96985,442 775.529274,443.194902 779.131004,445.584706 C782.732734,447.97451 786.201693,452.443063 789.537882,458.990367 L789.537882,641.307363 C783.37426,654.887901 774.345876,664.884109 762.452732,671.295987 C743.931196,681.28139 723.31711,684.958615 692.451986,678.461478 C670.185359,673.774333 658.523591,659.643857 651.944176,645.92055 C643.430356,628.162473 648.782796,608.162076 662.917658,595.624147 C681.264268,579.350306 698.020532,574.831484 717.28548,574.831484 C736.470419,574.831484 748.031369,579.043822 751.96833,587.468497 L751.96833,487.03756 L594.472406,522.295133 L594.472406,671.295987 C592.114234,688.620982 584.15269,700.955761 570.587773,708.300325 C548.566796,720.223323 525.875811,721.52167 506.013802,718.810537 C497.788731,717.687827 474.953933,713.201495 463.767647,701.831147 C451.929243,689.797951 452.00841,670.663005 454.01831,662.40991 C458.537627,643.85259 461.994244,634.66729 476.739496,623.397491 C491.484748,612.127692 523.895305,614.254767 534.905655,616.516557 C544.549628,618.497661 553.217751,620.791306 560.910023,623.397491 C560.910023,550.02672 560.910023,510.13748 560.910023,503.729771 C560.910023,497.322062 566.247823,492.242819 576.923422,488.492041 C618.152157,478.160477 679.995261,462.663129 762.452732,442 Z" id="red" stroke="#D0021B" stroke-width="4" fill="#E30909"></path>
            <g id="pink" transform="translate(183.000000, 1060.000000)">
                <path d="M389.960434,6.00018757 C441.192502,20.2369356 468.803074,72.5400846 452.157142,152.373944 C435.511211,232.207803 367.289359,275.10796 345.88938,290.940888 C324.4894,306.773816 292.265799,324.234576 274.451156,335.032529 C256.636513,345.830482 256.636513,324.153184 267.154918,317.906379 C277.673323,311.659573 342.750278,258.684943 373.65256,205.529444 C404.554841,152.373944 403.399652,104.816377 399.271492,82.9695143 C395.143332,61.1226513 380.543129,25.1633885 334.474641,31.9663701 C303.762315,36.5016911 289.67274,51.8522983 292.205914,78.0181917 C332.464972,61.0329698 352.594501,68.1554887 352.594501,99.3857486 C352.594501,130.616008 335.437942,141.839006 301.124826,133.054742 C274.68683,123.28775 261.467832,103.116197 261.467832,72.5400846 C261.467832,41.9639721 273.073171,21.5527665 296.283849,11.306468 C324.580193,-1.72221766 355.805721,-3.4909778 389.960434,6.00018757 Z" id="Path-10" stroke="#E39AC6" fill="#E39AC6"></path>
                <ellipse id="Oval-3" stroke="#F095C8" fill="#E39AC6" cx="505" cy="160" rx="25" ry="28"></ellipse>
                <ellipse id="Oval-3" stroke="#F095C8" fill="#E39AC6" cx="505" cy="66" rx="25" ry="28"></ellipse>
                <g id="blue" transform="translate(151.666118, 722.295527) rotate(170.000000) translate(-151.666118, -722.295527) translate(16.666118, 614.795527)" fill="#4A90E2" stroke="#4A90E2">
                    <path d="M131.777634,0.324607373 C211.822593,-6.6636606 249.416065,101.233214 257.392502,126.266548 C262.710127,142.955436 266.691654,164.823589 269.337083,191.871006 C270.274553,206.336076 268.199979,213.568611 263.113361,213.568611 C258.026744,213.568611 255.107865,206.336076 254.356723,191.871006 C251.937865,177.434356 248.173046,163.848675 243.062267,151.113964 C235.396098,132.011898 215.587464,75.5299931 137.05842,71.5635765 C58.5293746,67.5971599 26.3399344,148.261973 21.6177268,160.77846 C18.4695885,169.122785 15.217622,183.269528 11.8618275,203.21869 C11.8618275,210.118637 9.79987785,213.568611 5.67597863,213.568611 C1.55207942,213.568611 -0.324646335,210.118637 0.0458013719,203.21869 C-0.121081803,177.164562 3.81759356,151.513848 11.8618275,126.266548 C23.9281783,88.395597 51.7326746,7.31287534 131.777634,0.324607373 Z" id="Path-8"></path>
                    <ellipse id="Oval" cx="135.115175" cy="177.5" rx="27.3105142" ry="37.5"></ellipse>
                </g>
            </g>
            <path d="M121.094668,2210.18982 L135.036977,2158.32274 C146.143873,2129.09995 157.252398,2111.59601 168.362555,2105.81092 C185.027789,2097.13329 191.786807,2101.99099 197.304797,2109.77878 C202.822787,2117.56657 205.972623,2131.53223 207.568038,2143.01213 C209.163453,2154.49203 210.926761,2164.5097 207.568038,2178.60147 C205.328889,2187.99598 200.689604,2193.84216 193.650183,2196.14 C184.863949,2194.24697 180.470832,2185.7607 180.470832,2170.6812 C180.470832,2155.60169 183.928185,2146.37867 190.842892,2143.01213 C190.210355,2136.37474 187.373312,2133.05604 182.331762,2133.05604 C174.769439,2133.05604 169.322802,2144.00532 163.83861,2164.5097 C160.182482,2178.17929 157.733846,2193.40599 156.492702,2210.18982 L170.899632,2210.18982 C175.96645,2214.3174 178.499859,2220.9202 178.499859,2229.99823 C178.499859,2239.07626 175.96645,2245.85497 170.899632,2250.33436 L153.354062,2250.33436 C143.975232,2304.04001 135.135607,2345.31654 126.835187,2374.16397 C114.384558,2417.43511 97.9063946,2435.37993 87.8461197,2437.93906 C77.7858447,2440.49819 64.5306866,2440.49819 59.0860579,2424.80116 C53.6414293,2409.10414 50.705756,2384.51089 53.6414293,2364.88575 C55.5985449,2351.80232 61.1083835,2345.26061 70.1709453,2345.26061 C77.4891391,2345.26061 81.6801052,2352.9748 82.7438436,2368.40317 C83.8075819,2383.83155 79.6166158,2393.73023 70.1709453,2398.09922 C69.8416347,2405.43584 72.3799345,2409.10414 77.7858447,2409.10414 C85.89471,2409.10414 95.6077416,2390.32248 99.3088175,2364.88575 C101.776201,2347.92793 104.253774,2328.89749 106.741536,2307.79443 L115.032582,2250.33436 L99.3088175,2250.33436 C91.817002,2243.88686 88.7024087,2235.92316 89.9650376,2226.44327 C91.2276665,2216.96338 94.9735742,2211.54556 101.202761,2210.18982 L121.094668,2210.18982 Z" id="yellow-copy" stroke="#F8E71C" fill="#F8E71C" transform="translate(130.981400, 2270.199517) rotate(-1.000000) translate(-130.981400, -2270.199517) "></path>
            <path d="M359.452732,2713 C366.96985,2713 372.529274,2714.1949 376.131004,2716.58471 C379.732734,2718.97451 383.201693,2723.44306 386.537882,2729.99037 L386.537882,2912.30736 C380.37426,2925.8879 371.345876,2935.88411 359.452732,2942.29599 C340.931196,2952.28139 320.31711,2955.95861 289.451986,2949.46148 C267.185359,2944.77433 255.523591,2930.64386 248.944176,2916.92055 C240.430356,2899.16247 245.782796,2879.16208 259.917658,2866.62415 C278.264268,2850.35031 295.020532,2845.83148 314.28548,2845.83148 C333.470419,2845.83148 345.031369,2850.04382 348.96833,2858.4685 L348.96833,2758.03756 L191.472406,2793.29513 L191.472406,2942.29599 C189.114234,2959.62098 181.15269,2971.95576 167.587773,2979.30033 C145.566796,2991.22332 122.875811,2992.52167 103.013802,2989.81054 C94.7887311,2988.68783 71.9539335,2984.20149 60.7676473,2972.83115 C48.9292425,2960.79795 49.0084102,2941.66301 51.0183099,2933.40991 C55.5376271,2914.85259 58.9942437,2905.66729 73.7394958,2894.39749 C88.4847478,2883.12769 120.895305,2885.25477 131.905655,2887.51656 C141.549628,2889.49766 150.217751,2891.79131 157.910023,2894.39749 C157.910023,2821.02672 157.910023,2781.13748 157.910023,2774.72977 C157.910023,2768.32206 163.247823,2763.24282 173.923422,2759.49204 C215.152157,2749.16048 276.995261,2733.66313 359.452732,2713 Z" id="red" stroke="#D0021B" stroke-width="4" fill="#E30909" transform="translate(218.268941, 2852.000000) rotate(39.000000) translate(-218.268941, -2852.000000) "></path>
            <g id="green" transform="translate(504.488922, 3364.344507) rotate(255.000000) translate(-504.488922, -3364.344507) translate(425.988922, 3225.344507)" fill="#B8E986" stroke="#B8E986">
                <path d="M45.7688656,269.985425 C45.7688656,279.418314 38.8703194,277.427719 38.8703194,277.427719 C38.8703194,277.427719 29.3778078,277.427719 10.3927844,277.427719 C4.06004436,277.427719 0.893674354,274.39579 0.893674354,268.331932 C0.893674354,259.236144 0.893674354,31.6315734 0.893674354,8.07192102 C0.893674354,4.53097406 5.09470058,0.631382671 8.08279814,0.631382671 C17.2247268,0.631382671 35.7766211,-0.0106052298 39.6054392,0.631382671 C42.3054574,1.08410175 45.7394775,4.08993698 45.7688656,8.07192102 C45.942962,31.6613133 45.7688656,260.552537 45.7688656,269.985425 Z" id="Path-9"></path>
                <circle id="Oval-2" cx="134.5" cy="100.5" r="22.5"></circle>
                <circle id="Oval-2" cx="134.5" cy="178.5" r="22.5"></circle>
                <path d="M88.9571943,268.331932 C88.9571943,277.427719 85.5648502,277.427719 85.5648502,277.427719 C85.5648502,277.427719 80.8969295,277.427719 71.5610883,277.427719 C68.446978,277.427719 66.8899229,274.39579 66.8899229,268.331932 C66.8899229,259.236144 66.8899229,31.6315734 66.8899229,8.07192102 C66.8899229,2.78521354 68.9557678,0.631382671 70.4251579,0.631382671 C74.9206801,0.631382671 82.0220977,0.631382671 85.9263436,0.631382671 C87.2545603,0.631382671 88.9571943,2.84396509 88.9571943,8.07192102 C88.9571943,31.6857204 88.9571943,259.236144 88.9571943,268.331932 Z" id="Path-9-Copy"></path>
            </g>
            <g id="pink" transform="translate(310.774037, 3994.219481) rotate(25.000000) translate(-310.774037, -3994.219481) translate(175.774037, 3825.219481)" fill="#E39AC6">
                <path d="M129.960434,6.00018757 C181.192502,20.2369356 208.803074,72.5400846 192.157142,152.373944 C175.511211,232.207803 107.289359,275.10796 85.8893798,290.940888 C64.4894003,306.773816 32.2657986,324.234576 14.451156,335.032529 C-3.3634867,345.830482 -3.3634867,324.153184 7.15491812,317.906379 C17.6733229,311.659573 82.7502783,258.684943 113.65256,205.529444 C144.554841,152.373944 143.399652,104.816377 139.271492,82.9695143 C135.143332,61.1226513 120.543129,25.1633885 74.4746408,31.9663701 C43.7623153,36.5016911 29.6727398,51.8522983 32.2059142,78.0181917 C72.4649719,61.0329698 92.5945007,68.1554887 92.5945007,99.3857486 C92.5945007,130.616008 75.4379425,141.839006 41.1248261,133.054742 C14.68683,123.28775 1.46783203,103.116197 1.46783203,72.5400846 C1.46783203,41.9639721 13.0731709,21.5527665 36.2838486,11.306468 C64.5801927,-1.72221766 95.8057211,-3.4909778 129.960434,6.00018757 Z" id="Path-10" stroke="#E39AC6"></path>
                <ellipse id="Oval-3" stroke="#F095C8" cx="245" cy="160" rx="25" ry="28"></ellipse>
                <ellipse id="Oval-3" stroke="#F095C8" cx="245" cy="66" rx="25" ry="28"></ellipse>
            </g>
            <path d="M760.650739,4288.84838 L760.650739,3971.89882 L777.650739,3971.89882 L777.650739,4307.96452 C782.295703,4336.82128 764.17356,4361.96539 730.387112,4377.72027 C696.600664,4393.47515 660.88598,4388.39321 650.616133,4366.36946 C640.346285,4344.3457 659.410257,4313.72006 693.196705,4297.96518 C715.487458,4287.57083 743.104319,4282.68374 760.650739,4288.84838 Z" id="mustard" stroke="#F5A800" fill="#EAAA0D" transform="translate(713.102362, 4179.387927) rotate(5.000000) translate(-713.102362, -4179.387927) "></path>
            <path d="M1358.48183,510.168612 L1388.36792,448.603753 C1412.17614,413.917061 1435.98786,393.140341 1459.80307,386.273592 C1495.52589,375.973468 1510.01421,381.739441 1521.84231,390.983343 C1533.67042,400.227245 1540.42226,416.804112 1543.84212,430.430456 C1547.26198,444.0568 1551.04172,455.947505 1543.84212,472.674066 C1539.04238,483.825107 1529.09783,490.764368 1514.00845,493.491847 C1495.17469,491.244865 1485.75781,481.171886 1485.75781,463.27291 C1485.75781,445.373935 1493.16883,434.42645 1507.99088,430.430456 C1506.635,422.552041 1500.55364,418.612834 1489.74681,418.612834 C1473.53657,418.612834 1461.86141,431.609341 1450.10576,455.947505 C1442.26865,472.172947 1437.01987,490.24665 1434.35941,510.168612 L1465.24143,510.168612 C1476.10243,515.067941 1481.53293,522.905295 1481.53293,533.680674 C1481.53293,544.456054 1476.10243,552.502206 1465.24143,557.819131 L1427.63157,557.819131 C1407.52754,621.566324 1388.57934,670.560489 1370.78694,704.801629 C1344.09835,756.163338 1308.77653,777.463364 1287.21179,780.500983 C1265.64706,783.538602 1237.23392,783.538602 1225.56307,764.906649 C1213.89221,746.274695 1207.59944,717.08315 1213.89221,693.788622 C1218.0874,678.258936 1229.89803,670.494093 1249.32411,670.494093 C1265.01105,670.494093 1273.99461,679.650632 1276.27479,697.96371 C1278.55497,716.276787 1269.57141,728.026266 1249.32411,733.212147 C1248.61822,741.920513 1254.0592,746.274695 1265.64706,746.274695 C1283.02884,746.274695 1303.84925,723.98135 1311.7827,693.788622 C1317.07167,673.660136 1322.38248,651.071503 1327.71513,626.022721 L1345.48743,557.819131 L1311.7827,557.819131 C1295.72359,550.166114 1289.0473,540.713413 1291.75381,529.461031 C1294.46032,518.208649 1302.48987,511.777842 1315.84247,510.168612 L1358.48183,510.168612 Z" id="yellow-copy" stroke="#F8E71C" fill="#F8E71C" transform="translate(1379.674570, 581.398548) rotate(-34.000000) translate(-1379.674570, -581.398548) "></path>
        </g>
    </g>
</svg>