<?xml version="1.0" encoding="UTF-8"?>
<svg width="1350px" height="1602px" viewBox="0 0 1350 1602" version="1.1" xmlns="http://www.w3.org/2000/svg" xmlns:xlink="http://www.w3.org/1999/xlink">
    <!-- Generator: Sketch 50.2 (55047) - http://www.bohemiancoding.com/sketch -->
    <title>pink</title>
    <desc>Created with Sketch.</desc>
    <defs></defs>
    <g id="Page-1" stroke="none" stroke-width="1" fill="none" fill-rule="evenodd">
        <g id="pink" transform="translate(1.000000, 1.000000)" fill="#E39AC6">
            <path d="M650.461865,28.4032547 C906.88227,95.7961449 1045.07528,343.385016 961.761129,721.296774 C878.446977,1099.20853 536.991413,1302.2862 429.882886,1377.23497 C322.774359,1452.18374 161.492779,1534.83823 72.3291359,1585.9528 C-16.834507,1637.06737 -16.834507,1534.45294 35.81091,1504.88227 C88.456327,1475.31159 414.171444,1224.54411 568.839715,972.920443 C723.507986,721.296774 717.726175,496.1722 697.06442,392.755097 C676.402665,289.337994 603.327539,119.116632 372.751248,151.320095 C219.03372,172.78907 148.514322,245.454667 161.193053,369.316884 C362.692702,288.913466 463.442526,322.629533 463.442526,470.465082 C463.442526,618.300632 377.572646,671.427249 205.832886,629.844933 C73.5087027,583.610649 7.34661105,488.12401 7.34661105,343.385016 C7.34661105,198.646022 65.4322157,102.02493 181.603425,53.5217418 C323.228782,-8.15250965 479.514929,-16.5253387 650.461865,28.4032547 Z" id="Path-10" stroke="#E39AC6"></path>
            <ellipse id="Oval-3" stroke="#F095C8" cx="1224" cy="757.5" rx="124" ry="132.5"></ellipse>
            <ellipse id="Oval-3" stroke="#F095C8" cx="1224" cy="311.5" rx="124" ry="132.5"></ellipse>
        </g>
    </g>
</svg>