<?xml version="1.0" encoding="UTF-8"?>
<svg width="2271px" height="2370px" viewBox="0 0 2271 2370" version="1.1" xmlns="http://www.w3.org/2000/svg" xmlns:xlink="http://www.w3.org/1999/xlink">
    <!-- Generator: Sketch 50.2 (55047) - http://www.bohemiancoding.com/sketch -->
    <title>pink flower</title>
    <desc>Created with Sketch.</desc>
    <defs></defs>
    <g id="Page-1" stroke="none" stroke-width="1" fill="none" fill-rule="evenodd">
        <g id="pink-flower" transform="translate(-94.000000, 1.000000)" fill="#E39AC6">
            <g id="pink-copy" transform="translate(1212.000000, 0.000000)">
                <path d="M358.875512,19.8112702 C500.348839,66.8178111 576.593259,239.511049 530.62683,503.1045 C484.660401,766.697952 296.271124,908.344627 237.176765,960.621394 C178.082405,1012.89816 89.0994642,1070.54967 39.9057302,1106.20208 C-9.28800388,1141.85449 -9.28800388,1070.28093 19.7577435,1049.65538 C48.8034908,1029.02983 228.508383,854.119518 313.842601,678.612009 C399.17682,503.1045 395.986855,346.08011 384.587266,273.94668 C373.187677,201.813251 332.870366,83.0838508 205.655861,105.545766 C120.84619,120.520377 81.9389362,171.20463 88.9340982,257.598526 C200.106318,201.517143 255.692428,225.034099 255.692428,328.149395 C255.692428,431.264691 208.315943,468.320506 113.562972,439.316841 C40.5565256,407.068428 4.05330265,340.466497 4.05330265,239.511049 C4.05330265,138.5556 36.1005328,71.1623889 100.194993,37.3314149 C178.333121,-5.68637548 264.559961,-11.5264237 358.875512,19.8112702 Z" id="Path-10" stroke="#E39AC6"></path>
                <ellipse id="Oval-3" stroke="#F095C8" cx="674.5" cy="526.5" rx="68.5" ry="92.5"></ellipse>
                <ellipse id="Oval-3" stroke="#F095C8" cx="674.5" cy="216.5" rx="68.5" ry="92.5"></ellipse>
            </g>
            <g id="pink-copy" transform="translate(1847.007039, 1281.536276) rotate(69.000000) translate(-1847.007039, -1281.536276) translate(1475.507039, 723.536276)">
                <path d="M358.875512,19.8112702 C500.348839,66.8178111 576.593259,239.511049 530.62683,503.1045 C484.660401,766.697952 296.271124,908.344627 237.176765,960.621394 C178.082405,1012.89816 89.0994642,1070.54967 39.9057302,1106.20208 C-9.28800388,1141.85449 -9.28800388,1070.28093 19.7577435,1049.65538 C48.8034908,1029.02983 228.508383,854.119518 313.842601,678.612009 C399.17682,503.1045 395.986855,346.08011 384.587266,273.94668 C373.187677,201.813251 332.870366,83.0838508 205.655861,105.545766 C120.84619,120.520377 81.9389362,171.20463 88.9340982,257.598526 C200.106318,201.517143 255.692428,225.034099 255.692428,328.149395 C255.692428,431.264691 208.315943,468.320506 113.562972,439.316841 C40.5565256,407.068428 4.05330265,340.466497 4.05330265,239.511049 C4.05330265,138.5556 36.1005328,71.1623889 100.194993,37.3314149 C178.333121,-5.68637548 264.559961,-11.5264237 358.875512,19.8112702 Z" id="Path-10" stroke="#E39AC6"></path>
                <ellipse id="Oval-3" stroke="#F095C8" cx="674.5" cy="526.5" rx="68.5" ry="92.5"></ellipse>
                <ellipse id="Oval-3" stroke="#F095C8" cx="674.5" cy="216.5" rx="68.5" ry="92.5"></ellipse>
            </g>
            <g id="pink-copy" transform="translate(1283.950165, 1828.533076) rotate(139.000000) translate(-1283.950165, -1828.533076) translate(912.450165, 1270.533076)">
                <path d="M358.875512,19.8112702 C500.348839,66.8178111 576.593259,239.511049 530.62683,503.1045 C484.660401,766.697952 296.271124,908.344627 237.176765,960.621394 C178.082405,1012.89816 89.0994642,1070.54967 39.9057302,1106.20208 C-9.28800388,1141.85449 -9.28800388,1070.28093 19.7577435,1049.65538 C48.8034908,1029.02983 228.508383,854.119518 313.842601,678.612009 C399.17682,503.1045 395.986855,346.08011 384.587266,273.94668 C373.187677,201.813251 332.870366,83.0838508 205.655861,105.545766 C120.84619,120.520377 81.9389362,171.20463 88.9340982,257.598526 C200.106318,201.517143 255.692428,225.034099 255.692428,328.149395 C255.692428,431.264691 208.315943,468.320506 113.562972,439.316841 C40.5565256,407.068428 4.05330265,340.466497 4.05330265,239.511049 C4.05330265,138.5556 36.1005328,71.1623889 100.194993,37.3314149 C178.333121,-5.68637548 264.559961,-11.5264237 358.875512,19.8112702 Z" id="Path-10" stroke="#E39AC6"></path>
                <ellipse id="Oval-3" stroke="#F095C8" cx="674.5" cy="526.5" rx="68.5" ry="92.5"></ellipse>
                <ellipse id="Oval-3" stroke="#F095C8" cx="674.5" cy="216.5" rx="68.5" ry="92.5"></ellipse>
            </g>
            <g id="pink-copy" transform="translate(605.828898, 1404.635999) rotate(211.000000) translate(-605.828898, -1404.635999) translate(234.328898, 846.635999)">
                <path d="M358.875512,19.8112702 C500.348839,66.8178111 576.593259,239.511049 530.62683,503.1045 C484.660401,766.697952 296.271124,908.344627 237.176765,960.621394 C178.082405,1012.89816 89.0994642,1070.54967 39.9057302,1106.20208 C-9.28800388,1141.85449 -9.28800388,1070.28093 19.7577435,1049.65538 C48.8034908,1029.02983 228.508383,854.119518 313.842601,678.612009 C399.17682,503.1045 395.986855,346.08011 384.587266,273.94668 C373.187677,201.813251 332.870366,83.0838508 205.655861,105.545766 C120.84619,120.520377 81.9389362,171.20463 88.9340982,257.598526 C200.106318,201.517143 255.692428,225.034099 255.692428,328.149395 C255.692428,431.264691 208.315943,468.320506 113.562972,439.316841 C40.5565256,407.068428 4.05330265,340.466497 4.05330265,239.511049 C4.05330265,138.5556 36.1005328,71.1623889 100.194993,37.3314149 C178.333121,-5.68637548 264.559961,-11.5264237 358.875512,19.8112702 Z" id="Path-10" stroke="#E39AC6"></path>
                <ellipse id="Oval-3" stroke="#F095C8" cx="674.5" cy="526.5" rx="68.5" ry="92.5"></ellipse>
                <ellipse id="Oval-3" stroke="#F095C8" cx="674.5" cy="216.5" rx="68.5" ry="92.5"></ellipse>
            </g>
            <g id="pink-copy" transform="translate(700.272389, 649.543178) rotate(278.000000) translate(-700.272389, -649.543178) translate(328.772389, 91.543178)">
                <path d="M358.875512,19.8112702 C500.348839,66.8178111 576.593259,239.511049 530.62683,503.1045 C484.660401,766.697952 296.271124,908.344627 237.176765,960.621394 C178.082405,1012.89816 89.0994642,1070.54967 39.9057302,1106.20208 C-9.28800388,1141.85449 -9.28800388,1070.28093 19.7577435,1049.65538 C48.8034908,1029.02983 228.508383,854.119518 313.842601,678.612009 C399.17682,503.1045 395.986855,346.08011 384.587266,273.94668 C373.187677,201.813251 332.870366,83.0838508 205.655861,105.545766 C120.84619,120.520377 81.9389362,171.20463 88.9340982,257.598526 C200.106318,201.517143 255.692428,225.034099 255.692428,328.149395 C255.692428,431.264691 208.315943,468.320506 113.562972,439.316841 C40.5565256,407.068428 4.05330265,340.466497 4.05330265,239.511049 C4.05330265,138.5556 36.1005328,71.1623889 100.194993,37.3314149 C178.333121,-5.68637548 264.559961,-11.5264237 358.875512,19.8112702 Z" id="Path-10" stroke="#E39AC6"></path>
                <ellipse id="Oval-3" stroke="#F095C8" cx="674.5" cy="526.5" rx="68.5" ry="92.5"></ellipse>
                <ellipse id="Oval-3" stroke="#F095C8" cx="674.5" cy="216.5" rx="68.5" ry="92.5"></ellipse>
            </g>
            <g id="pink-copy" transform="translate(1283.950165, 1828.533076) rotate(139.000000) translate(-1283.950165, -1828.533076) translate(912.450165, 1270.533076)">
                <path d="M358.875512,19.8112702 C500.348839,66.8178111 576.593259,239.511049 530.62683,503.1045 C484.660401,766.697952 296.271124,908.344627 237.176765,960.621394 C178.082405,1012.89816 89.0994642,1070.54967 39.9057302,1106.20208 C-9.28800388,1141.85449 -9.28800388,1070.28093 19.7577435,1049.65538 C48.8034908,1029.02983 228.508383,854.119518 313.842601,678.612009 C399.17682,503.1045 395.986855,346.08011 384.587266,273.94668 C373.187677,201.813251 332.870366,83.0838508 205.655861,105.545766 C120.84619,120.520377 81.9389362,171.20463 88.9340982,257.598526 C200.106318,201.517143 255.692428,225.034099 255.692428,328.149395 C255.692428,431.264691 208.315943,468.320506 113.562972,439.316841 C40.5565256,407.068428 4.05330265,340.466497 4.05330265,239.511049 C4.05330265,138.5556 36.1005328,71.1623889 100.194993,37.3314149 C178.333121,-5.68637548 264.559961,-11.5264237 358.875512,19.8112702 Z" id="Path-10" stroke="#E39AC6"></path>
                <ellipse id="Oval-3" stroke="#F095C8" cx="674.5" cy="526.5" rx="68.5" ry="92.5"></ellipse>
                <ellipse id="Oval-3" stroke="#F095C8" cx="674.5" cy="216.5" rx="68.5" ry="92.5"></ellipse>
            </g>
            <path d="M1154.71882,511.86706 C1149.45215,471.1947 1147.63459,432.847006 1149.26614,396.823977 C1151.71348,342.789434 1169.94017,295.216149 1197.40162,295.216149 C1215.70926,295.216149 1226.97055,314.945463 1231.1855,354.404093 C1234.91821,385.708434 1232.81074,419.778348 1224.86308,456.613833 C1216.91542,493.449318 1204.35554,526.960667 1187.18345,557.147881 L1192.95216,635.901658 C1214.22611,639.71624 1228.76859,660.094529 1236.57962,697.036525 C1248.29617,752.449519 1241.97374,779.554105 1236.57962,802.43045 C1232.98354,817.681347 1223.78724,833.453652 1208.99072,849.747366 C1210.52238,884.621066 1211.28822,911.464328 1211.28822,930.277152 C1211.28822,958.496389 1197.29656,1010.78836 1174.45421,1018.65408 C1151.61186,1026.5198 1126.44274,1007.10258 1119.0439,983.003839 C1111.64507,958.905094 1113.42761,940.873764 1119.0439,914.579157 C1124.66019,888.284551 1141.91036,877.502164 1154.71882,888.284551 C1167.52728,899.066937 1172.68746,922.387038 1167.52728,947.780882 C1164.08716,964.710111 1155.98966,974.471972 1143.23478,977.066467 C1147.91331,985.235617 1153.19663,989.320192 1159.08475,989.320192 C1167.91694,989.320192 1185.9608,976.936612 1190.30935,947.780882 C1193.20838,928.343728 1192.16641,898.526825 1187.18345,858.330175 C1157.88434,862.31567 1135.97143,854.421467 1121.44473,834.647566 C1099.65468,804.986715 1086.2021,771.751551 1086.2021,697.036525 C1086.2021,647.226508 1097.14937,603.488859 1119.0439,565.823578 L1154.71882,511.86706 Z M1178.13296,484.398355 C1181.36768,480.396658 1186.19268,469.865688 1192.60794,452.805443 C1199.02321,435.745199 1203.46513,420.33949 1205.93371,406.588316 C1208.11179,383.824675 1205.61451,370.033971 1198.44187,365.216203 C1191.26922,360.398436 1184.49959,368.610933 1178.13296,389.853696 C1175.66783,404.676071 1174.43527,418.470491 1174.43527,431.236955 C1174.43527,444.00342 1175.66783,461.723886 1178.13296,484.398355 Z M1165.18673,590.234425 C1142.01657,603.129693 1127.43591,623.447296 1121.44473,651.187233 C1112.45797,692.797138 1114.45235,709.197363 1114.45235,731.323176 C1114.45235,753.448989 1123.48389,788.51218 1143.74974,805.191068 C1157.2603,816.310326 1170.76513,820.116239 1184.26421,816.608805 L1174.14937,690.88737 C1168.17427,690.88737 1163.53622,695.275719 1160.23522,704.052419 C1155.28372,717.217467 1151.79614,729.372538 1155.50934,753.448989 C1157.9848,769.499957 1162.70093,781.97042 1169.65772,790.860377 C1154.31581,784.66292 1144.45472,776.613905 1140.07443,766.713331 C1133.50401,751.86247 1131.39424,731.323176 1140.07443,691.414971 C1145.86123,664.809501 1155.72233,649.433516 1169.65772,645.287016 L1165.18673,590.234425 Z M1196.49399,691.414971 L1204.57656,803.221852 C1214.31053,789.917912 1219.7701,775.551305 1220.95527,760.122031 C1222.73302,736.978119 1220.64708,716.162132 1213.30843,701.521136 C1208.41599,691.760472 1202.81118,688.39175 1196.49399,691.414971 Z" id="gray" stroke="#E39AC6" transform="translate(1164.702100, 657.822805) rotate(-11.000000) translate(-1164.702100, -657.822805) "></path>
            <path d="M1674.27899,770.314575 C1669.01231,729.642215 1667.19475,691.294521 1668.82631,655.271492 C1671.27364,601.236949 1689.50033,553.663664 1716.96179,553.663664 C1735.26943,553.663664 1746.53072,573.392978 1750.74567,612.851608 C1754.47838,644.155949 1752.37091,678.225863 1744.42325,715.061348 C1736.47558,751.896833 1723.91571,785.408182 1706.74361,815.595396 L1712.51233,894.349173 C1733.78627,898.163755 1748.32876,918.542044 1756.13979,955.48404 C1767.85633,1010.89703 1761.53391,1038.00162 1756.13979,1060.87796 C1752.54371,1076.12886 1743.34741,1091.90117 1728.55088,1108.19488 C1730.08255,1143.06858 1730.84838,1169.91184 1730.84838,1188.72467 C1730.84838,1216.9439 1716.85673,1269.23588 1694.01438,1277.10159 C1671.17203,1284.96731 1646.0029,1265.5501 1638.60407,1241.45135 C1631.20523,1217.35261 1632.98777,1199.32128 1638.60407,1173.02667 C1644.22036,1146.73207 1661.47053,1135.94968 1674.27899,1146.73207 C1687.08744,1157.51445 1692.24763,1180.83455 1687.08744,1206.2284 C1683.64732,1223.15763 1675.54983,1232.91949 1662.79495,1235.51398 C1667.47347,1243.68313 1672.7568,1247.76771 1678.64492,1247.76771 C1687.47711,1247.76771 1705.52097,1235.38413 1709.86952,1206.2284 C1712.76855,1186.79124 1711.72658,1156.97434 1706.74361,1116.77769 C1677.4445,1120.76318 1655.5316,1112.86898 1641.0049,1093.09508 C1619.21485,1063.43423 1605.76227,1030.19907 1605.76227,955.48404 C1605.76227,905.674022 1616.70953,861.936373 1638.60407,824.271093 L1674.27899,770.314575 Z M1697.69313,742.84587 C1700.92785,738.844173 1705.75284,728.313202 1712.16811,711.252958 C1718.58338,694.192714 1723.0253,678.787005 1725.49387,665.035831 C1727.67196,642.27219 1725.17468,628.481486 1718.00203,623.663718 C1710.82939,618.845951 1704.05976,627.058448 1697.69313,648.301211 C1695.228,663.123586 1693.99543,676.918006 1693.99543,689.68447 C1693.99543,702.450934 1695.228,720.171401 1697.69313,742.84587 Z M1684.74689,848.68194 C1661.57674,861.577208 1646.99607,881.894811 1641.0049,909.634747 C1632.01814,951.244652 1634.01252,967.644878 1634.01252,989.770691 C1634.01252,1011.8965 1643.04406,1046.9597 1663.3099,1063.63858 C1676.82047,1074.75784 1690.3253,1078.56375 1703.82438,1075.05632 L1693.70954,949.334884 C1687.73444,949.334884 1683.09639,953.723234 1679.79539,962.499933 C1674.84389,975.664982 1671.35631,987.820052 1675.06951,1011.8965 C1677.54497,1027.94747 1682.26109,1040.41793 1689.21788,1049.30789 C1673.87598,1043.11044 1664.01488,1035.06142 1659.6346,1025.16085 C1653.06417,1010.30999 1650.9544,989.770691 1659.6346,949.862486 C1665.4214,923.257016 1675.28249,907.881031 1689.21788,903.734531 L1684.74689,848.68194 Z M1716.05416,949.862486 L1724.13673,1061.66937 C1733.8707,1048.36543 1739.33027,1033.99882 1740.51543,1018.56955 C1742.29319,995.425634 1740.20725,974.609647 1732.86859,959.968651 C1727.97616,950.207987 1722.37135,946.839265 1716.05416,949.862486 Z" id="gray" stroke="#E39AC6" transform="translate(1684.262266, 916.270320) rotate(53.000000) translate(-1684.262266, -916.270320) "></path>
            <path d="M1534.59274,1355.01716 C1529.32606,1314.3448 1527.5085,1275.9971 1529.14006,1239.97407 C1531.58739,1185.93953 1549.81408,1138.36624 1577.27554,1138.36624 C1595.58318,1138.36624 1606.84447,1158.09556 1611.05942,1197.55419 C1614.79213,1228.85853 1612.68466,1262.92844 1604.737,1299.76393 C1596.78934,1336.59941 1584.22946,1370.11076 1567.05736,1400.29798 L1572.82608,1479.05175 C1594.10002,1482.86634 1608.64251,1503.24462 1616.45354,1540.18662 C1628.17008,1595.59962 1621.84766,1622.7042 1616.45354,1645.58055 C1612.85746,1660.83144 1603.66116,1676.60375 1588.86464,1692.89746 C1590.3963,1727.77116 1591.16213,1754.61442 1591.16213,1773.42725 C1591.16213,1801.64648 1577.17048,1853.93846 1554.32813,1861.80417 C1531.48578,1869.66989 1506.31665,1850.25268 1498.91782,1826.15393 C1491.51898,1802.05519 1493.30153,1784.02386 1498.91782,1757.72925 C1504.53411,1731.43465 1521.78428,1720.65226 1534.59274,1731.43465 C1547.4012,1742.21703 1552.56138,1765.53713 1547.4012,1790.93098 C1543.96108,1807.86021 1535.86358,1817.62207 1523.1087,1820.21656 C1527.78722,1828.38571 1533.07055,1832.47029 1538.95867,1832.47029 C1547.79086,1832.47029 1565.83472,1820.08671 1570.18327,1790.93098 C1573.0823,1771.49382 1572.04033,1741.67692 1567.05736,1701.48027 C1537.75826,1705.46577 1515.84535,1697.57156 1501.31865,1677.79766 C1479.5286,1648.13681 1466.07602,1614.90165 1466.07602,1540.18662 C1466.07602,1490.3766 1477.02329,1446.63895 1498.91782,1408.97367 L1534.59274,1355.01716 Z M1558.00688,1327.54845 C1561.2416,1323.54675 1566.0666,1313.01578 1572.48186,1295.95554 C1578.89713,1278.8953 1583.33905,1263.48959 1585.80762,1249.73841 C1587.98571,1226.97477 1585.48843,1213.18407 1578.31579,1208.3663 C1571.14314,1203.54853 1564.37351,1211.76103 1558.00688,1233.00379 C1555.54175,1247.82617 1554.30919,1261.62059 1554.30919,1274.38705 C1554.30919,1287.15352 1555.54175,1304.87398 1558.00688,1327.54845 Z M1545.06064,1433.38452 C1521.89049,1446.27979 1507.30982,1466.59739 1501.31865,1494.33733 C1492.33189,1535.94723 1494.32627,1552.34746 1494.32627,1574.47327 C1494.32627,1596.59909 1503.35781,1631.66228 1523.62366,1648.34116 C1537.13422,1659.46042 1550.63905,1663.26633 1564.13813,1659.7589 L1554.02329,1534.03747 C1548.04819,1534.03747 1543.41014,1538.42582 1540.10914,1547.20251 C1535.15764,1560.36756 1531.67006,1572.52263 1535.38326,1596.59909 C1537.85872,1612.65005 1542.57485,1625.12052 1549.53163,1634.01047 C1534.18973,1627.81302 1524.32864,1619.764 1519.94835,1609.86343 C1513.37793,1595.01257 1511.26815,1574.47327 1519.94835,1534.56507 C1525.73515,1507.9596 1535.59624,1492.58361 1549.53163,1488.43711 L1545.06064,1433.38452 Z M1576.36791,1534.56507 L1584.45048,1646.37195 C1594.18445,1633.06801 1599.64402,1618.7014 1600.82919,1603.27213 C1602.60694,1580.12822 1600.521,1559.31223 1593.18235,1544.67123 C1588.28991,1534.91057 1582.6851,1531.54185 1576.36791,1534.56507 Z" id="gray" stroke="#E39AC6" transform="translate(1544.576019, 1500.972901) rotate(128.000000) translate(-1544.576019, -1500.972901) "></path>
            <path d="M971.453205,1405.74536 C966.18653,1365.073 964.36897,1326.72531 966.000525,1290.70228 C968.447859,1236.66774 986.67455,1189.09445 1014.13601,1189.09445 C1032.44364,1189.09445 1043.70494,1208.82377 1047.91988,1248.2824 C1051.6526,1279.58674 1049.54512,1313.65665 1041.59746,1350.49214 C1033.6498,1387.32762 1021.08992,1420.83897 1003.91783,1451.02618 L1009.68654,1529.77996 C1030.96049,1533.59454 1045.50298,1553.97283 1053.31401,1590.91483 C1065.03055,1646.32782 1058.70813,1673.43241 1053.31401,1696.30875 C1049.71792,1711.55965 1040.52162,1727.33195 1025.7251,1743.62567 C1027.25677,1778.49937 1028.0226,1805.34263 1028.0226,1824.15546 C1028.0226,1852.37469 1014.03095,1904.66666 991.188597,1912.53238 C968.346245,1920.3981 943.177119,1900.98089 935.778284,1876.88214 C928.37945,1852.7834 930.16199,1834.75207 935.778284,1808.45746 C941.394578,1782.16285 958.644747,1771.38047 971.453205,1782.16285 C984.261662,1792.94524 989.421843,1816.26534 984.261662,1841.65918 C980.821541,1858.58841 972.724043,1868.35028 959.969166,1870.94477 C964.647689,1879.11392 969.931013,1883.19849 975.819137,1883.19849 C984.651323,1883.19849 1002.69519,1870.81492 1007.04373,1841.65918 C1009.94277,1822.22203 1008.9008,1792.40513 1003.91783,1752.20848 C974.618721,1756.19397 952.705816,1748.29977 938.179116,1728.52587 C916.389067,1698.86502 902.936484,1665.62985 902.936484,1590.91483 C902.936484,1541.10481 913.883751,1497.36716 935.778284,1459.70188 L971.453205,1405.74536 Z M994.867347,1378.27666 C998.102068,1374.27496 1002.92706,1363.74399 1009.34233,1346.68375 C1015.75759,1329.6235 1020.19951,1314.21779 1022.66809,1300.46662 C1024.84618,1277.70298 1022.3489,1263.91227 1015.17625,1259.09451 C1008.00361,1254.27674 1001.23397,1262.48924 994.867347,1283.732 C992.402217,1298.55437 991.169652,1312.34879 991.169652,1325.11526 C991.169652,1337.88172 992.402217,1355.60219 994.867347,1378.27666 Z M981.921109,1484.11273 C958.750953,1497.008 944.170289,1517.3256 938.179116,1545.06554 C929.192357,1586.67544 931.186736,1603.07567 931.186736,1625.20148 C931.186736,1647.32729 940.218274,1682.39048 960.484122,1699.06937 C973.994688,1710.18863 987.499513,1713.99454 1000.9986,1710.48711 L990.883756,1584.76567 C984.908658,1584.76567 980.270608,1589.15402 976.969608,1597.93072 C972.018106,1611.09577 968.530527,1623.25084 972.243723,1647.32729 C974.719186,1663.37826 979.435312,1675.84872 986.392099,1684.73868 C971.050195,1678.54122 961.189101,1670.49221 956.808817,1660.59163 C950.23839,1645.74077 948.12862,1625.20148 956.808817,1585.29327 C962.595615,1558.6878 972.456709,1543.31182 986.392099,1539.16532 L981.921109,1484.11273 Z M1013.22837,1585.29327 L1021.31095,1697.10015 C1031.04491,1683.79621 1036.50448,1669.42961 1037.68965,1654.00033 C1039.4674,1630.85642 1037.38146,1610.04044 1030.04281,1595.39944 C1025.15038,1585.63877 1019.54556,1582.27005 1013.22837,1585.29327 Z" id="gray" stroke="#E39AC6" transform="translate(981.436484, 1551.701108) rotate(196.000000) translate(-981.436484, -1551.701108) "></path>
            <path d="M706.782572,913.47879 C701.515897,872.80643 699.698337,834.458736 701.329893,798.435707 C703.777226,744.401164 722.003917,696.827878 749.465374,696.827878 C767.773011,696.827878 779.034304,716.557193 783.249251,756.015822 C786.981965,787.320164 784.874492,821.390077 776.92683,858.225562 C768.979168,895.061047 756.419291,928.572397 739.247197,958.759611 L745.015912,1037.51339 C766.289857,1041.32797 780.832344,1061.70626 788.643373,1098.64825 C800.359917,1154.06125 794.037496,1181.16583 788.643373,1204.04218 C785.047292,1219.29308 775.850991,1235.06538 761.05447,1251.3591 C762.586134,1286.2328 763.351966,1313.07606 763.351966,1331.88888 C763.351966,1360.10812 749.360316,1412.40009 726.517964,1420.26581 C703.675613,1428.13153 678.506486,1408.71431 671.107652,1384.61557 C663.708817,1360.51682 665.491358,1342.48549 671.107652,1316.19089 C676.723946,1289.89628 693.974115,1279.11389 706.782572,1289.89628 C719.591029,1300.67867 724.75121,1323.99877 719.591029,1349.39261 C716.150909,1366.32184 708.05341,1376.0837 695.298534,1378.6782 C699.977057,1386.84735 705.26038,1390.93192 711.148504,1390.93192 C719.980691,1390.93192 738.024555,1378.54834 742.373102,1349.39261 C745.272133,1329.95546 744.230165,1300.13856 739.247197,1259.9419 C709.948088,1263.9274 688.035184,1256.0332 673.508484,1236.2593 C651.718434,1206.59844 638.265851,1173.36328 638.265851,1098.64825 C638.265851,1048.83824 649.213118,1005.10059 671.107652,967.435308 L706.782572,913.47879 Z M730.196714,886.010085 C733.431436,882.008388 738.256429,871.477417 744.671695,854.417173 C751.086961,837.356929 755.528882,821.95122 757.997456,808.200046 C760.175542,785.436404 757.678264,771.6457 750.505619,766.827933 C743.332975,762.010165 736.56334,770.222663 730.196714,791.465425 C727.731584,806.287801 726.499019,820.082221 726.499019,832.848685 C726.499019,845.615149 727.731584,863.335616 730.196714,886.010085 Z M717.250476,991.846155 C694.080321,1004.74142 679.499657,1025.05903 673.508484,1052.79896 C664.521724,1094.40887 666.516103,1110.80909 666.516103,1132.93491 C666.516103,1155.06072 675.547641,1190.12391 695.81349,1206.8028 C709.324056,1217.92206 722.82888,1221.72797 736.327964,1218.22053 L726.213124,1092.4991 C720.238025,1092.4991 715.599976,1096.88745 712.298975,1105.66415 C707.347474,1118.8292 703.859895,1130.98427 707.57309,1155.06072 C710.048554,1171.11169 714.764679,1183.58215 721.721466,1192.47211 C706.379563,1186.27465 696.518469,1178.22563 692.138184,1168.32506 C685.567757,1153.4742 683.457987,1132.93491 692.138184,1093.0267 C697.924982,1066.42123 707.786076,1051.04525 721.721466,1046.89875 L717.250476,991.846155 Z M748.557742,1093.0267 L756.640314,1204.83358 C766.374282,1191.52964 771.83385,1177.16303 773.019019,1161.73376 C774.796772,1138.58985 772.710831,1117.77386 765.372179,1103.13287 C760.479744,1093.3722 754.874932,1090.00348 748.557742,1093.0267 Z" id="gray" stroke="#E39AC6" transform="translate(716.765851, 1059.434534) rotate(267.000000) translate(-716.765851, -1059.434534) "></path>
        </g>
    </g>

</svg>
