<?xml version="1.0" encoding="UTF-8"?>
<svg width="1510px" height="1611px" viewBox="0 0 1510 1611" version="1.1" xmlns="http://www.w3.org/2000/svg" xmlns:xlink="http://www.w3.org/1999/xlink">
    <!-- Generator: Sketch 50.2 (55047) - http://www.bohemiancoding.com/sketch -->
    <title>red</title>
    <desc>Created with Sketch.</desc>
    <defs></defs>
    <g id="Page-1" stroke="none" stroke-width="1" fill="none" fill-rule="evenodd">
        <path d="M1386.33476,2 C1419.96254,2 1444.83258,8.90345845 1460.9449,22.7103754 C1477.05721,36.5172923 1492.57558,62.3340353 1507.5,100.160604 L1507.5,1153.48372 C1479.92708,1231.94429 1439.53866,1289.69665 1386.33476,1326.7408 C1303.47879,1384.43074 1211.26181,1405.67563 1073.18688,1368.1389 C973.577273,1341.05926 921.408429,1259.42147 891.97546,1180.13607 C853.888942,1077.54008 877.833047,961.989247 941.065262,889.552275 C1023.1387,795.53135 1098.09774,769.424186 1184.27935,769.424186 C1270.10305,769.424186 1321.82089,793.76066 1339.43286,842.433607 L1339.43286,262.201211 L634.875876,465.899258 L634.875876,1326.7408 C624.32661,1426.83469 588.710695,1498.09798 528.02813,1540.53066 C429.517434,1609.41491 328.009462,1616.91601 239.156896,1601.25264 C202.362093,1594.76626 100.210777,1568.84681 50.1689994,1503.15546 C-2.79002648,1433.63454 -2.43587054,1323.08379 6.55540253,1275.40214 C26.7725386,1168.18858 42.23569,1115.12118 108.198478,1050.01074 C174.161266,984.900301 319.149681,997.189322 368.404408,1010.25665 C411.546657,1021.70233 450.323447,1034.9537 484.734779,1050.01074 C484.734779,626.116475 484.734779,395.659308 484.734779,358.639238 C484.734779,321.619168 508.61339,292.274212 556.370611,270.60437 C740.807088,210.91451 1017.4618,121.37972 1386.33476,2 Z" id="red" stroke="#D0021B" stroke-width="4" fill="#E30909"></path>
    </g>
</svg>