<?xml version="1.0" encoding="UTF-8"?>
<svg width="1349px" height="1870px" viewBox="0 0 1349 1870" version="1.1" xmlns="http://www.w3.org/2000/svg" xmlns:xlink="http://www.w3.org/1999/xlink">
    <!-- Generator: Sketch 50.2 (55047) - http://www.bohemiancoding.com/sketch -->
    <title>yellow</title>
    <desc>Created with Sketch.</desc>
    <defs></defs>
    <g id="Page-1" stroke="none" stroke-width="1" fill="none" fill-rule="evenodd">
        <path d="M589.894137,603.412346 L709.558219,316.732101 C804.886512,155.211561 900.228797,58.4635885 995.585073,26.4881844 C1138.61949,-21.4749217 1196.63081,5.37465425 1243.99062,48.4194063 C1291.35044,91.4641583 1318.38486,168.655279 1332.078,232.107119 C1345.77113,295.558959 1360.90525,350.928697 1332.078,428.816876 C1312.85982,480.742329 1273.04176,513.055386 1212.6238,525.75605 C1137.21328,515.292851 1099.50802,468.387456 1099.50802,385.039863 C1099.50802,301.69227 1129.18181,250.714689 1188.52937,232.107119 C1183.10043,195.420835 1158.75065,177.077693 1115.48003,177.077693 C1050.57409,177.077693 1003.82668,237.596661 956.756949,350.928697 C925.377126,426.483388 904.360966,510.644604 893.70847,603.412346 L1017.36031,603.412346 C1060.8478,626.226349 1082.59155,662.721432 1082.59155,712.897594 C1082.59155,763.073756 1060.8478,800.541119 1017.36031,825.299682 L866.770147,825.299682 C786.273498,1122.14209 710.404742,1350.28619 639.163879,1509.73199 C532.302584,1748.90069 390.873764,1848.08546 304.52841,1862.23031 C218.183056,1876.37515 104.416651,1876.37515 57.6864789,1789.61441 C10.9563064,1702.85366 -14.2399982,1566.92158 10.9563064,1458.4493 C27.7538427,1386.13444 75.0437,1349.97701 152.825878,1349.97701 C215.636491,1349.97701 251.606726,1392.61495 260.736582,1477.89083 C269.866438,1563.16671 233.896204,1617.87882 152.825878,1642.02717 C149.99947,1682.57817 171.785197,1702.85366 218.183056,1702.85366 C287.779846,1702.85366 371.144879,1599.04344 402.910482,1458.4493 C424.087551,1364.71987 445.352071,1259.53462 466.704041,1142.89355 L537.86445,825.299682 L402.910482,825.299682 C338.609709,789.662973 311.877769,745.64594 322.714664,693.248586 C333.551558,640.851232 365.701945,610.905818 419.165824,603.412346 L589.894137,603.412346 Z" id="yellow" stroke="#F8E71C" fill="#F8E71C"></path>
    </g>
</svg>